<?xml version="1.0" encoding="UTF-8" standalone="no"?>
<!-- Created with Inkscape (http://www.inkscape.org/) -->

<svg
   xmlns:dc="http://purl.org/dc/elements/1.1/"
   xmlns:cc="http://creativecommons.org/ns#"
   xmlns:rdf="http://www.w3.org/1999/02/22-rdf-syntax-ns#"
   xmlns:svg="http://www.w3.org/2000/svg"
   xmlns="http://www.w3.org/2000/svg"
   xmlns:sodipodi="http://sodipodi.sourceforge.net/DTD/sodipodi-0.dtd"
   xmlns:inkscape="http://www.inkscape.org/namespaces/inkscape"
   width="13.264444mm"
   height="13.264444mm"
   viewBox="0 0 47 46.999999"
   id="svg7826"
   version="1.1"
   inkscape:version="0.91 r13725"
   sodipodi:docname="dude_sad.svg">
  <defs
     id="defs7828" />
  <sodipodi:namedview
     id="base"
     pagecolor="#ffffff"
     bordercolor="#666666"
     borderopacity="1.0"
     inkscape:pageopacity="0.0"
     inkscape:pageshadow="2"
     inkscape:zoom="11.2"
     inkscape:cx="38.306019"
     inkscape:cy="10.220248"
     inkscape:document-units="px"
     inkscape:current-layer="layer1"
     showgrid="false"
     fit-margin-top="0"
     fit-margin-left="0"
     fit-margin-right="0"
     fit-margin-bottom="0"
     inkscape:window-width="1920"
     inkscape:window-height="1121"
     inkscape:window-x="114"
     inkscape:window-y="-8"
     inkscape:window-maximized="1" />
  <metadata
     id="metadata7831">
    <rdf:RDF>
      <cc:Work
         rdf:about="">
        <dc:format>image/svg+xml</dc:format>
        <dc:type
           rdf:resource="http://purl.org/dc/dcmitype/StillImage" />
        <dc:title></dc:title>
      </cc:Work>
    </rdf:RDF>
  </metadata>
  <g
     inkscape:label="Taso 1"
     inkscape:groupmode="layer"
     id="layer1"
     transform="translate(-593.64286,-211.71935)">
    <path
       d="m 600.54286,218.56935 q 6.85,-6.85 16.6,-6.85 9.55,0 16.4,6.6 l 0.25,0.25 q 6.85,6.85 6.85,16.6 0,9.4 -6.25,16.1 l -0.05,0.05 -0.3,0.3 -0.05,0.05 0.05,-0.1 -0.25,0.25 -0.1,0.1 0.1,-0.05 q -6.95,6.85 -16.65,6.85 -9.75,0 -16.6,-6.85 l -0.65,-0.7 q -6.25,-6.65 -6.25,-16 0,-9.5 6.6,-16.2 l 0.3,-0.4 m 16.6,-3.85 q -8.5,0 -14.45,6 -6.05,5.95 -6.05,14.45 0,8.15 5.45,13.95 l 0.6,0.65 q 5.95,5.95 14.45,5.95 8.5,0 14.5,-5.95 l 0.25,-0.25 0.3,-0.3 q 5.45,-5.85 5.45,-14.05 0,-8.5 -5.95,-14.45 l -0.05,0 q -6,-6 -14.5,-6"
       id="path431"
       inkscape:connector-curvature="0"
       style="fill:#c68096;stroke:none;fill-opacity:1" />
    <path
       d="m 607.74286,230.86935 q -1.1,1.2 -1.1,2.8 0,1.6 1.1,2.7 1.2,1.2 2.85,1.2 1.6,0 2.75,-1.2 1.2,-1.1 1.2,-2.7 0,-1.6 -1.2,-2.8 -1.15,-1.15 -2.75,-1.15 -1.65,0 -2.85,1.15 m -2.95,-8.05 q 5.1,-5.1 12.35,-5.1 7.25,0 12.4,5.1 5.1,5.1 5.1,12.35 0,7 -4.65,12 l -0.45,0.45 q -5.15,5.1 -12.4,5.1 -7.25,0 -12.35,-5.1 l -0.45,-0.5 q -4.7,-4.95 -4.7,-11.95 0,-7.25 5.15,-12.35 m 23.8,10.85 q 0,-1.6 -1.2,-2.8 -1.15,-1.15 -2.7,-1.15 -1.7,0 -2.9,1.15 -1.1,1.2 -1.1,2.8 0,1.6 1.1,2.7 1.2,1.2 2.9,1.2 1.55,0 2.7,-1.2 1.2,-1.1 1.2,-2.7 m -6.95,6.15 q -0.3,0.75 -1,1.35 -1.3,0.95 -3.05,0.95 -1.8,0 -3.05,-0.95 -0.7,-0.6 -0.95,-1.3 l -0.35,-0.45 -0.7,-0.05 q -0.3,0.05 -0.4,0.4 -0.2,0.25 -0.1,0.6 0.3,1.15 1.5,2 1.65,1.35 4.05,1.35 2.35,0 4,-1.35 1.1,-0.85 1.55,-1.95 l 0,-0.65 -0.45,-0.4 q -0.3,-0.15 -0.65,0 l -0.4,0.45"
       id="path433"
       inkscape:connector-curvature="0"
       style="fill:#f19cb7;stroke:none;fill-opacity:1" />
    <path
       d="m 607.74286,230.86935 c 0.8,-0.76667 1.75,-1.15 2.85,-1.15 1.06667,0 1.98333,0.38333 2.75,1.15 0.8,0.8 1.2,1.73333 1.2,2.8 0,1.06667 -0.4,1.96667 -1.2,2.7 -0.76667,0.8 -1.68333,1.2 -2.75,1.2 -1.1,0 -2.05,-0.4 -2.85,-1.2 -0.73333,-0.73333 -1.1,-1.63333 -1.1,-2.7 0,-1.06667 0.36667,-2 1.1,-2.8 m 20.85,2.8 c 0,1.06667 -0.4,1.96667 -1.2,2.7 -0.76667,0.8 -1.66667,1.2 -2.7,1.2 -1.13333,0 -2.1,-0.4 -2.9,-1.2 -0.73333,-0.73333 -1.1,-1.63333 -1.1,-2.7 0,-1.06667 0.36667,-2 1.1,-2.8 0.8,-0.76667 1.76667,-1.15 2.9,-1.15 1.03333,0 1.93333,0.38333 2.7,1.15 0.8,0.8 1.2,1.73333 1.2,2.8"
       id="path435"
       inkscape:connector-curvature="0"
       style="fill:#a55b72;fill-opacity:1;stroke:none"
       sodipodi:nodetypes="cssscssscccssscssc" />
    <path
       d="m 617.14286,214.71935 q 8.5,0 14.5,6 l 0.05,0 q 5.95,5.95 5.95,14.45 0,8.2 -5.45,14.05 l -0.3,0.3 -0.25,0.25 q -6,5.95 -14.5,5.95 -8.5,0 -14.45,-5.95 l -0.6,-0.65 q -5.45,-5.8 -5.45,-13.95 0,-8.5 6.05,-14.45 5.95,-6 14.45,-6 m -12.35,8.1 q -5.15,5.1 -5.15,12.35 0,7 4.7,11.95 l 0.45,0.5 q 5.1,5.1 12.35,5.1 7.25,0 12.4,-5.1 l 0.45,-0.45 q 4.65,-5 4.65,-12 0,-7.25 -5.1,-12.35 -5.15,-5.1 -12.4,-5.1 -7.25,0 -12.35,5.1"
       id="path437"
       inkscape:connector-curvature="0"
       style="fill:#ffb7d2;stroke:none;fill-opacity:1" />
    <rect
       style="fill:#f19cb7;fill-opacity:1"
       id="rect9557"
       width="13.839286"
       height="5.3571429"
       x="610.33929"
       y="238.54077" />
  </g>
  <g
     inkscape:groupmode="layer"
     id="layer7"
     inkscape:label="Taso 3">
    <path
       d="m 27.864285,30.796428 c -0.2,-0.5 -0.53333,-0.95 -1,-1.35 -0.86667,-0.63333 -1.88333,-0.95 -3.05,-0.95 -1.2,0 -2.21667,0.31667 -3.05,0.95 -0.46667,0.4 -0.78333,0.83333 -0.95,1.3 l -0.35,0.45 -0.7,0.05 c -0.2,-0.0333 -0.33333,-0.16667 -0.4,-0.4 -0.13333,-0.16667 -0.16667,-0.36667 -0.1,-0.6 0.2,-0.76667 0.7,-1.43333 1.5,-2 1.1,-0.9 2.45,-1.35 4.05,-1.35 1.56667,0 2.9,0.45 4,1.35 0.73333,0.56667 1.25,1.21667 1.55,1.95 l 0,0.65 -0.45,0.4 c -0.2,0.1 -0.41667,0.1 -0.65,0 l -0.4,-0.45"
       id="path435-4"
       inkscape:connector-curvature="0"
       style="fill:#a55b72;fill-opacity:1;stroke:none"
       sodipodi:nodetypes="ccscccccccscccccc" />
  </g>
  <g
     inkscape:groupmode="layer"
     id="layer6"
     inkscape:label="Taso 2" />
</svg>
