<?xml version="1.0" encoding="UTF-8" standalone="no"?>
<!-- Created with Inkscape (http://www.inkscape.org/) -->

<svg
   xmlns:dc="http://purl.org/dc/elements/1.1/"
   xmlns:cc="http://creativecommons.org/ns#"
   xmlns:rdf="http://www.w3.org/1999/02/22-rdf-syntax-ns#"
   xmlns:svg="http://www.w3.org/2000/svg"
   xmlns="http://www.w3.org/2000/svg"
   xmlns:sodipodi="http://sodipodi.sourceforge.net/DTD/sodipodi-0.dtd"
   xmlns:inkscape="http://www.inkscape.org/namespaces/inkscape"
   width="14.675555mm"
   height="12.7mm"
   viewBox="0 0 51.999999 44.999999"
   id="svg8397"
   version="1.1"
   inkscape:version="0.91 r13725"
   sodipodi:docname="health.svg">
  <defs
     id="defs8399" />
  <sodipodi:namedview
     id="base"
     pagecolor="#ffffff"
     bordercolor="#666666"
     borderopacity="1.0"
     inkscape:pageopacity="0.0"
     inkscape:pageshadow="2"
     inkscape:zoom="0.35"
     inkscape:cx="-171.85714"
     inkscape:cy="-346.07142"
     inkscape:document-units="px"
     inkscape:current-layer="layer1"
     showgrid="false"
     fit-margin-top="0"
     fit-margin-left="0"
     fit-margin-right="0"
     fit-margin-bottom="0"
     inkscape:window-width="1440"
     inkscape:window-height="900"
     inkscape:window-x="-8"
     inkscape:window-y="1192"
     inkscape:window-maximized="1" />
  <metadata
     id="metadata8402">
    <rdf:RDF>
      <cc:Work
         rdf:about="">
        <dc:format>image/svg+xml</dc:format>
        <dc:type
           rdf:resource="http://purl.org/dc/dcmitype/StillImage" />
        <dc:title></dc:title>
      </cc:Work>
    </rdf:RDF>
  </metadata>
  <g
     inkscape:label="Taso 1"
     inkscape:groupmode="layer"
     id="layer1"
     transform="translate(-125.42857,-141.29078)">
    <path
       d="m 163.92857,144.49078 -1.5,-0.15 -1,-0.05 q -5.4,0 -9.15,3.8 l -0.85,0.9 -0.8,-0.9 q -3.8,-3.8 -9.2,-3.8 -5.4,0 -9.2,3.75 l -0.05,0.05 q -3.75,3.85 -3.75,9.15 0,3.2 1.4,5.9 l 0,-0.05 q 0.5,1.15 1.95,3.15 l 0.35,0.45 0.75,0.75 0.1,0.1 16.45,15 q 0.85,0.75 2,0.75 1.15,0 2.05,-0.75 l 16.45,-15 0.1,-0.1 0.75,-0.75 0.35,-0.45 1.9,-3.05 0.05,-0.05 q 1.35,-2.7 1.35,-5.9 0,-5.3 -3.75,-9.15 l -0.05,-0.05 q -2.9,-2.85 -6.7,-3.55 m -1.5,-3.15 1.5,0.15 q 5,0.7 8.8,4.4 l 0.1,0.1 q 4.6,4.7 4.6,11.25 0,3.95 -1.7,7.25 l -0.05,0.15 -0.05,0.05 -2,3.2 -0.05,0.05 -0.7,0.85 -0.75,0.75 -0.1,0.1 -0.1,0.1 -16.45,15 q -1.75,1.55 -4.05,1.55 -2.3,0 -4,-1.55 l -0.05,0 -16.45,-15 -0.1,-0.1 -0.1,-0.1 -0.75,-0.75 -0.05,-0.05 -0.6,-0.75 -0.05,-0.05 -1.95,-3.15 -0.2,-0.3 q -1.7,-3.3 -1.7,-7.25 0,-6.55 4.6,-11.25 l 0.1,-0.1 q 4.7,-4.6 11.3,-4.6 5.75,0 10,3.5 4.25,-3.5 10,-3.5 l 1,0.05"
       id="path369"
       inkscape:connector-curvature="0"
       style="fill:#a33434;stroke:none" />
    <path
       d="m 163.92857,144.49078 q 3.8,0.7 6.7,3.55 l 0.05,0.05 q 3.75,3.85 3.75,9.15 0,3.2 -1.35,5.9 l -0.05,0.05 -1.9,3.05 -0.35,0.45 -0.75,0.75 -0.1,0.1 -16.45,15 q -0.9,0.75 -2.05,0.75 -1.15,0 -2,-0.75 l -16.45,-15 -0.1,-0.1 -0.75,-0.75 -0.35,-0.45 q -1.45,-2 -1.95,-3.15 l 0,0.05 q -1.4,-2.7 -1.4,-5.9 0,-5.3 3.75,-9.15 l 0.05,-0.05 q 3.8,-3.75 9.2,-3.75 5.4,0 9.2,3.8 l 0.8,0.9 0.85,-0.9 q 3.75,-3.8 9.15,-3.8 l 1,0.05 1.5,0.15 m -1.5,2.85 -1,-0.05 q -4.15,0 -7.05,2.9 -2.9,2.9 -2.95,6.95 -0.05,-4.05 -2.95,-6.95 -2.9,-2.9 -7.05,-2.9 -4.15,0 -7.1,2.9 -2.9,2.95 -2.9,7.05 0,2.45 1.05,4.5 l 1.75,2.8 0.75,0.75 16.45,15 16.45,-15 0.75,-0.75 1.75,-2.8 q 1.05,-2.05 1.05,-4.5 0,-4.1 -2.9,-7.05 -2,-2 -4.6,-2.6 l -1.5,-0.25"
       id="path371"
       inkscape:connector-curvature="0"
       style="fill:#f34e4e;stroke:none" />
    <path
       d="m 162.42857,147.34078 1.5,0.25 q 2.6,0.6 4.6,2.6 2.9,2.95 2.9,7.05 0,2.45 -1.05,4.5 l -1.75,2.8 -0.75,0.75 -16.45,15 -16.45,-15 -0.75,-0.75 -1.75,-2.8 q -1.05,-2.05 -1.05,-4.5 0,-4.1 2.9,-7.05 2.95,-2.9 7.1,-2.9 4.15,0 7.05,2.9 2.9,2.9 2.95,6.95 0.05,-4.05 2.95,-6.95 2.9,-2.9 7.05,-2.9 l 1,0.05"
       id="path373"
       inkscape:connector-curvature="0"
       style="fill:#d91d1d;stroke:none" />
  </g>
</svg>
