<?xml version="1.0" encoding="UTF-8" standalone="no"?>
<!-- Created with Inkscape (http://www.inkscape.org/) -->

<svg
   xmlns:dc="http://purl.org/dc/elements/1.1/"
   xmlns:cc="http://creativecommons.org/ns#"
   xmlns:rdf="http://www.w3.org/1999/02/22-rdf-syntax-ns#"
   xmlns:svg="http://www.w3.org/2000/svg"
   xmlns="http://www.w3.org/2000/svg"
   xmlns:sodipodi="http://sodipodi.sourceforge.net/DTD/sodipodi-0.dtd"
   xmlns:inkscape="http://www.inkscape.org/namespaces/inkscape"
   width="176.14427mm"
   height="36.797009mm"
   viewBox="0 0 624.13325 130.3831"
   id="svg6401"
   version="1.1"
   inkscape:version="0.91 r13725"
   sodipodi:docname="level3.svg">
  <defs
     id="defs6403" />
  <sodipodi:namedview
     id="base"
     pagecolor="#ffffff"
     bordercolor="#666666"
     borderopacity="1.0"
     inkscape:pageopacity="0.0"
     inkscape:pageshadow="2"
     inkscape:zoom="7.9195959"
     inkscape:cx="364.92612"
     inkscape:cy="91.880227"
     inkscape:document-units="px"
     inkscape:current-layer="layer1"
     showgrid="false"
     inkscape:window-width="1440"
     inkscape:window-height="900"
     inkscape:window-x="-8"
     inkscape:window-y="1192"
     inkscape:window-maximized="1"
     fit-margin-top="0"
     fit-margin-left="0"
     fit-margin-right="0"
     fit-margin-bottom="0" />
  <metadata
     id="metadata6406">
    <rdf:RDF>
      <cc:Work
         rdf:about="">
        <dc:format>image/svg+xml</dc:format>
        <dc:type
           rdf:resource="http://purl.org/dc/dcmitype/StillImage" />
        <dc:title />
      </cc:Work>
    </rdf:RDF>
  </metadata>
  <g
     inkscape:label="ground"
     inkscape:groupmode="layer"
     id="layer1"
     transform="translate(-99.285714,-425.63887)">
    <path
       d="m 99.285714,497.08363 0,-1.5 q 0,-9.65 9.649996,-9.65 l 60.35,0 0,2 -60.35,0 q -9.399996,0 -9.649996,9.15"
       id="path117"
       inkscape:connector-curvature="0"
       style="fill:#93db24;stroke:none" />
    <path
       d="m 169.28571,514.43363 0,10 -11.65,-11.5 -11.7,11.5 -11.6,-11.5 -11.7,11.5 -11.7,-11.5 -2.1,2.1 -0.05,0 -6.25,-3.8 8.4,-8.3 11.7,11.5 11.7,-11.5 11.6,11.5 11.7,-11.5 11.65,11.5 m 0,25 0,15.1 -1.75,-1.75 0.05,-0.05 -9.9,-9.8 -11.7,11.5 -1.95,-1.9 q -5.75,-10.9 -14.3,-20.1 l 4.6,-4.5 11.6,11.5 11.7,-11.5 11.65,11.5"
       id="path119"
       inkscape:connector-curvature="0"
       style="fill:#c58f5c;stroke:none" />
    <path
       d="m 169.28571,539.43363 -11.65,-11.5 -11.7,11.5 -11.6,-11.5 -4.6,4.5 q -8.95,-9.65 -20.9,-17.4 l 2.1,-2.1 11.7,11.5 11.7,-11.5 11.6,11.5 11.7,-11.5 11.65,11.5 0,15 m 0,15.1 0,1.4 -23.5,0 -1.6,-3.15 -0.15,-0.25 1.95,1.9 11.7,-11.5 9.9,9.8 -0.05,0.05 1.75,1.75"
       id="path121"
       inkscape:connector-curvature="0"
       style="fill:#c99869;stroke:none" />
    <path
       d="m 169.28571,509.43363 0,5 -11.65,-11.5 -11.7,11.5 -11.6,-11.5 -11.7,11.5 -11.7,-11.5 -8.4,8.3 -3.249996,-1.8 11.649996,-11.5 11.7,11.5 11.7,-11.5 11.6,11.5 11.7,-11.5 11.65,11.5"
       id="path123"
       inkscape:connector-curvature="0"
       style="fill:#bb8044;stroke:none" />
    <path
       d="m 169.28571,509.43363 -11.65,-11.5 -11.7,11.5 -11.6,-11.5 -11.7,11.5 -11.7,-11.5 -11.649996,11.5 0,-12.35 q 0.25,-9.15 9.649996,-9.15 l 60.35,0 0,21.5"
       id="path125"
       inkscape:connector-curvature="0"
       style="fill:#80be1f;stroke:none" />
    <path
       d="m 238.54573,514.52196 -11.65,-11.5 -11.7,11.5 -11.6,-11.5 -11.7,11.5 -11.7,-11.5 -11.65,11.5 0,-5 11.65,-11.5 11.7,11.5 11.7,-11.5 11.6,11.5 11.7,-11.5 11.65,11.5 0,5"
       id="path93"
       inkscape:connector-curvature="0"
       style="fill:#bb8044;stroke:none" />
    <path
       d="m 238.54573,509.52196 -11.65,-11.5 -11.7,11.5 -11.6,-11.5 -11.7,11.5 -11.7,-11.5 -11.65,11.5 0,-21.5 70,0 0,21.5"
       id="path95"
       inkscape:connector-curvature="0"
       style="fill:#80be1f;stroke:none" />
    <path
       d="m 168.54573,514.52196 11.65,-11.5 11.7,11.5 11.7,-11.5 11.6,11.5 11.7,-11.5 11.65,11.5 0,10 -11.65,-11.5 -11.7,11.5 -11.6,-11.5 -11.7,11.5 -11.7,-11.5 -11.65,11.5 0,-10 m 0,40.2 0,-15.2 0.05,0 10.15,-10.05 1.45,-1.45 11.7,11.5 11.7,-11.5 11.6,11.5 11.7,-11.5 11.65,11.5 0,15.1 -1.75,-1.75 0.05,-0.05 -9.9,-9.8 -11.7,11.5 -11.6,-11.5 -11.7,11.5 -11.7,-11.5 -9.95,9.85 0.05,0.05 -1.8,1.8"
       id="path97"
       inkscape:connector-curvature="0"
       style="fill:#c58f5c;stroke:none" />
    <path
       d="m 168.54573,488.02196 0,-2 70,0 0,2 -70,0"
       id="path99"
       inkscape:connector-curvature="0"
       style="fill:#93db24;stroke:none" />
    <path
       d="m 168.54573,524.52196 11.65,-11.5 11.7,11.5 11.7,-11.5 11.6,11.5 11.7,-11.5 11.65,11.5 0,15 -11.65,-11.5 -11.7,11.5 -11.6,-11.5 -11.7,11.5 -11.7,-11.5 -1.45,1.45 -10.15,10.05 -0.05,0 0,-15 m 0,30.2 1.8,-1.8 -0.05,-0.05 9.95,-9.85 11.7,11.5 11.7,-11.5 11.6,11.5 11.7,-11.5 9.9,9.8 -0.05,0.05 1.75,1.75 0,1.4 -70,0 0,-1.3"
       id="path101"
       inkscape:connector-curvature="0"
       style="fill:#c99869;stroke:none" />
    <path
       d="m 307.76149,514.50166 -11.65,-11.5 -11.7,11.5 -11.6,-11.5 -11.7,11.5 -11.7,-11.5 -11.65,11.5 0,-5 11.65,-11.5 11.7,11.5 11.7,-11.5 11.6,11.5 11.7,-11.5 11.65,11.5 0,5"
       id="path93-7"
       inkscape:connector-curvature="0"
       style="fill:#bb8044;stroke:none" />
    <path
       d="m 307.76149,509.50166 -11.65,-11.5 -11.7,11.5 -11.6,-11.5 -11.7,11.5 -11.7,-11.5 -11.65,11.5 0,-21.5 70,0 0,21.5"
       id="path95-4"
       inkscape:connector-curvature="0"
       style="fill:#80be1f;stroke:none" />
    <path
       d="m 237.76149,514.50166 11.65,-11.5 11.7,11.5 11.7,-11.5 11.6,11.5 11.7,-11.5 11.65,11.5 0,10 -11.65,-11.5 -11.7,11.5 -11.6,-11.5 -11.7,11.5 -11.7,-11.5 -11.65,11.5 0,-10 m 0,40.2 0,-15.2 0.05,0 10.15,-10.05 1.45,-1.45 11.7,11.5 11.7,-11.5 11.6,11.5 11.7,-11.5 11.65,11.5 0,15.1 -1.75,-1.75 0.05,-0.05 -9.9,-9.8 -11.7,11.5 -11.6,-11.5 -11.7,11.5 -11.7,-11.5 -9.95,9.85 0.05,0.05 -1.8,1.8"
       id="path97-5"
       inkscape:connector-curvature="0"
       style="fill:#c58f5c;stroke:none" />
    <path
       d="m 237.40435,488.35881 0,-2 70,0 0,2 -70,0"
       id="path99-1"
       inkscape:connector-curvature="0"
       style="fill:#93db24;stroke:none" />
    <path
       d="m 237.76149,524.50166 11.65,-11.5 11.7,11.5 11.7,-11.5 11.6,11.5 11.7,-11.5 11.65,11.5 0,15 -11.65,-11.5 -11.7,11.5 -11.6,-11.5 -11.7,11.5 -11.7,-11.5 -1.45,1.45 -10.15,10.05 -0.05,0 0,-15 m 0,30.2 1.8,-1.8 -0.05,-0.05 9.95,-9.85 11.7,11.5 11.7,-11.5 11.6,11.5 11.7,-11.5 9.9,9.8 -0.05,0.05 1.75,1.75 0,1.4 -70,0 0,-1.3"
       id="path101-5"
       inkscape:connector-curvature="0"
       style="fill:#c99869;stroke:none" />
    <path
       d="m 376.93664,514.52196 -11.65,-11.5 -11.7,11.5 -11.6,-11.5 -11.7,11.5 -11.7,-11.5 -11.65,11.5 0,-5 11.65,-11.5 11.7,11.5 11.7,-11.5 11.6,11.5 11.7,-11.5 11.65,11.5 0,5"
       id="path93-1"
       inkscape:connector-curvature="0"
       style="fill:#bb8044;stroke:none" />
    <path
       d="m 376.93664,509.52196 -11.65,-11.5 -11.7,11.5 -11.6,-11.5 -11.7,11.5 -11.7,-11.5 -11.65,11.5 0,-21.5 70,0 0,21.5"
       id="path95-9"
       inkscape:connector-curvature="0"
       style="fill:#80be1f;stroke:none" />
    <path
       d="m 306.93664,514.52196 11.65,-11.5 11.7,11.5 11.7,-11.5 11.6,11.5 11.7,-11.5 11.65,11.5 0,10 -11.65,-11.5 -11.7,11.5 -11.6,-11.5 -11.7,11.5 -11.7,-11.5 -11.65,11.5 0,-10 m 0,40.2 0,-15.2 0.05,0 10.15,-10.05 1.45,-1.45 11.7,11.5 11.7,-11.5 11.6,11.5 11.7,-11.5 11.65,11.5 0,15.1 -1.75,-1.75 0.05,-0.05 -9.9,-9.8 -11.7,11.5 -11.6,-11.5 -11.7,11.5 -11.7,-11.5 -9.95,9.85 0.05,0.05 -1.8,1.8"
       id="path97-3"
       inkscape:connector-curvature="0"
       style="fill:#c58f5c;stroke:none" />
    <path
       d="m 239.65667,467.80798 0,-3.47122 100.02899,0 0,3.47122 -100.02899,0"
       id="path99-4"
       inkscape:connector-curvature="0"
       style="fill:#93db24;stroke:none" />
    <path
       d="m 306.93664,524.52196 11.65,-11.5 11.7,11.5 11.7,-11.5 11.6,11.5 11.7,-11.5 11.65,11.5 0,15 -11.65,-11.5 -11.7,11.5 -11.6,-11.5 -11.7,11.5 -11.7,-11.5 -1.45,1.45 -10.15,10.05 -0.05,0 0,-15 m 0,30.2 1.8,-1.8 -0.05,-0.05 9.95,-9.85 11.7,11.5 11.7,-11.5 11.6,11.5 11.7,-11.5 9.9,9.8 -0.05,0.05 1.75,1.75 0,1.4 -70,0 0,-1.3"
       id="path101-3"
       inkscape:connector-curvature="0"
       style="fill:#c99869;stroke:none" />
    <path
       d="m 446.13208,514.52197 -11.65,-11.5 -11.7,11.5 -11.6,-11.5 -11.7,11.5 -11.7,-11.5 -11.65,11.5 0,-5 11.65,-11.5 11.7,11.5 11.7,-11.5 11.6,11.5 11.7,-11.5 11.65,11.5 0,5"
       id="path93-5"
       inkscape:connector-curvature="0"
       style="fill:#bb8044;stroke:none" />
    <path
       d="m 446.13208,509.52197 -11.65,-11.5 -11.7,11.5 -11.6,-11.5 -11.7,11.5 -11.7,-11.5 -11.65,11.5 0,-21.5 70,0 0,21.5"
       id="path95-5"
       inkscape:connector-curvature="0"
       style="fill:#80be1f;stroke:none;fill-opacity:1" />
    <path
       d="m 376.13208,514.52197 11.65,-11.5 11.7,11.5 11.7,-11.5 11.6,11.5 11.7,-11.5 11.65,11.5 0,10 -11.65,-11.5 -11.7,11.5 -11.6,-11.5 -11.7,11.5 -11.7,-11.5 -11.65,11.5 0,-10 m 0,40.2 0,-15.2 0.05,0 10.15,-10.05 1.45,-1.45 11.7,11.5 11.7,-11.5 11.6,11.5 11.7,-11.5 11.65,11.5 0,15.1 -1.75,-1.75 0.05,-0.05 -9.9,-9.8 -11.7,11.5 -11.6,-11.5 -11.7,11.5 -11.7,-11.5 -9.95,9.85 0.05,0.05 -1.8,1.8"
       id="path97-0"
       inkscape:connector-curvature="0"
       style="fill:#c58f5c;stroke:none" />
    <path
       d="m 376.13208,488.02197 0,-2 70,0 0,2 -70,0"
       id="path99-11"
       inkscape:connector-curvature="0"
       style="fill:#93db24;stroke:none" />
    <path
       d="m 376.13208,524.52197 11.65,-11.5 11.7,11.5 11.7,-11.5 11.6,11.5 11.7,-11.5 11.65,11.5 0,15 -11.65,-11.5 -11.7,11.5 -11.6,-11.5 -11.7,11.5 -11.7,-11.5 -1.45,1.45 -10.15,10.05 -0.05,0 0,-15 m 0,30.2 1.8,-1.8 -0.05,-0.05 9.95,-9.85 11.7,11.5 11.7,-11.5 11.6,11.5 11.7,-11.5 9.9,9.8 -0.05,0.05 1.75,1.75 0,1.4 -70,0 0,-1.3"
       id="path101-4"
       inkscape:connector-curvature="0"
       style="fill:#c99869;stroke:none" />
    <path
       d="m 514.82246,514.52197 -11.65,-11.5 -11.7,11.5 -11.6,-11.5 -11.7,11.5 -11.7,-11.5 -11.65,11.5 0,-5 11.65,-11.5 11.7,11.5 11.7,-11.5 11.6,11.5 11.7,-11.5 11.65,11.5 0,5"
       id="path93-19"
       inkscape:connector-curvature="0"
       style="fill:#bb8044;stroke:none" />
    <path
       d="m 514.82246,509.52197 -11.65,-11.5 -11.7,11.5 -11.6,-11.5 -11.7,11.5 -11.7,-11.5 -11.65,11.5 0,-21.5 70,0 0,21.5"
       id="path95-2"
       inkscape:connector-curvature="0"
       style="fill:#80be1f;stroke:none" />
    <path
       d="m 444.82246,514.52197 11.65,-11.5 11.7,11.5 11.7,-11.5 11.6,11.5 11.7,-11.5 11.65,11.5 0,10 -11.65,-11.5 -11.7,11.5 -11.6,-11.5 -11.7,11.5 -11.7,-11.5 -11.65,11.5 0,-10 m 0,40.2 0,-15.2 0.05,0 10.15,-10.05 1.45,-1.45 11.7,11.5 11.7,-11.5 11.6,11.5 11.7,-11.5 11.65,11.5 0,15.1 -1.75,-1.75 0.05,-0.05 -9.9,-9.8 -11.7,11.5 -11.6,-11.5 -11.7,11.5 -11.7,-11.5 -9.95,9.85 0.05,0.05 -1.8,1.8"
       id="path97-4"
       inkscape:connector-curvature="0"
       style="fill:#c58f5c;stroke:none" />
    <path
       d="m 444.82246,488.02197 0,-2 70,0 0,2 -70,0"
       id="path99-3"
       inkscape:connector-curvature="0"
       style="fill:#93db24;stroke:none" />
    <path
       d="m 444.82246,524.52197 11.65,-11.5 11.7,11.5 11.7,-11.5 11.6,11.5 11.7,-11.5 11.65,11.5 0,15 -11.65,-11.5 -11.7,11.5 -11.6,-11.5 -11.7,11.5 -11.7,-11.5 -1.45,1.45 -10.15,10.05 -0.05,0 0,-15 m 0,30.2 1.8,-1.8 -0.05,-0.05 9.95,-9.85 11.7,11.5 11.7,-11.5 11.6,11.5 11.7,-11.5 9.9,9.8 -0.05,0.05 1.75,1.75 0,1.4 -70,0 0,-1.3"
       id="path101-9"
       inkscape:connector-curvature="0"
       style="fill:#c99869;stroke:none" />
    <path
       d="m 584.52298,514.52197 -11.65,-11.5 -11.7,11.5 -11.6,-11.5 -11.7,11.5 -11.7,-11.5 -11.65,11.5 0,-5 11.65,-11.5 11.7,11.5 11.7,-11.5 11.6,11.5 11.7,-11.5 11.65,11.5 0,5"
       id="path93-6"
       inkscape:connector-curvature="0"
       style="fill:#bb8044;stroke:none" />
    <path
       d="m 584.52298,509.52197 -11.65,-11.5 -11.7,11.5 -11.6,-11.5 -11.7,11.5 -11.7,-11.5 -11.65,11.5 0,-21.5 70,0 0,21.5"
       id="path95-99"
       inkscape:connector-curvature="0"
       style="fill:#80be1f;stroke:none" />
    <path
       d="m 514.52298,514.52197 11.65,-11.5 11.7,11.5 11.7,-11.5 11.6,11.5 11.7,-11.5 11.65,11.5 0,10 -11.65,-11.5 -11.7,11.5 -11.6,-11.5 -11.7,11.5 -11.7,-11.5 -11.65,11.5 0,-10 m 0,40.2 0,-15.2 0.05,0 10.15,-10.05 1.45,-1.45 11.7,11.5 11.7,-11.5 11.6,11.5 11.7,-11.5 11.65,11.5 0,15.1 -1.75,-1.75 0.05,-0.05 -9.9,-9.8 -11.7,11.5 -11.6,-11.5 -11.7,11.5 -11.7,-11.5 -9.95,9.85 0.05,0.05 -1.8,1.8"
       id="path97-1"
       inkscape:connector-curvature="0"
       style="fill:#c58f5c;stroke:none" />
    <path
       d="m 514.52298,488.02197 0,-2 70,0 0,2 -70,0"
       id="path99-7"
       inkscape:connector-curvature="0"
       style="fill:#93db24;stroke:none" />
    <path
       d="m 514.52298,524.52197 11.65,-11.5 11.7,11.5 11.7,-11.5 11.6,11.5 11.7,-11.5 11.65,11.5 0,15 -11.65,-11.5 -11.7,11.5 -11.6,-11.5 -11.7,11.5 -11.7,-11.5 -1.45,1.45 -10.15,10.05 -0.05,0 0,-15 m 0,30.2 1.8,-1.8 -0.05,-0.05 9.95,-9.85 11.7,11.5 11.7,-11.5 11.6,11.5 11.7,-11.5 9.9,9.8 -0.05,0.05 1.75,1.75 0,1.4 -70,0 0,-1.3"
       id="path101-1"
       inkscape:connector-curvature="0"
       style="fill:#c99869;stroke:none" />
    <path
       d="m 654.22351,514.52196 -11.65,-11.5 -11.7,11.5 -11.6,-11.5 -11.7,11.5 -11.7,-11.5 -11.65,11.5 0,-5 11.65,-11.5 11.7,11.5 11.7,-11.5 11.6,11.5 11.7,-11.5 11.65,11.5 0,5"
       id="path93-0"
       inkscape:connector-curvature="0"
       style="fill:#bb8044;stroke:none" />
    <path
       d="m 654.22351,509.52196 -11.65,-11.5 -11.7,11.5 -11.6,-11.5 -11.7,11.5 -11.7,-11.5 -11.65,11.5 0,-21.5 70,0 0,21.5"
       id="path95-56"
       inkscape:connector-curvature="0"
       style="fill:#80be1f;stroke:none" />
    <path
       d="m 584.22351,514.52196 11.65,-11.5 11.7,11.5 11.7,-11.5 11.6,11.5 11.7,-11.5 11.65,11.5 0,10 -11.65,-11.5 -11.7,11.5 -11.6,-11.5 -11.7,11.5 -11.7,-11.5 -11.65,11.5 0,-10 m 0,40.2 0,-15.2 0.05,0 10.15,-10.05 1.45,-1.45 11.7,11.5 11.7,-11.5 11.6,11.5 11.7,-11.5 11.65,11.5 0,15.1 -1.75,-1.75 0.05,-0.05 -9.9,-9.8 -11.7,11.5 -11.6,-11.5 -11.7,11.5 -11.7,-11.5 -9.95,9.85 0.05,0.05 -1.8,1.8"
       id="path97-15"
       inkscape:connector-curvature="0"
       style="fill:#c58f5c;stroke:none" />
    <path
       d="m 584.22351,488.02196 0,-2 70,0 0,2 -70,0"
       id="path99-0"
       inkscape:connector-curvature="0"
       style="fill:#93db24;stroke:none" />
    <path
       d="m 584.22351,524.52196 11.65,-11.5 11.7,11.5 11.7,-11.5 11.6,11.5 11.7,-11.5 11.65,11.5 0,15 -11.65,-11.5 -11.7,11.5 -11.6,-11.5 -11.7,11.5 -11.7,-11.5 -1.45,1.45 -10.15,10.05 -0.05,0 0,-15 m 0,30.2 1.8,-1.8 -0.05,-0.05 9.95,-9.85 11.7,11.5 11.7,-11.5 11.6,11.5 11.7,-11.5 9.9,9.8 -0.05,0.05 1.75,1.75 0,1.4 -70,0 0,-1.3"
       id="path101-48"
       inkscape:connector-curvature="0"
       style="fill:#c99869;stroke:none" />
    <path
       d="m 653.41896,488.02197 0,-2 60.35,0 q 9.65,0 9.65,9.65 l 0,1.5 q -0.25,-9.15 -9.65,-9.15 l -60.35,0"
       id="path107"
       inkscape:connector-curvature="0"
       style="fill:#93db24;stroke:none" />
    <path
       d="m 723.41896,509.52197 -3.25,1.8 -8.4,-8.3 -11.7,11.5 -11.6,-11.5 -11.7,11.5 -11.7,-11.5 -11.65,11.5 0,-5 11.65,-11.5 11.7,11.5 11.7,-11.5 11.6,11.5 11.7,-11.5 11.65,11.5"
       id="path109"
       inkscape:connector-curvature="0"
       style="fill:#bb8044;stroke:none" />
    <path
       d="m 720.16896,511.32197 -6.25,3.8 -2.15,-2.1 -11.7,11.5 -11.6,-11.5 -11.7,11.5 -11.7,-11.5 -11.65,11.5 0,-10 11.65,-11.5 11.7,11.5 11.7,-11.5 11.6,11.5 11.7,-11.5 8.4,8.3 m -27.2,21.2 q -8.65,9.3 -14.45,20.35 l -1.7,1.65 -11.7,-11.5 -9.95,9.85 0.05,0.05 -1.8,1.8 0,-15.2 0.05,0 10.15,-10.05 1.45,-1.45 11.7,11.5 11.7,-11.5 4.5,4.5"
       id="path111"
       inkscape:connector-curvature="0"
       style="fill:#c58f5c;stroke:none" />
    <path
       d="m 723.41896,497.17197 0,12.35 -11.65,-11.5 -11.7,11.5 -11.6,-11.5 -11.7,11.5 -11.7,-11.5 -11.65,11.5 0,-21.5 60.35,0 q 9.4,0 9.65,9.15"
       id="path113"
       inkscape:connector-curvature="0"
       style="fill:#80be1f;stroke:none" />
    <path
       d="m 713.91896,515.12197 q -12,7.75 -20.95,17.4 l -4.5,-4.5 -11.7,11.5 -11.7,-11.5 -1.45,1.45 -10.15,10.05 -0.05,0 0,-15 11.65,-11.5 11.7,11.5 11.7,-11.5 11.6,11.5 11.7,-11.5 2.15,2.1 m -35.4,37.75 -1.6,3.15 -23.5,0 0,-1.3 1.8,-1.8 -0.05,-0.05 9.95,-9.85 11.7,11.5 1.7,-1.65"
       id="path115"
       inkscape:connector-curvature="0"
       style="fill:#c99869;stroke:none" />
    <rect
       style="fill:#80be1f;fill-opacity:1"
       id="rect11506"
       width="6.4397225"
       height="6.8185296"
       x="229.5954"
       y="488.0892" />
  </g>
  <g
     inkscape:groupmode="layer"
     id="layer5"
     inkscape:label="stuff-behind-fence"
     transform="translate(-99.285714,-425.63887)">
    <path
       d="m 421.34632,477.69086 q -2.55876,-0.64527 -2.95519,-1.4841 l -0.0721,-0.32264 0,-0.0323 q 0.036,-1.38732 0.64869,-2.6133 l 0.32435,-0.0323 0.36039,0.0323 q 1.00908,0.0968 1.69383,0.70978 0.86493,0.77432 0.86493,1.87125 0,1.09695 -0.86493,1.83901 l 0,0.0323 m 23.53342,-0.45169 -2.55875,0.67753 -1.62175,0.29036 -0.36041,-0.2581 q -0.82889,-0.74204 -0.82889,-1.77448 0,-1.03241 0.82889,-1.77446 0.82891,-0.74205 1.98216,-0.74205 1.15323,0 1.98214,0.74205 0.82888,0.74205 0.82888,1.77446 0,0.58075 -0.25227,1.06469 m -9.26201,-7.87218 q 0.72078,0 1.22532,0.45168 0.5406,0.48394 0.5406,1.12921 0,0.64525 -0.5406,1.09694 -0.50454,0.48395 -1.22532,0.48395 -0.72079,0 -1.26134,-0.48395 -0.50457,-0.45169 -0.50457,-1.09694 0,-0.64527 0.50457,-1.12921 0.54055,-0.45168 1.26134,-0.45168 m -10.88376,4.54909 q 0,-1.03244 0.8289,-1.77447 0.8289,-0.74207 1.98216,-0.74207 1.15323,0 1.98214,0.74207 0.82888,0.74203 0.82888,1.77447 0,1.03241 -0.82888,1.77446 -0.82891,0.74206 -1.98214,0.74206 -1.15326,0 -1.98216,-0.74206 -0.8289,-0.74205 -0.8289,-1.77446"
       id="path447"
       inkscape:connector-curvature="0"
       style="fill:#fca66c;stroke:none" />
    <path
       d="m 424.73399,473.91608 q 0,1.03241 0.82889,1.77446 0.82889,0.74206 1.98214,0.74206 1.15324,0 1.98215,-0.74206 0.82888,-0.74205 0.82888,-1.77446 0,-1.03244 -0.82888,-1.77447 -0.82891,-0.74207 -1.98215,-0.74207 -1.15325,0 -1.98214,0.74207 -0.82889,0.74203 -0.82889,1.77447 m 21.62335,2.29068 q -0.25227,0.54847 -1.4776,1.03241 0.25227,-0.48394 0.25227,-1.06469 0,-1.03241 -0.82888,-1.77446 -0.8289,-0.74205 -1.98215,-0.74205 -1.15323,0 -1.98215,0.74205 -0.82889,0.74205 -0.82889,1.77446 0,1.03244 0.82889,1.77448 l 0.36042,0.2581 -3.92826,0.41942 -4.39675,0.12906 -4.39675,-0.12906 -5.55,-0.70978 -1.08117,-0.22584 0,-0.0323 q 0.86494,-0.74206 0.86494,-1.83901 0,-1.09693 -0.86494,-1.87125 -0.68474,-0.61299 -1.69382,-0.70978 1.00908,-1.35505 2.77499,-2.51654 4.14449,-2.64556 9.94675,-2.64556 5.83831,0 9.94674,2.64556 3.56786,2.32295 4.03636,5.48474 m -10.73961,-6.83979 q -0.72077,0 -1.26134,0.4517 -0.50455,0.48394 -0.50455,1.12919 0,0.64527 0.50455,1.09695 0.54057,0.48395 1.26134,0.48395 0.72079,0 1.22533,-0.48395 0.54058,-0.45168 0.54058,-1.09695 0,-0.64525 -0.54058,-1.12919 -0.50454,-0.4517 -1.22533,-0.4517"
       id="path449"
       inkscape:connector-curvature="0"
       style="fill:#e86a17;stroke:none" />
    <path
       d="m 418.96775,473.23854 q 0.97306,-2.03256 3.45974,-3.64571 4.14449,-2.64556 9.94675,-2.64556 5.83831,0 9.94674,2.64556 4.00032,2.61331 4.10844,6.25904 l 0,0.0322 -0.0721,0.32263 q -0.4685,-3.16178 -4.03634,-5.48471 -4.10845,-2.64557 -9.94676,-2.64557 -5.80226,0 -9.94675,2.64557 -1.76591,1.16146 -2.77499,2.51651 l -0.36038,-0.0323 -0.32437,0.0323"
       id="path451"
       inkscape:connector-curvature="0"
       style="fill:#ef975c;stroke:none" />
    <path
       d="m 436.77099,478.62648 0,1.64543 -4.39675,0.12906 -4.39675,-0.12906 0,-1.64543 4.39675,0.12906 4.39675,-0.12906"
       id="path453"
       inkscape:connector-curvature="0"
       style="fill:#e1d7bf;stroke:none" />
    <path
       d="m 436.77099,480.27191 0,6.03319 -8.7935,0 0,-6.03319 4.39675,0.12906 4.39675,-0.12906"
       id="path455"
       inkscape:connector-curvature="0"
       style="fill:#efebdc;stroke:none" />
    <path
       d="m 413.9798,482.18759 q -1.58282,-0.40098 -1.82806,-0.92227 l -0.0446,-0.20048 0,-0.02 q 0.0224,-0.86212 0.40128,-1.62401 l 0.20064,-0.02 0.22295,0.02 q 0.62421,0.0602 1.04778,0.44109 0.53505,0.48119 0.53505,1.16287 0,0.68167 -0.53505,1.14281 l 0,0.02 m 14.55761,-0.28069 -1.58282,0.42104 -1.00322,0.18044 -0.22293,-0.1604 q -0.51275,-0.46114 -0.51275,-1.10272 0,-0.64156 0.51275,-1.10272 0.51274,-0.46111 1.22615,-0.46111 0.71337,0 1.22613,0.46111 0.51275,0.46116 0.51275,1.10272 0,0.36091 -0.15606,0.66164 m -5.7294,-4.89204 q 0.44585,0 0.75798,0.28068 0.33439,0.30075 0.33439,0.70174 0,0.40098 -0.33439,0.68168 -0.31213,0.30073 -0.75798,0.30073 -0.44588,0 -0.78028,-0.30073 -0.31212,-0.2807 -0.31212,-0.68168 0,-0.40099 0.31212,-0.70174 0.3344,-0.28068 0.78028,-0.28068 m -6.73263,2.82695 q 0,-0.64158 0.51275,-1.1027 0.51275,-0.46114 1.22614,-0.46114 0.71338,0 1.22615,0.46114 0.51274,0.46112 0.51274,1.1027 0,0.64159 -0.51274,1.10272 -0.51277,0.46113 -1.22615,0.46113 -0.71339,0 -1.22614,-0.46113 -0.51275,-0.46113 -0.51275,-1.10272"
       id="path447-8"
       inkscape:connector-curvature="0"
       style="fill:#fca66c;stroke:none" />
    <path
       d="m 416.0754,479.84181 q 0,0.64159 0.51274,1.10272 0.51275,0.46113 1.22614,0.46113 0.71338,0 1.22615,-0.46113 0.51274,-0.46113 0.51274,-1.10272 0,-0.64158 -0.51274,-1.1027 -0.51277,-0.46114 -1.22615,-0.46114 -0.71339,0 -1.22614,0.46114 -0.51274,0.46112 -0.51274,1.1027 m 13.37606,1.42351 q -0.15606,0.34085 -0.91404,0.64158 0.15606,-0.30073 0.15606,-0.66164 0,-0.64156 -0.51275,-1.10272 -0.51275,-0.46111 -1.22613,-0.46111 -0.71341,0 -1.22615,0.46111 -0.51274,0.46116 -0.51274,1.10272 0,0.64158 0.51274,1.10272 l 0.22293,0.1604 -2.42998,0.26064 -2.71979,0.0803 -2.7198,-0.0803 -3.43321,-0.44108 -0.6688,-0.14039 0,-0.02 q 0.53505,-0.46113 0.53505,-1.1428 0,-0.68168 -0.53505,-1.16287 -0.42356,-0.38094 -1.04777,-0.4411 0.62421,-0.84207 1.71657,-1.56383 2.56376,-1.64406 6.15301,-1.64406 3.61153,0 6.15299,1.64406 2.20704,1.44354 2.49686,3.40837 m -6.64344,-4.25045 q -0.44588,0 -0.78027,0.28069 -0.31213,0.30075 -0.31213,0.70173 0,0.40099 0.31213,0.68168 0.33439,0.30074 0.78027,0.30074 0.44586,0 0.75798,-0.30074 0.33438,-0.28069 0.33438,-0.68168 0,-0.40098 -0.33438,-0.70173 -0.31212,-0.28069 -0.75798,-0.28069"
       id="path449-4"
       inkscape:connector-curvature="0"
       style="fill:#e86a17;stroke:none" />
    <path
       d="m 412.50844,479.42079 q 0.60192,-1.26312 2.14016,-2.26558 2.56376,-1.64407 6.15301,-1.64407 3.61153,0 6.15299,1.64407 2.47455,1.62399 2.54144,3.88957 l 0,0.02 -0.0446,0.20049 q -0.28982,-1.96484 -2.49686,-3.40839 -2.54146,-1.64405 -6.153,-1.64405 -3.58924,0 -6.15299,1.64405 -1.09237,0.72178 -1.71658,1.56385 l -0.22295,-0.02 -0.20064,0.02"
       id="path451-9"
       inkscape:connector-curvature="0"
       style="fill:#ef975c;stroke:none" />
    <path
       d="m 423.5214,482.76902 0,1.02251 -2.71979,0.0803 -2.7198,-0.0803 0,-1.02251 2.7198,0.0803 2.71979,-0.0803"
       id="path453-9"
       inkscape:connector-curvature="0"
       style="fill:#e1d7bf;stroke:none" />
    <path
       d="m 423.5214,483.79153 0,3.74924 -5.43959,0 0,-3.74924 2.7198,0.0803 2.71979,-0.0803"
       id="path455-5"
       inkscape:connector-curvature="0"
       style="fill:#efebdc;stroke:none" />
    <rect
       style="fill:#000000;fill-opacity:0"
       id="rect11498"
       width="194.64285"
       height="62.5"
       x="211.07143"
       y="423.52197" />
  </g>
  <g
     inkscape:groupmode="layer"
     id="layer3"
     inkscape:label="fence"
     transform="translate(-99.285714,-425.63887)"
     style="display:none">
    <path
       d="m 217.62823,434.27226 q -0.05,-2.5 -1.8,-4.25 -1.75,-1.8 -4.3,-1.8 -2.55,0 -4.35,1.8 -1.7,1.75 -1.75,4.2 l 0,-1.85 q 0,-2.55 1.75,-4.35 1.8,-1.8 4.35,-1.8 2.55,0 4.3,1.8 1.8,1.8 1.8,4.35 l 0,1.9 m -12.2,3.95 0,2 -2.5,0 -40.6,0 -2.5,0 0,-2 45.6,0 m 0,17 0,2 -2.5,0 -40.6,0 -2.5,0 0,-2 45.6,0 m -57.8,-21 0,-1.85 q 0,-2.55 1.75,-4.35 1.8,-1.8 4.35,-1.8 2.55,0 4.3,1.8 1.8,1.8 1.8,4.35 l 0,1.9 q -0.05,-2.5 -1.8,-4.25 -1.75,-1.8 -4.3,-1.8 -2.55,0 -4.35,1.8 -1.7,1.75 -1.75,4.2"
       id="path319"
       inkscape:connector-curvature="0"
       style="fill:#d3ad89;stroke:none" />
    <path
       d="m 147.62823,434.22226 q 0.05,-2.45 1.75,-4.2 1.8,-1.8 4.35,-1.8 2.55,0 4.3,1.8 1.75,1.75 1.8,4.25 l 0,3.95 0,2 0,12.1 0,2.9 0,2 0,12.1 0,17.9 -12.2,0 0,-53 m 57.8,0 q 0.05,-2.45 1.75,-4.2 1.8,-1.8 4.35,-1.8 2.55,0 4.3,1.8 1.75,1.75 1.8,4.25 l 0,52.95 -12.2,0 0,-17.9 0,-12.1 0,-2 0,-2.9 0,-12.1 0,-2 0,-4"
       id="path321"
       inkscape:connector-curvature="0"
       style="fill:#c99869;stroke:none" />
    <path
       d="m 205.42823,440.22226 0,12.1 -2.5,0 0,-12.1 2.5,0 m 0,17 0,12.1 -2.5,0 0,-12.1 2.5,0 m -43.1,12.1 -2.5,0 0,-12.1 2.5,0 0,12.1 m -2.5,-29.1 2.5,0 0,12.1 -2.5,0 0,-12.1"
       id="path323"
       inkscape:connector-curvature="0"
       style="fill:#b98046;stroke:none" />
    <path
       d="m 202.92823,440.22226 0,12.1 -40.6,0 0,-12.1 40.6,0 m 0,17 0,12.1 -40.6,0 0,-12.1 40.6,0"
       id="path325"
       inkscape:connector-curvature="0"
       style="fill:#c18c57;stroke:none" />
    <path
       d="m 275.712,434.01973 q -0.05,-2.5 -1.8,-4.25 -1.75,-1.8 -4.3,-1.8 -2.55,0 -4.35,1.8 -1.7,1.75 -1.75,4.2 l 0,-1.85 q 0,-2.55 1.75,-4.35 1.8,-1.8 4.35,-1.8 2.55,0 4.3,1.8 1.8,1.8 1.8,4.35 l 0,1.9 m -12.2,3.95 0,2 -2.5,0 -40.6,0 -2.5,0 0,-2 45.6,0 m 0,17 0,2 -2.5,0 -40.6,0 -2.5,0 0,-2 45.6,0 m -57.8,-21 0,-1.85 q 0,-2.55 1.75,-4.35 1.8,-1.8 4.35,-1.8 2.55,0 4.3,1.8 1.8,1.8 1.8,4.35 l 0,1.9 q -0.05,-2.5 -1.8,-4.25 -1.75,-1.8 -4.3,-1.8 -2.55,0 -4.35,1.8 -1.7,1.75 -1.75,4.2"
       id="path319-3"
       inkscape:connector-curvature="0"
       style="fill:#d3ad89;stroke:none" />
    <path
       d="m 205.712,433.96973 q 0.05,-2.45 1.75,-4.2 1.8,-1.8 4.35,-1.8 2.55,0 4.3,1.8 1.75,1.75 1.8,4.25 l 0,3.95 0,2 0,12.1 0,2.9 0,2 0,12.1 0,17.9 -12.2,0 0,-53 m 57.8,0 q 0.05,-2.45 1.75,-4.2 1.8,-1.8 4.35,-1.8 2.55,0 4.3,1.8 1.75,1.75 1.8,4.25 l 0,52.95 -12.2,0 0,-17.9 0,-12.1 0,-2 0,-2.9 0,-12.1 0,-2 0,-4"
       id="path321-1"
       inkscape:connector-curvature="0"
       style="fill:#c99869;stroke:none" />
    <path
       d="m 263.512,439.96973 0,12.1 -2.5,0 0,-12.1 2.5,0 m 0,17 0,12.1 -2.5,0 0,-12.1 2.5,0 m -43.1,12.1 -2.5,0 0,-12.1 2.5,0 0,12.1 m -2.5,-29.1 2.5,0 0,12.1 -2.5,0 0,-12.1"
       id="path323-2"
       inkscape:connector-curvature="0"
       style="fill:#b98046;stroke:none" />
    <path
       d="m 261.012,439.96973 0,12.1 -40.6,0 0,-12.1 40.6,0 m 0,17 0,12.1 -40.6,0 0,-12.1 40.6,0"
       id="path325-8"
       inkscape:connector-curvature="0"
       style="fill:#c18c57;stroke:none" />
    <path
       d="m 334.55339,433.76719 q -0.05,-2.5 -1.8,-4.25 -1.75,-1.8 -4.3,-1.8 -2.55,0 -4.35,1.8 -1.7,1.75 -1.75,4.2 l 0,-1.85 q 0,-2.55 1.75,-4.35 1.8,-1.8 4.35,-1.8 2.55,0 4.3,1.8 1.8,1.8 1.8,4.35 l 0,1.9 m -12.2,3.95 0,2 -2.5,0 -40.6,0 -2.5,0 0,-2 45.6,0 m 0,17 0,2 -2.5,0 -40.6,0 -2.5,0 0,-2 45.6,0 m -57.8,-21 0,-1.85 q 0,-2.55 1.75,-4.35 1.8,-1.8 4.35,-1.8 2.55,0 4.3,1.8 1.8,1.8 1.8,4.35 l 0,1.9 q -0.05,-2.5 -1.8,-4.25 -1.75,-1.8 -4.3,-1.8 -2.55,0 -4.35,1.8 -1.7,1.75 -1.75,4.2"
       id="path319-5"
       inkscape:connector-curvature="0"
       style="fill:#d3ad89;stroke:none" />
    <path
       d="m 264.55339,433.71719 q 0.05,-2.45 1.75,-4.2 1.8,-1.8 4.35,-1.8 2.55,0 4.3,1.8 1.75,1.75 1.8,4.25 l 0,3.95 0,2 0,12.1 0,2.9 0,2 0,12.1 0,17.9 -12.2,0 0,-53 m 57.8,0 q 0.05,-2.45 1.75,-4.2 1.8,-1.8 4.35,-1.8 2.55,0 4.3,1.8 1.75,1.75 1.8,4.25 l 0,52.95 -12.2,0 0,-17.9 0,-12.1 0,-2 0,-2.9 0,-12.1 0,-2 0,-4"
       id="path321-12"
       inkscape:connector-curvature="0"
       style="fill:#c99869;stroke:none" />
    <path
       d="m 322.35339,439.71719 0,12.1 -2.5,0 0,-12.1 2.5,0 m 0,17 0,12.1 -2.5,0 0,-12.1 2.5,0 m -43.1,12.1 -2.5,0 0,-12.1 2.5,0 0,12.1 m -2.5,-29.1 2.5,0 0,12.1 -2.5,0 0,-12.1"
       id="path323-3"
       inkscape:connector-curvature="0"
       style="fill:#b98046;stroke:none" />
    <path
       d="m 319.85339,439.71719 0,12.1 -40.6,0 0,-12.1 40.6,0 m 0,17 0,12.1 -40.6,0 0,-12.1 40.6,0"
       id="path325-0"
       inkscape:connector-curvature="0"
       style="fill:#c18c57;stroke:none" />
    <path
       d="m 393.39477,433.76719 q -0.05,-2.5 -1.8,-4.25 -1.75,-1.8 -4.3,-1.8 -2.55,0 -4.35,1.8 -1.7,1.75 -1.75,4.2 l 0,-1.85 q 0,-2.55 1.75,-4.35 1.8,-1.8 4.35,-1.8 2.55,0 4.3,1.8 1.8,1.8 1.8,4.35 l 0,1.9 m -12.2,3.95 0,2 -2.5,0 -40.6,0 -2.5,0 0,-2 45.6,0 m 0,17 0,2 -2.5,0 -40.6,0 -2.5,0 0,-2 45.6,0 m -57.8,-21 0,-1.85 q 0,-2.55 1.75,-4.35 1.8,-1.8 4.35,-1.8 2.55,0 4.3,1.8 1.8,1.8 1.8,4.35 l 0,1.9 q -0.05,-2.5 -1.8,-4.25 -1.75,-1.8 -4.3,-1.8 -2.55,0 -4.35,1.8 -1.7,1.75 -1.75,4.2"
       id="path319-55"
       inkscape:connector-curvature="0"
       style="fill:#d3ad89;stroke:none" />
    <path
       d="m 323.39477,433.71719 q 0.05,-2.45 1.75,-4.2 1.8,-1.8 4.35,-1.8 2.55,0 4.3,1.8 1.75,1.75 1.8,4.25 l 0,3.95 0,2 0,12.1 0,2.9 0,2 0,12.1 0,17.9 -12.2,0 0,-53 m 57.8,0 q 0.05,-2.45 1.75,-4.2 1.8,-1.8 4.35,-1.8 2.55,0 4.3,1.8 1.75,1.75 1.8,4.25 l 0,52.95 -12.2,0 0,-17.9 0,-12.1 0,-2 0,-2.9 0,-12.1 0,-2 0,-4"
       id="path321-9"
       inkscape:connector-curvature="0"
       style="fill:#c99869;stroke:none" />
    <path
       d="m 381.19477,439.71719 0,12.1 -2.5,0 0,-12.1 2.5,0 m 0,17 0,12.1 -2.5,0 0,-12.1 2.5,0 m -43.1,12.1 -2.5,0 0,-12.1 2.5,0 0,12.1 m -2.5,-29.1 2.5,0 0,12.1 -2.5,0 0,-12.1"
       id="path323-4"
       inkscape:connector-curvature="0"
       style="fill:#b98046;stroke:none" />
    <path
       d="m 378.69477,439.71719 0,12.1 -40.6,0 0,-12.1 40.6,0 m 0,17 0,12.1 -40.6,0 0,-12.1 40.6,0"
       id="path325-1"
       inkscape:connector-curvature="0"
       style="fill:#c18c57;stroke:none" />
    <path
       d="m 451.07372,433.68887 q -0.05,-2.5 -1.8,-4.25 -1.75,-1.8 -4.3,-1.8 -2.55,0 -4.35,1.8 -1.7,1.75 -1.75,4.2 l 0,-1.85 q 0,-2.55 1.75,-4.35 1.8,-1.8 4.35,-1.8 2.55,0 4.3,1.8 1.8,1.8 1.8,4.35 l 0,1.9 m -12.2,3.95 0,2 -2.5,0 -40.6,0 -2.5,0 0,-2 45.6,0 m 0,17 0,2 -2.5,0 -40.6,0 -2.5,0 0,-2 45.6,0 m -57.8,-21 0,-1.85 q 0,-2.55 1.75,-4.35 1.8,-1.8 4.35,-1.8 2.55,0 4.3,1.8 1.8,1.8 1.8,4.35 l 0,1.9 q -0.05,-2.5 -1.8,-4.25 -1.75,-1.8 -4.3,-1.8 -2.55,0 -4.35,1.8 -1.7,1.75 -1.75,4.2"
       id="path319-32"
       inkscape:connector-curvature="0"
       style="fill:#d3ad89;stroke:none" />
    <path
       d="m 381.07372,433.63887 q 0.05,-2.45 1.75,-4.2 1.8,-1.8 4.35,-1.8 2.55,0 4.3,1.8 1.75,1.75 1.8,4.25 l 0,3.95 0,2 0,12.1 0,2.9 0,2 0,12.1 0,17.9 -12.2,0 0,-53 m 57.8,0 q 0.05,-2.45 1.75,-4.2 1.8,-1.8 4.35,-1.8 2.55,0 4.3,1.8 1.75,1.75 1.8,4.25 l 0,52.95 -12.2,0 0,-17.9 0,-12.1 0,-2 0,-2.9 0,-12.1 0,-2 0,-4"
       id="path321-6"
       inkscape:connector-curvature="0"
       style="fill:#c99869;stroke:none" />
    <path
       d="m 438.87372,439.63887 0,12.1 -2.5,0 0,-12.1 2.5,0 m 0,17 0,12.1 -2.5,0 0,-12.1 2.5,0 m -43.1,12.1 -2.5,0 0,-12.1 2.5,0 0,12.1 m -2.5,-29.1 2.5,0 0,12.1 -2.5,0 0,-12.1"
       id="path323-6"
       inkscape:connector-curvature="0"
       style="fill:#b98046;stroke:none" />
    <path
       d="m 436.37372,439.63887 0,12.1 -40.6,0 0,-12.1 40.6,0 m 0,17 0,12.1 -40.6,0 0,-12.1 40.6,0"
       id="path325-87"
       inkscape:connector-curvature="0"
       style="fill:#c18c57;stroke:none" />
    <path
       d="m 438.78393,433.67909 0,-1.85 q 0,-2.55 1.75,-4.35 1.8,-1.8 4.35,-1.8 2.55,0 4.3,1.8 1.8,1.8 1.8,4.35 l 0,1.9 q -0.05,-2.5 -1.8,-4.25 -1.75,-1.8 -4.3,-1.8 -2.55,0 -4.35,1.8 -1.7,1.75 -1.75,4.2 m 12.2,4 45.6,0 0,2 -2.5,0 -40.6,0 -2.5,0 0,-2 m 45.6,-4 0,-1.85 q 0,-2.55 1.75,-4.35 1.8,-1.8 4.35,-1.8 2.55,0 4.3,1.8 1.8,1.8 1.8,4.35 l 0,1.9 q -0.05,-2.5 -1.8,-4.25 -1.75,-1.8 -4.3,-1.8 -2.55,0 -4.35,1.8 -1.7,1.75 -1.75,4.2 m -45.6,19.65 19.05,11 1.95,4.6 -0.8,0.1 -1.15,-2.7 -16.55,-9.55 -2.5,-1.45 0,-2"
       id="path327"
       inkscape:connector-curvature="0"
       style="fill:#d3ad89;stroke:none" />
    <path
       d="m 450.98393,453.32909 0,2 0,12 0,19.35 -12.2,0 0,-53 q 0.05,-2.45 1.75,-4.2 1.8,-1.8 4.35,-1.8 2.55,0 4.3,1.8 1.75,1.75 1.8,4.25 l 0,3.95 0,2 0,12.1 0,1.55 m 45.6,-15.65 0,-4 q 0.05,-2.45 1.75,-4.2 1.8,-1.8 4.35,-1.8 2.55,0 4.3,1.8 1.75,1.75 1.8,4.25 l 0,52.95 -12.2,0 0,-34.9 0,-12.1 0,-2"
       id="path329"
       inkscape:connector-curvature="0"
       style="fill:#c99869;stroke:none" />
    <path
       d="m 496.58393,451.77909 -2.5,0 0,-12.1 2.5,0 0,12.1 m -43.1,0 -2.5,0 0,-12.1 2.5,0 0,12.1 m 0,17 -2.5,-1.45 0,-12 2.5,1.45 0,12"
       id="path331"
       inkscape:connector-curvature="0"
       style="fill:#b98046;stroke:none" />
    <path
       d="m 453.48393,468.77909 0,-12 16.55,9.55 1.15,2.7 -4.2,0.55 1.95,4.6 -4.95,0.65 -10.5,-6.05 m 40.6,-17 -40.6,0 0,-12.1 40.6,0 0,12.1"
       id="path333"
       inkscape:connector-curvature="0"
       style="fill:#c18c57;stroke:none" />
    <path
       d="m 566.88848,434.01973 q -0.05,-2.5 -1.8,-4.25 -1.75,-1.8 -4.3,-1.8 -2.55,0 -4.35,1.8 -1.7,1.75 -1.75,4.2 l 0,-1.85 q 0,-2.55 1.75,-4.35 1.8,-1.8 4.35,-1.8 2.55,0 4.3,1.8 1.8,1.8 1.8,4.35 l 0,1.9 m -12.2,3.95 0,2 -2.5,0 -40.6,0 -2.5,0 0,-2 45.6,0 m 0,17 0,2 -2.5,0 -40.6,0 -2.5,0 0,-2 45.6,0 m -57.8,-21 0,-1.85 q 0,-2.55 1.75,-4.35 1.8,-1.8 4.35,-1.8 2.55,0 4.3,1.8 1.8,1.8 1.8,4.35 l 0,1.9 q -0.05,-2.5 -1.8,-4.25 -1.75,-1.8 -4.3,-1.8 -2.55,0 -4.35,1.8 -1.7,1.75 -1.75,4.2"
       id="path319-6"
       inkscape:connector-curvature="0"
       style="fill:#d3ad89;stroke:none" />
    <path
       d="m 496.88848,433.96973 q 0.05,-2.45 1.75,-4.2 1.8,-1.8 4.35,-1.8 2.55,0 4.3,1.8 1.75,1.75 1.8,4.25 l 0,3.95 0,2 0,12.1 0,2.9 0,2 0,12.1 0,17.9 -12.2,0 0,-53 m 57.8,0 q 0.05,-2.45 1.75,-4.2 1.8,-1.8 4.35,-1.8 2.55,0 4.3,1.8 1.75,1.75 1.8,4.25 l 0,52.95 -12.2,0 0,-17.9 0,-12.1 0,-2 0,-2.9 0,-12.1 0,-2 0,-4"
       id="path321-8"
       inkscape:connector-curvature="0"
       style="fill:#c99869;stroke:none" />
    <path
       d="m 554.68848,439.96973 0,12.1 -2.5,0 0,-12.1 2.5,0 m 0,17 0,12.1 -2.5,0 0,-12.1 2.5,0 m -43.1,12.1 -2.5,0 0,-12.1 2.5,0 0,12.1 m -2.5,-29.1 2.5,0 0,12.1 -2.5,0 0,-12.1"
       id="path323-0"
       inkscape:connector-curvature="0"
       style="fill:#b98046;stroke:none" />
    <path
       d="m 552.18848,439.96973 0,12.1 -40.6,0 0,-12.1 40.6,0 m 0,17 0,12.1 -40.6,0 0,-12.1 40.6,0"
       id="path325-4"
       inkscape:connector-curvature="0"
       style="fill:#c18c57;stroke:none" />
    <path
       d="m 625.22479,434.01973 q -0.05,-2.5 -1.8,-4.25 -1.75,-1.8 -4.3,-1.8 -2.55,0 -4.35,1.8 -1.7,1.75 -1.75,4.2 l 0,-1.85 q 0,-2.55 1.75,-4.35 1.8,-1.8 4.35,-1.8 2.55,0 4.3,1.8 1.8,1.8 1.8,4.35 l 0,1.9 m -12.2,3.95 0,2 -2.5,0 -40.6,0 -2.5,0 0,-2 45.6,0 m 0,17 0,2 -2.5,0 -40.6,0 -2.5,0 0,-2 45.6,0 m -57.8,-21 0,-1.85 q 0,-2.55 1.75,-4.35 1.8,-1.8 4.35,-1.8 2.55,0 4.3,1.8 1.8,1.8 1.8,4.35 l 0,1.9 q -0.05,-2.5 -1.8,-4.25 -1.75,-1.8 -4.3,-1.8 -2.55,0 -4.35,1.8 -1.7,1.75 -1.75,4.2"
       id="path319-7"
       inkscape:connector-curvature="0"
       style="fill:#d3ad89;stroke:none" />
    <path
       d="m 555.22479,433.96973 q 0.05,-2.45 1.75,-4.2 1.8,-1.8 4.35,-1.8 2.55,0 4.3,1.8 1.75,1.75 1.8,4.25 l 0,3.95 0,2 0,12.1 0,2.9 0,2 0,12.1 0,17.9 -12.2,0 0,-53 m 57.8,0 q 0.05,-2.45 1.75,-4.2 1.8,-1.8 4.35,-1.8 2.55,0 4.3,1.8 1.75,1.75 1.8,4.25 l 0,52.95 -12.2,0 0,-17.9 0,-12.1 0,-2 0,-2.9 0,-12.1 0,-2 0,-4"
       id="path321-5"
       inkscape:connector-curvature="0"
       style="fill:#c99869;stroke:none" />
    <path
       d="m 613.02479,439.96973 0,12.1 -2.5,0 0,-12.1 2.5,0 m 0,17 0,12.1 -2.5,0 0,-12.1 2.5,0 m -43.1,12.1 -2.5,0 0,-12.1 2.5,0 0,12.1 m -2.5,-29.1 2.5,0 0,12.1 -2.5,0 0,-12.1"
       id="path323-38"
       inkscape:connector-curvature="0"
       style="fill:#b98046;stroke:none" />
    <path
       d="m 610.52479,439.96973 0,12.1 -40.6,0 0,-12.1 40.6,0 m 0,17 0,12.1 -40.6,0 0,-12.1 40.6,0"
       id="path325-3"
       inkscape:connector-curvature="0"
       style="fill:#c18c57;stroke:none" />
    <path
       d="m 683.81363,434.01972 q -0.05,-2.5 -1.8,-4.25 -1.75,-1.8 -4.3,-1.8 -2.55,0 -4.35,1.8 -1.7,1.75 -1.75,4.2 l 0,-1.85 q 0,-2.55 1.75,-4.35 1.8,-1.8 4.35,-1.8 2.55,0 4.3,1.8 1.8,1.8 1.8,4.35 l 0,1.9 m -12.2,3.95 0,2 -2.5,0 -40.6,0 -2.5,0 0,-2 45.6,0 m 0,17 0,2 -2.5,0 -40.6,0 -2.5,0 0,-2 45.6,0 m -57.8,-21 0,-1.85 q 0,-2.55 1.75,-4.35 1.8,-1.8 4.35,-1.8 2.55,0 4.3,1.8 1.8,1.8 1.8,4.35 l 0,1.9 q -0.05,-2.5 -1.8,-4.25 -1.75,-1.8 -4.3,-1.8 -2.55,0 -4.35,1.8 -1.7,1.75 -1.75,4.2"
       id="path319-9"
       inkscape:connector-curvature="0"
       style="fill:#d3ad89;stroke:none" />
    <path
       d="m 613.81363,433.96972 q 0.05,-2.45 1.75,-4.2 1.8,-1.8 4.35,-1.8 2.55,0 4.3,1.8 1.75,1.75 1.8,4.25 l 0,3.95 0,2 0,12.1 0,2.9 0,2 0,12.1 0,17.9 -12.2,0 0,-53 m 57.8,0 q 0.05,-2.45 1.75,-4.2 1.8,-1.8 4.35,-1.8 2.55,0 4.3,1.8 1.75,1.75 1.8,4.25 l 0,52.95 -12.2,0 0,-17.9 0,-12.1 0,-2 0,-2.9 0,-12.1 0,-2 0,-4"
       id="path321-3"
       inkscape:connector-curvature="0"
       style="fill:#c99869;stroke:none" />
    <path
       d="m 671.61363,439.96972 0,12.1 -2.5,0 0,-12.1 2.5,0 m 0,17 0,12.1 -2.5,0 0,-12.1 2.5,0 m -43.1,12.1 -2.5,0 0,-12.1 2.5,0 0,12.1 m -2.5,-29.1 2.5,0 0,12.1 -2.5,0 0,-12.1"
       id="path323-7"
       inkscape:connector-curvature="0"
       style="fill:#b98046;stroke:none" />
    <path
       d="m 669.11363,439.96972 0,12.1 -40.6,0 0,-12.1 40.6,0 m 0,17 0,12.1 -40.6,0 0,-12.1 40.6,0"
       id="path325-85"
       inkscape:connector-curvature="0"
       style="fill:#c18c57;stroke:none" />
  </g>
  <g
     inkscape:groupmode="layer"
     id="layer14"
     inkscape:label="stuff-in-front-of-fence 1">
    <path
       inkscape:connector-curvature="0"
       style="fill:#8dd323;stroke:none"
       d="m 232.2432,63.740244 q -1.00029,-7.029212 -5.28725,-12.409596 -5.57304,-6.855652 -13.43246,-6.855652 l -4.07261,0.520683 q -2.07203,-6.59531 -6.43044,-11.975695 -8.07376,-10.066526 -19.5771,-10.066526 -11.43188,0 -19.5771,10.066526 -2.00058,2.516632 -3.57246,5.293604 l -5.93029,-0.954584 q -9.00261,0 -15.43305,7.897016 -5.78739,7.202773 -6.35898,16.922177 l -0.0714,-2.08273 q 0,-11.194671 6.43043,-19.178467 6.43044,-7.897016 15.43305,-7.897016 3.14377,0 5.93029,0.954585 1.57188,-2.776973 3.57246,-5.293604 8.14522,-10.066526 19.5771,-10.066526 11.50334,0 19.5771,10.066526 4.35841,5.380384 6.43044,11.975694 l 4.07261,-0.520682 q 7.85942,0 13.43246,6.855651 5.57305,6.942431 5.57305,16.661836 l 0,0.08678 -0.2858,0"
       id="path443-7-3" />
    <path
       inkscape:connector-curvature="0"
       style="fill:#7ab71e;stroke:none"
       d="m 232.75356,63.120384 -99.52884,0 -0.1429,-1.562047 q 0.5716,-9.719405 6.35899,-16.922177 6.43043,-7.897016 15.43304,-7.897016 l 5.93029,0.954584 q 1.57188,-2.776973 3.57246,-5.293604 8.14522,-10.066526 19.57711,-10.066526 11.50333,0 19.5771,10.066526 4.3584,5.380385 6.43043,11.975695 l 4.07261,-0.520683 q 7.85942,0 13.43246,6.855651 4.28696,5.380385 5.28725,12.409597"
       id="path445-2-2" />
  </g>
  <g
     inkscape:groupmode="layer"
     id="layer4"
     inkscape:label="stuff-in-front-of-fence"
     transform="translate(-99.285714,-425.63887)">
    <path
       d="m 116.52288,478.97399 12.76309,-14.31245 13.74488,3.89103 1.55448,2.50331 -5.99975,2.4217 -7.09061,-2.88426 -14.97209,8.38067 m 32.48044,-0.68025 5.69976,1.52376 -1.00905,2.58495 -7.03607,1.25166 -5.01797,-3.56452 7.36333,-1.79585"
       id="path1221"
       inkscape:connector-curvature="0"
       style="fill:#bccbcb;stroke:none" />
    <path
       d="m 149.00332,478.29374 -7.36333,1.79585 5.01797,3.56452 7.03607,-1.25166 -1.79992,4.57127 -30.81688,0 -4.55435,-7.99973 14.97209,-8.38067 7.09061,2.88426 5.99975,-2.4217 4.41799,7.23786 m -18.98101,-1.9047 q -0.7636,0 -1.30904,0.5442 -0.54543,0.5442 -0.54543,1.30607 0,0.76189 0.54543,1.30609 0.54544,0.54419 1.30904,0.54419 0.7636,0 1.30903,-0.54419 0.54544,-0.5442 0.54544,-1.30609 0,-0.76187 -0.54544,-1.30607 -0.54543,-0.5442 -1.30903,-0.5442 m -4.66344,4.05429 q 0,0.43536 0.29998,0.73466 0.29999,0.29932 0.73634,0.29932 0.43635,0 0.73634,-0.29932 0.29998,-0.2993 0.29998,-0.73466 0,-0.43536 -0.29998,-0.73467 -0.29999,-0.29931 -0.73634,-0.29931 -0.43635,0 -0.73634,0.29931 -0.29998,0.29931 -0.29998,0.73467"
       id="path1223"
       inkscape:connector-curvature="0"
       style="fill:#acc0c1;stroke:none" />
    <path
       d="m 125.35887,480.44333 q 0,-0.43536 0.29998,-0.73467 0.29999,-0.29931 0.73634,-0.29931 0.43635,0 0.73634,0.29931 0.29998,0.29931 0.29998,0.73467 0,0.43536 -0.29998,0.73466 -0.29999,0.29932 -0.73634,0.29932 -0.43635,0 -0.73634,-0.29932 -0.29998,-0.2993 -0.29998,-0.73466 m 4.66344,-4.05429 q 0.7636,0 1.30903,0.5442 0.54544,0.5442 0.54544,1.30607 0,0.76189 -0.54544,1.30609 -0.54543,0.54419 -1.30903,0.54419 -0.7636,0 -1.30904,-0.54419 -0.54543,-0.5442 -0.54543,-1.30609 0,-0.76187 0.54543,-1.30607 0.54544,-0.5442 1.30904,-0.5442"
       id="path1225"
       inkscape:connector-curvature="0"
       style="fill:#9eb6b6;stroke:none" />
    <path
       d="m 668.35024,486.94149 -0.97935,0 q -0.87291,-3.25719 -2.27807,-5.59518 l 0.31935,-0.7993 q 2.4484,0.5795 4.10904,2.13816 2.29935,-5.77501 0,-10.25116 l 0.66001,-0.4396 q 3.89613,4.17639 4.10904,9.3519 1.61805,-1.29886 3.78968,-1.43874 l 0.4258,0.55952 q -1.91613,2.83754 -2.4484,6.4744 l -0.93677,0 q 0.74516,-3.71678 2.17163,-6.11472 -1.36259,0.25978 -2.4484,1.13902 -0.25549,0.19983 -0.57484,0.17985 -0.34064,0 -0.57483,-0.21982 -0.23421,-0.23978 -0.25549,-0.53953 -0.14903,-3.61688 -2.19291,-6.7142 0.87291,3.77673 -0.91548,8.29284 l -0.36194,0.39966 -0.55355,0.11987 q -0.29807,-0.04 -0.48968,-0.23979 -1.14967,-1.07906 -2.70387,-1.61861 1.06451,1.97831 2.12903,5.31542"
       id="path1189"
       inkscape:connector-curvature="0"
       style="fill:#8acb25;stroke:none" />
    <path
       d="m 668.35024,486.94149 q -1.06452,-3.33711 -2.12903,-5.31541 1.5542,0.53954 2.70387,1.6186 0.19161,0.19983 0.48968,0.23979 l 0.55355,-0.11986 0.36194,-0.39966 q 1.78839,-4.51611 0.91548,-8.29284 2.04388,3.09732 2.19291,6.7142 0.0214,0.29975 0.25549,0.53952 0.23419,0.21982 0.57483,0.21982 0.31935,0.02 0.57484,-0.17984 1.08581,-0.87924 2.4484,-1.13902 -1.42647,2.39794 -2.17163,6.11472 l -6.77033,0"
       id="path1191"
       inkscape:connector-curvature="0"
       style="fill:#80be1f;stroke:none" />
    <path
       d="m 484.46169,486.94148 1.60504,0 q 1.43057,-3.31502 3.73347,-5.69452 l -0.52338,-0.81351 q -4.01261,0.58979 -6.73421,2.17613 -3.76835,-5.87758 0,-10.4332 l -1.08166,-0.44743 q -6.38528,4.25056 -6.73419,9.51801 -2.65181,-1.32195 -6.21082,-1.46432 l -0.69786,0.56945 q 3.14031,2.88795 4.01261,6.58939 l 1.53527,0 q -1.22124,-3.78279 -3.55901,-6.2233 2.2331,0.26439 4.01261,1.15924 0.4187,0.20338 0.94208,0.18303 0.55828,0 0.94209,-0.22371 0.38383,-0.24404 0.41871,-0.54911 0.24425,-3.6811 3.5939,-6.83344 -1.43058,3.84382 1.50037,8.44011 l 0.59317,0.40676 0.90718,0.12205 q 0.4885,-0.0408 0.80255,-0.24406 1.88417,-1.09823 4.43129,-1.64735 -1.74461,2.01343 -3.48921,5.40981"
       id="path1189-8"
       inkscape:connector-curvature="0"
       style="fill:#8acb25;stroke:none" />
    <path
       d="m 484.46169,486.94148 q 1.7446,-3.39638 3.48921,-5.40981 -2.54712,0.54913 -4.43129,1.64736 -0.31405,0.20337 -0.80255,0.24405 l -0.90718,-0.12205 -0.59317,-0.40675 q -2.93095,-4.5963 -1.50037,-8.44011 -3.34965,3.15234 -3.5939,6.83343 -0.0348,0.30507 -0.41871,0.54912 -0.38381,0.22371 -0.94209,0.22371 -0.52338,0.0202 -0.94208,-0.18303 -1.77951,-0.89486 -4.01261,-1.15925 2.33777,2.44052 3.55901,6.22331 l 11.09573,0"
       id="path1191-5"
       inkscape:connector-curvature="0"
       style="fill:#80be1f;stroke:none" />
    <path
       d="m 458.69146,486.9415 -0.70532,0 q -0.62866,-1.8048 -1.64063,-3.10029 l 0.23001,-0.4429 q 1.76328,0.32109 2.95924,1.18475 1.65597,-3.19995 0,-5.68018 l 0.47532,-0.2436 q 2.80593,2.31417 2.95926,5.18193 1.16529,-0.71971 2.72926,-0.79723 l 0.30666,0.31004 q -1.37996,1.57228 -1.76328,3.58748 l -0.67466,0 q 0.53666,-2.05948 1.56396,-3.38818 -0.9813,0.14394 -1.76329,0.63113 -0.18399,0.11082 -0.41399,0.0997 -0.24532,0 -0.41398,-0.1218 -0.16866,-0.13286 -0.184,-0.29895 -0.10735,-2.00411 -1.57928,-3.72035 0.62864,2.0927 -0.65933,4.59508 l -0.26066,0.22145 -0.39866,0.0664 q -0.21465,-0.0222 -0.35265,-0.13287 -0.82797,-0.59791 -1.94727,-0.89687 0.76664,1.09618 1.53329,2.94528"
       id="path1189-3"
       inkscape:connector-curvature="0"
       style="fill:#8acb25;stroke:none" />
    <path
       d="m 458.69146,486.9415 q -0.76665,-1.8491 -1.53329,-2.94528 1.1193,0.29895 1.94727,0.89686 0.13797,0.11082 0.35265,0.13288 l 0.39866,-0.0664 0.26066,-0.22143 q 1.28797,-2.5024 0.65933,-4.59509 1.47197,1.71623 1.57928,3.72035 0.0151,0.16609 0.184,0.29895 0.16866,0.12179 0.41398,0.12179 0.23,0.0105 0.41399,-0.0997 0.78199,-0.48719 1.76329,-0.63113 -1.0273,1.32869 -1.56396,3.38817 l -4.87586,0"
       id="path1191-9"
       inkscape:connector-curvature="0"
       style="fill:#80be1f;stroke:none" />
    <path
       inkscape:connector-curvature="0"
       style="fill:#8dd323;stroke:none"
       d="m 356.89329,476.71922 q -1.00029,-7.02921 -5.28724,-12.4096 -5.57305,-6.85565 -13.43247,-6.85565 l -4.07261,0.52068 q -2.07202,-6.59531 -6.43043,-11.97569 -8.07377,-10.06653 -19.5771,-10.06653 -11.43189,0 -19.5771,10.06653 -2.00058,2.51663 -3.57247,5.2936 l -5.93029,-0.95458 q -9.00261,0 -15.43304,7.89701 -5.78739,7.20278 -6.35899,16.92218 l -0.0715,-2.08273 q 0,-11.19467 6.43044,-19.17847 6.43043,-7.89701 15.43304,-7.89701 3.14377,0 5.93029,0.95458 1.57189,-2.77697 3.57247,-5.2936 8.14521,-10.06653 19.5771,-10.06653 11.50333,0 19.5771,10.06653 4.35841,5.38038 6.43043,11.97569 l 4.07261,-0.52068 q 7.85942,0 13.43247,6.85565 5.57304,6.94243 5.57304,16.66184 l 0,0.0868 -0.2858,0"
       id="path443" />
    <path
       inkscape:connector-curvature="0"
       style="fill:#7ab71e;stroke:none"
       d="m 356.53615,476.36208 -99.52884,0 -0.1429,-1.56205 q 0.5716,-9.7194 6.35899,-16.92218 6.43043,-7.89701 15.43304,-7.89701 l 5.93029,0.95458 q 1.57189,-2.77697 3.57247,-5.2936 8.14521,-10.06653 19.5771,-10.06653 11.50333,0 19.5771,10.06653 4.35841,5.38038 6.43043,11.97569 l 4.07261,-0.52068 q 7.85942,0 13.43247,6.85565 4.28695,5.38039 5.28724,12.4096"
       id="path445" />
    <path
       inkscape:connector-curvature="0"
       style="fill:#8dd323;stroke:none"
       d="m 407.57136,488.13939 q -1.00029,-7.02921 -5.28725,-12.40959 -5.57304,-6.85566 -13.43246,-6.85566 l -4.07261,0.52069 q -2.07203,-6.59531 -6.43044,-11.9757 -8.07377,-10.06652 -19.5771,-10.06652 -11.43188,0 -19.5771,10.06652 -2.00058,2.51663 -3.57246,5.29361 l -5.93029,-0.95459 q -9.00261,0 -15.43305,7.89702 -5.78739,7.20277 -6.35898,16.92218 l -0.0715,-2.08273 q 0,-11.19467 6.43043,-19.17847 6.43044,-7.89702 15.43305,-7.89702 3.14376,0 5.93029,0.95459 1.57188,-2.77698 3.57246,-5.29361 8.14522,-10.06652 19.5771,-10.06652 11.50333,0 19.5771,10.06652 4.35841,5.38039 6.43044,11.9757 l 4.07261,-0.52068 q 7.85942,0 13.43246,6.85565 5.57304,6.94243 5.57304,16.66183 l 0,0.0868 -0.28579,0"
       id="path443-7" />
    <path
       inkscape:connector-curvature="0"
       style="fill:#7ab71e;stroke:none"
       d="m 407.57136,488.13939 -99.52884,0 -0.1429,-1.56204 q 0.57159,-9.71941 6.35898,-16.92218 6.43044,-7.89702 15.43305,-7.89702 l 5.93029,0.95459 q 1.57188,-2.77698 3.57246,-5.29361 8.14522,-10.06652 19.5771,-10.06652 11.50333,0 19.5771,10.06652 4.35841,5.38039 6.43044,11.9757 l 4.07261,-0.52069 q 7.85942,0 13.43246,6.85566 4.28696,5.38038 5.28725,12.40959"
       id="path445-2" />
    <path
       inkscape:connector-curvature="0"
       style="fill:#bd8853;stroke:none"
       d="m 671.76049,478.66215 -0.0621,-0.25376 0,-0.0254 q 0.0932,-2.86753 3.54133,-4.92303 3.57241,-2.08085 8.57377,-2.08085 5.03243,0 8.57376,2.08085 3.44815,2.0555 3.54134,4.92303 l 0,0.0254 -0.0621,0.25376 q -0.40385,-2.48687 -3.47922,-4.31398 -3.54133,-2.08087 -8.57376,-2.08087 -5.00135,0 -8.57376,2.08087 -3.07537,1.82711 -3.4792,4.31398"
       id="path1423" />
    <path
       inkscape:connector-curvature="0"
       style="fill:#e1d7bf;stroke:none"
       d="m 687.6033,480.56539 0,1.29418 -3.78985,0.1015 -3.78985,-0.1015 0,-1.29418 3.78985,0.1015 3.78985,-0.1015"
       id="path1425" />
    <path
       inkscape:connector-curvature="0"
       style="fill:#efebdc;stroke:none"
       d="m 687.6033,481.85957 0,4.74539 -7.5797,0 0,-4.74539 3.78985,0.1015 3.78985,-0.1015"
       id="path1427" />
    <path
       inkscape:connector-curvature="0"
       style="fill:#a06d3d;stroke:none"
       d="m 695.86643,478.66215 q -0.40385,0.78668 -3.47922,1.34495 l -4.78391,0.55829 -3.78985,0.1015 -3.78985,-0.1015 -4.78391,-0.55829 q -3.07537,-0.55827 -3.4792,-1.34495 0.40383,-2.48687 3.4792,-4.31398 3.57241,-2.08087 8.57376,-2.08087 5.03243,0 8.57376,2.08087 3.07537,1.82711 3.47922,4.31398"
       id="path1429" />
    <rect
       style="fill:#93db24;fill-opacity:1"
       id="rect11504"
       width="195.59081"
       height="2.0203121"
       x="220.88283"
       y="486.19516" />
    <rect
       style="fill:#80be1f;fill-opacity:1"
       id="rect11517"
       width="196.97977"
       height="6.5660048"
       x="220.37775"
       y="488.21548" />
  </g>
</svg>
