<?xml version="1.0" encoding="UTF-8" standalone="no"?>
<!-- Created with Inkscape (http://www.inkscape.org/) -->

<svg
   xmlns:dc="http://purl.org/dc/elements/1.1/"
   xmlns:cc="http://creativecommons.org/ns#"
   xmlns:rdf="http://www.w3.org/1999/02/22-rdf-syntax-ns#"
   xmlns:svg="http://www.w3.org/2000/svg"
   xmlns="http://www.w3.org/2000/svg"
   xmlns:sodipodi="http://sodipodi.sourceforge.net/DTD/sodipodi-0.dtd"
   xmlns:inkscape="http://www.inkscape.org/namespaces/inkscape"
   width="176.14427mm"
   height="36.797009mm"
   viewBox="0 0 624.13325 130.3831"
   id="svg6401"
   version="1.1"
   inkscape:version="0.91 r13725"
   sodipodi:docname="level5.svg">
  <defs
     id="defs6403" />
  <sodipodi:namedview
     id="base"
     pagecolor="#ffffff"
     bordercolor="#666666"
     borderopacity="1.0"
     inkscape:pageopacity="0.0"
     inkscape:pageshadow="2"
     inkscape:zoom="7.9195959"
     inkscape:cx="268.45909"
     inkscape:cy="86.32216"
     inkscape:document-units="px"
     inkscape:current-layer="layer15"
     showgrid="false"
     inkscape:window-width="1920"
     inkscape:window-height="1121"
     inkscape:window-x="114"
     inkscape:window-y="-8"
     inkscape:window-maximized="1"
     fit-margin-top="0"
     fit-margin-left="0"
     fit-margin-right="0"
     fit-margin-bottom="0" />
  <metadata
     id="metadata6406">
    <rdf:RDF>
      <cc:Work
         rdf:about="">
        <dc:format>image/svg+xml</dc:format>
        <dc:type
           rdf:resource="http://purl.org/dc/dcmitype/StillImage" />
        <dc:title></dc:title>
      </cc:Work>
    </rdf:RDF>
  </metadata>
  <g
     inkscape:label="ground"
     inkscape:groupmode="layer"
     id="layer1"
     transform="translate(-99.285714,-425.63887)">
    <path
       d="m 99.285714,497.08363 0,-1.5 q 0,-9.65 9.649996,-9.65 l 60.35,0 0,2 -60.35,0 q -9.399996,0 -9.649996,9.15"
       id="path117"
       inkscape:connector-curvature="0"
       style="fill:#93db24;stroke:none" />
    <path
       d="m 169.28571,514.43363 0,10 -11.65,-11.5 -11.7,11.5 -11.6,-11.5 -11.7,11.5 -11.7,-11.5 -2.1,2.1 -0.05,0 -6.25,-3.8 8.4,-8.3 11.7,11.5 11.7,-11.5 11.6,11.5 11.7,-11.5 11.65,11.5 m 0,25 0,15.1 -1.75,-1.75 0.05,-0.05 -9.9,-9.8 -11.7,11.5 -1.95,-1.9 q -5.75,-10.9 -14.3,-20.1 l 4.6,-4.5 11.6,11.5 11.7,-11.5 11.65,11.5"
       id="path119"
       inkscape:connector-curvature="0"
       style="fill:#c58f5c;stroke:none" />
    <path
       d="m 169.28571,539.43363 -11.65,-11.5 -11.7,11.5 -11.6,-11.5 -4.6,4.5 q -8.95,-9.65 -20.9,-17.4 l 2.1,-2.1 11.7,11.5 11.7,-11.5 11.6,11.5 11.7,-11.5 11.65,11.5 0,15 m 0,15.1 0,1.4 -23.5,0 -1.6,-3.15 -0.15,-0.25 1.95,1.9 11.7,-11.5 9.9,9.8 -0.05,0.05 1.75,1.75"
       id="path121"
       inkscape:connector-curvature="0"
       style="fill:#c99869;stroke:none" />
    <path
       d="m 169.28571,509.43363 0,5 -11.65,-11.5 -11.7,11.5 -11.6,-11.5 -11.7,11.5 -11.7,-11.5 -8.4,8.3 -3.249996,-1.8 11.649996,-11.5 11.7,11.5 11.7,-11.5 11.6,11.5 11.7,-11.5 11.65,11.5"
       id="path123"
       inkscape:connector-curvature="0"
       style="fill:#bb8044;stroke:none" />
    <path
       d="m 169.28571,509.43363 -11.65,-11.5 -11.7,11.5 -11.6,-11.5 -11.7,11.5 -11.7,-11.5 -11.649996,11.5 0,-12.35 q 0.25,-9.15 9.649996,-9.15 l 60.35,0 0,21.5"
       id="path125"
       inkscape:connector-curvature="0"
       style="fill:#80be1f;stroke:none" />
    <path
       d="m 238.54573,514.52196 -11.65,-11.5 -11.7,11.5 -11.6,-11.5 -11.7,11.5 -11.7,-11.5 -11.65,11.5 0,-5 11.65,-11.5 11.7,11.5 11.7,-11.5 11.6,11.5 11.7,-11.5 11.65,11.5 0,5"
       id="path93"
       inkscape:connector-curvature="0"
       style="fill:#bb8044;stroke:none" />
    <path
       d="m 238.54573,509.52196 -11.65,-11.5 -11.7,11.5 -11.6,-11.5 -11.7,11.5 -11.7,-11.5 -11.65,11.5 0,-21.5 70,0 0,21.5"
       id="path95"
       inkscape:connector-curvature="0"
       style="fill:#80be1f;stroke:none" />
    <path
       d="m 168.54573,514.52196 11.65,-11.5 11.7,11.5 11.7,-11.5 11.6,11.5 11.7,-11.5 11.65,11.5 0,10 -11.65,-11.5 -11.7,11.5 -11.6,-11.5 -11.7,11.5 -11.7,-11.5 -11.65,11.5 0,-10 m 0,40.2 0,-15.2 0.05,0 10.15,-10.05 1.45,-1.45 11.7,11.5 11.7,-11.5 11.6,11.5 11.7,-11.5 11.65,11.5 0,15.1 -1.75,-1.75 0.05,-0.05 -9.9,-9.8 -11.7,11.5 -11.6,-11.5 -11.7,11.5 -11.7,-11.5 -9.95,9.85 0.05,0.05 -1.8,1.8"
       id="path97"
       inkscape:connector-curvature="0"
       style="fill:#c58f5c;stroke:none" />
    <path
       d="m 168.54573,488.02196 0,-2 70,0 0,2 -70,0"
       id="path99"
       inkscape:connector-curvature="0"
       style="fill:#93db24;stroke:none" />
    <path
       d="m 168.54573,524.52196 11.65,-11.5 11.7,11.5 11.7,-11.5 11.6,11.5 11.7,-11.5 11.65,11.5 0,15 -11.65,-11.5 -11.7,11.5 -11.6,-11.5 -11.7,11.5 -11.7,-11.5 -1.45,1.45 -10.15,10.05 -0.05,0 0,-15 m 0,30.2 1.8,-1.8 -0.05,-0.05 9.95,-9.85 11.7,11.5 11.7,-11.5 11.6,11.5 11.7,-11.5 9.9,9.8 -0.05,0.05 1.75,1.75 0,1.4 -70,0 0,-1.3"
       id="path101"
       inkscape:connector-curvature="0"
       style="fill:#c99869;stroke:none" />
    <path
       d="m 307.76149,514.50166 -11.65,-11.5 -11.7,11.5 -11.6,-11.5 -11.7,11.5 -11.7,-11.5 -11.65,11.5 0,-5 11.65,-11.5 11.7,11.5 11.7,-11.5 11.6,11.5 11.7,-11.5 11.65,11.5 0,5"
       id="path93-7"
       inkscape:connector-curvature="0"
       style="fill:#bb8044;stroke:none" />
    <path
       d="m 307.76149,509.50166 -11.65,-11.5 -11.7,11.5 -11.6,-11.5 -11.7,11.5 -11.7,-11.5 -11.65,11.5 0,-21.5 70,0 0,21.5"
       id="path95-4"
       inkscape:connector-curvature="0"
       style="fill:#80be1f;stroke:none" />
    <path
       d="m 237.76149,514.50166 11.65,-11.5 11.7,11.5 11.7,-11.5 11.6,11.5 11.7,-11.5 11.65,11.5 0,10 -11.65,-11.5 -11.7,11.5 -11.6,-11.5 -11.7,11.5 -11.7,-11.5 -11.65,11.5 0,-10 m 0,40.2 0,-15.2 0.05,0 10.15,-10.05 1.45,-1.45 11.7,11.5 11.7,-11.5 11.6,11.5 11.7,-11.5 11.65,11.5 0,15.1 -1.75,-1.75 0.05,-0.05 -9.9,-9.8 -11.7,11.5 -11.6,-11.5 -11.7,11.5 -11.7,-11.5 -9.95,9.85 0.05,0.05 -1.8,1.8"
       id="path97-5"
       inkscape:connector-curvature="0"
       style="fill:#c58f5c;stroke:none" />
    <path
       d="m 237.76149,524.50166 11.65,-11.5 11.7,11.5 11.7,-11.5 11.6,11.5 11.7,-11.5 11.65,11.5 0,15 -11.65,-11.5 -11.7,11.5 -11.6,-11.5 -11.7,11.5 -11.7,-11.5 -1.45,1.45 -10.15,10.05 -0.05,0 0,-15 m 0,30.2 1.8,-1.8 -0.05,-0.05 9.95,-9.85 11.7,11.5 11.7,-11.5 11.6,11.5 11.7,-11.5 9.9,9.8 -0.05,0.05 1.75,1.75 0,1.4 -70,0 0,-1.3"
       id="path101-5"
       inkscape:connector-curvature="0"
       style="fill:#c99869;stroke:none" />
    <path
       d="m 376.93664,514.52196 -11.65,-11.5 -11.7,11.5 -11.6,-11.5 -11.7,11.5 -11.7,-11.5 -11.65,11.5 0,-5 11.65,-11.5 11.7,11.5 11.7,-11.5 11.6,11.5 11.7,-11.5 11.65,11.5 0,5"
       id="path93-1"
       inkscape:connector-curvature="0"
       style="fill:#bb8044;stroke:none" />
    <path
       d="m 376.93664,509.52196 -11.65,-11.5 -11.7,11.5 -11.6,-11.5 -11.7,11.5 -11.7,-11.5 -11.65,11.5 0,-21.5 70,0 0,21.5"
       id="path95-9"
       inkscape:connector-curvature="0"
       style="fill:#80be1f;stroke:none" />
    <path
       d="m 306.93664,514.52196 11.65,-11.5 11.7,11.5 11.7,-11.5 11.6,11.5 11.7,-11.5 11.65,11.5 0,10 -11.65,-11.5 -11.7,11.5 -11.6,-11.5 -11.7,11.5 -11.7,-11.5 -11.65,11.5 0,-10 m 0,40.2 0,-15.2 0.05,0 10.15,-10.05 1.45,-1.45 11.7,11.5 11.7,-11.5 11.6,11.5 11.7,-11.5 11.65,11.5 0,15.1 -1.75,-1.75 0.05,-0.05 -9.9,-9.8 -11.7,11.5 -11.6,-11.5 -11.7,11.5 -11.7,-11.5 -9.95,9.85 0.05,0.05 -1.8,1.8"
       id="path97-3"
       inkscape:connector-curvature="0"
       style="fill:#c58f5c;stroke:none" />
    <path
       d="m 423.33757,474.55142 0,-2 -70,0 0,2 70,0"
       id="path99-4"
       inkscape:connector-curvature="0"
       style="fill:#93db24;stroke:none" />
    <path
       d="m 306.93664,524.52196 11.65,-11.5 11.7,11.5 11.7,-11.5 11.6,11.5 11.7,-11.5 11.65,11.5 0,15 -11.65,-11.5 -11.7,11.5 -11.6,-11.5 -11.7,11.5 -11.7,-11.5 -1.45,1.45 -10.15,10.05 -0.05,0 0,-15 m 0,30.2 1.8,-1.8 -0.05,-0.05 9.95,-9.85 11.7,11.5 11.7,-11.5 11.6,11.5 11.7,-11.5 9.9,9.8 -0.05,0.05 1.75,1.75 0,1.4 -70,0 0,-1.3"
       id="path101-3"
       inkscape:connector-curvature="0"
       style="fill:#c99869;stroke:none" />
    <path
       d="m 446.13208,514.52197 -11.65,-11.5 -11.7,11.5 -11.6,-11.5 -11.7,11.5 -11.7,-11.5 -11.65,11.5 0,-5 11.65,-11.5 11.7,11.5 11.7,-11.5 11.6,11.5 11.7,-11.5 11.65,11.5 0,5"
       id="path93-5"
       inkscape:connector-curvature="0"
       style="fill:#bb8044;stroke:none" />
    <path
       d="m 446.13208,509.52197 -11.65,-11.5 -11.7,11.5 -11.6,-11.5 -11.7,11.5 -11.7,-11.5 -11.65,11.5 0,-21.5 70,0 0,21.5"
       id="path95-5"
       inkscape:connector-curvature="0"
       style="fill:#80be1f;stroke:none" />
    <path
       d="m 376.13208,514.52197 11.65,-11.5 11.7,11.5 11.7,-11.5 11.6,11.5 11.7,-11.5 11.65,11.5 0,10 -11.65,-11.5 -11.7,11.5 -11.6,-11.5 -11.7,11.5 -11.7,-11.5 -11.65,11.5 0,-10 m 0,40.2 0,-15.2 0.05,0 10.15,-10.05 1.45,-1.45 11.7,11.5 11.7,-11.5 11.6,11.5 11.7,-11.5 11.65,11.5 0,15.1 -1.75,-1.75 0.05,-0.05 -9.9,-9.8 -11.7,11.5 -11.6,-11.5 -11.7,11.5 -11.7,-11.5 -9.95,9.85 0.05,0.05 -1.8,1.8"
       id="path97-0"
       inkscape:connector-curvature="0"
       style="fill:#c58f5c;stroke:none" />
    <path
       d="m 376.13208,524.52197 11.65,-11.5 11.7,11.5 11.7,-11.5 11.6,11.5 11.7,-11.5 11.65,11.5 0,15 -11.65,-11.5 -11.7,11.5 -11.6,-11.5 -11.7,11.5 -11.7,-11.5 -1.45,1.45 -10.15,10.05 -0.05,0 0,-15 m 0,30.2 1.8,-1.8 -0.05,-0.05 9.95,-9.85 11.7,11.5 11.7,-11.5 11.6,11.5 11.7,-11.5 9.9,9.8 -0.05,0.05 1.75,1.75 0,1.4 -70,0 0,-1.3"
       id="path101-4"
       inkscape:connector-curvature="0"
       style="fill:#c99869;stroke:none" />
    <path
       d="m 514.82246,514.52197 -11.65,-11.5 -11.7,11.5 -11.6,-11.5 -11.7,11.5 -11.7,-11.5 -11.65,11.5 0,-5 11.65,-11.5 11.7,11.5 11.7,-11.5 11.6,11.5 11.7,-11.5 11.65,11.5 0,5"
       id="path93-19"
       inkscape:connector-curvature="0"
       style="fill:#bb8044;stroke:none" />
    <path
       d="m 514.82246,509.52197 -11.65,-11.5 -11.7,11.5 -11.6,-11.5 -11.7,11.5 -11.7,-11.5 -11.65,11.5 0,-21.5 70,0 0,21.5"
       id="path95-2"
       inkscape:connector-curvature="0"
       style="fill:#80be1f;stroke:none" />
    <path
       d="m 444.82246,514.52197 11.65,-11.5 11.7,11.5 11.7,-11.5 11.6,11.5 11.7,-11.5 11.65,11.5 0,10 -11.65,-11.5 -11.7,11.5 -11.6,-11.5 -11.7,11.5 -11.7,-11.5 -11.65,11.5 0,-10 m 0,40.2 0,-15.2 0.05,0 10.15,-10.05 1.45,-1.45 11.7,11.5 11.7,-11.5 11.6,11.5 11.7,-11.5 11.65,11.5 0,15.1 -1.75,-1.75 0.05,-0.05 -9.9,-9.8 -11.7,11.5 -11.6,-11.5 -11.7,11.5 -11.7,-11.5 -9.95,9.85 0.05,0.05 -1.8,1.8"
       id="path97-4"
       inkscape:connector-curvature="0"
       style="fill:#c58f5c;stroke:none" />
    <path
       d="m 444.82246,488.02197 0,-2 70,0 0,2 -70,0"
       id="path99-3"
       inkscape:connector-curvature="0"
       style="fill:#93db24;stroke:none" />
    <path
       d="m 444.82246,524.52197 11.65,-11.5 11.7,11.5 11.7,-11.5 11.6,11.5 11.7,-11.5 11.65,11.5 0,15 -11.65,-11.5 -11.7,11.5 -11.6,-11.5 -11.7,11.5 -11.7,-11.5 -1.45,1.45 -10.15,10.05 -0.05,0 0,-15 m 0,30.2 1.8,-1.8 -0.05,-0.05 9.95,-9.85 11.7,11.5 11.7,-11.5 11.6,11.5 11.7,-11.5 9.9,9.8 -0.05,0.05 1.75,1.75 0,1.4 -70,0 0,-1.3"
       id="path101-9"
       inkscape:connector-curvature="0"
       style="fill:#c99869;stroke:none" />
    <path
       d="m 584.52298,514.52197 -11.65,-11.5 -11.7,11.5 -11.6,-11.5 -11.7,11.5 -11.7,-11.5 -11.65,11.5 0,-5 11.65,-11.5 11.7,11.5 11.7,-11.5 11.6,11.5 11.7,-11.5 11.65,11.5 0,5"
       id="path93-6"
       inkscape:connector-curvature="0"
       style="fill:#bb8044;stroke:none" />
    <path
       d="m 584.52298,509.52197 -11.65,-11.5 -11.7,11.5 -11.6,-11.5 -11.7,11.5 -11.7,-11.5 -11.65,11.5 0,-21.5 70,0 0,21.5"
       id="path95-99"
       inkscape:connector-curvature="0"
       style="fill:#80be1f;stroke:none" />
    <path
       d="m 514.52298,514.52197 11.65,-11.5 11.7,11.5 11.7,-11.5 11.6,11.5 11.7,-11.5 11.65,11.5 0,10 -11.65,-11.5 -11.7,11.5 -11.6,-11.5 -11.7,11.5 -11.7,-11.5 -11.65,11.5 0,-10 m 0,40.2 0,-15.2 0.05,0 10.15,-10.05 1.45,-1.45 11.7,11.5 11.7,-11.5 11.6,11.5 11.7,-11.5 11.65,11.5 0,15.1 -1.75,-1.75 0.05,-0.05 -9.9,-9.8 -11.7,11.5 -11.6,-11.5 -11.7,11.5 -11.7,-11.5 -9.95,9.85 0.05,0.05 -1.8,1.8"
       id="path97-1"
       inkscape:connector-curvature="0"
       style="fill:#c58f5c;stroke:none" />
    <path
       d="m 514.52298,488.02197 0,-2 70,0 0,2 -70,0"
       id="path99-7"
       inkscape:connector-curvature="0"
       style="fill:#93db24;stroke:none" />
    <path
       d="m 514.52298,524.52197 11.65,-11.5 11.7,11.5 11.7,-11.5 11.6,11.5 11.7,-11.5 11.65,11.5 0,15 -11.65,-11.5 -11.7,11.5 -11.6,-11.5 -11.7,11.5 -11.7,-11.5 -1.45,1.45 -10.15,10.05 -0.05,0 0,-15 m 0,30.2 1.8,-1.8 -0.05,-0.05 9.95,-9.85 11.7,11.5 11.7,-11.5 11.6,11.5 11.7,-11.5 9.9,9.8 -0.05,0.05 1.75,1.75 0,1.4 -70,0 0,-1.3"
       id="path101-1"
       inkscape:connector-curvature="0"
       style="fill:#c99869;stroke:none" />
    <path
       d="m 654.22351,514.52196 -11.65,-11.5 -11.7,11.5 -11.6,-11.5 -11.7,11.5 -11.7,-11.5 -11.65,11.5 0,-5 11.65,-11.5 11.7,11.5 11.7,-11.5 11.6,11.5 11.7,-11.5 11.65,11.5 0,5"
       id="path93-0"
       inkscape:connector-curvature="0"
       style="fill:#bb8044;stroke:none" />
    <path
       d="m 654.22351,509.52196 -11.65,-11.5 -11.7,11.5 -11.6,-11.5 -11.7,11.5 -11.7,-11.5 -11.65,11.5 0,-21.5 70,0 0,21.5"
       id="path95-56"
       inkscape:connector-curvature="0"
       style="fill:#80be1f;stroke:none" />
    <path
       d="m 584.22351,514.52196 11.65,-11.5 11.7,11.5 11.7,-11.5 11.6,11.5 11.7,-11.5 11.65,11.5 0,10 -11.65,-11.5 -11.7,11.5 -11.6,-11.5 -11.7,11.5 -11.7,-11.5 -11.65,11.5 0,-10 m 0,40.2 0,-15.2 0.05,0 10.15,-10.05 1.45,-1.45 11.7,11.5 11.7,-11.5 11.6,11.5 11.7,-11.5 11.65,11.5 0,15.1 -1.75,-1.75 0.05,-0.05 -9.9,-9.8 -11.7,11.5 -11.6,-11.5 -11.7,11.5 -11.7,-11.5 -9.95,9.85 0.05,0.05 -1.8,1.8"
       id="path97-15"
       inkscape:connector-curvature="0"
       style="fill:#c58f5c;stroke:none" />
    <path
       d="m 584.22351,488.02196 0,-2 70,0 0,2 -70,0"
       id="path99-0"
       inkscape:connector-curvature="0"
       style="fill:#93db24;stroke:none" />
    <path
       d="m 584.22351,524.52196 11.65,-11.5 11.7,11.5 11.7,-11.5 11.6,11.5 11.7,-11.5 11.65,11.5 0,15 -11.65,-11.5 -11.7,11.5 -11.6,-11.5 -11.7,11.5 -11.7,-11.5 -1.45,1.45 -10.15,10.05 -0.05,0 0,-15 m 0,30.2 1.8,-1.8 -0.05,-0.05 9.95,-9.85 11.7,11.5 11.7,-11.5 11.6,11.5 11.7,-11.5 9.9,9.8 -0.05,0.05 1.75,1.75 0,1.4 -70,0 0,-1.3"
       id="path101-48"
       inkscape:connector-curvature="0"
       style="fill:#c99869;stroke:none" />
    <path
       d="m 653.41896,488.02197 0,-2 60.35,0 q 9.65,0 9.65,9.65 l 0,1.5 q -0.25,-9.15 -9.65,-9.15 l -60.35,0"
       id="path107"
       inkscape:connector-curvature="0"
       style="fill:#93db24;stroke:none" />
    <path
       d="m 723.41896,509.52197 -3.25,1.8 -8.4,-8.3 -11.7,11.5 -11.6,-11.5 -11.7,11.5 -11.7,-11.5 -11.65,11.5 0,-5 11.65,-11.5 11.7,11.5 11.7,-11.5 11.6,11.5 11.7,-11.5 11.65,11.5"
       id="path109"
       inkscape:connector-curvature="0"
       style="fill:#bb8044;stroke:none" />
    <path
       d="m 720.16896,511.32197 -6.25,3.8 -2.15,-2.1 -11.7,11.5 -11.6,-11.5 -11.7,11.5 -11.7,-11.5 -11.65,11.5 0,-10 11.65,-11.5 11.7,11.5 11.7,-11.5 11.6,11.5 11.7,-11.5 8.4,8.3 m -27.2,21.2 q -8.65,9.3 -14.45,20.35 l -1.7,1.65 -11.7,-11.5 -9.95,9.85 0.05,0.05 -1.8,1.8 0,-15.2 0.05,0 10.15,-10.05 1.45,-1.45 11.7,11.5 11.7,-11.5 4.5,4.5"
       id="path111"
       inkscape:connector-curvature="0"
       style="fill:#c58f5c;stroke:none" />
    <path
       d="m 723.41896,497.17197 0,12.35 -11.65,-11.5 -11.7,11.5 -11.6,-11.5 -11.7,11.5 -11.7,-11.5 -11.65,11.5 0,-21.5 60.35,0 q 9.4,0 9.65,9.15"
       id="path113"
       inkscape:connector-curvature="0"
       style="fill:#80be1f;stroke:none" />
    <path
       d="m 713.91896,515.12197 q -12,7.75 -20.95,17.4 l -4.5,-4.5 -11.7,11.5 -11.7,-11.5 -1.45,1.45 -10.15,10.05 -0.05,0 0,-15 11.65,-11.5 11.7,11.5 11.7,-11.5 11.6,11.5 11.7,-11.5 2.15,2.1 m -35.4,37.75 -1.6,3.15 -23.5,0 0,-1.3 1.8,-1.8 -0.05,-0.05 9.95,-9.85 11.7,11.5 1.7,-1.65"
       id="path115"
       inkscape:connector-curvature="0"
       style="fill:#c99869;stroke:none" />
  </g>
  <g
     inkscape:groupmode="layer"
     id="layer5"
     inkscape:label="stuff-behind-fence"
     transform="translate(-99.285714,-425.63887)">
    <path
       d="m 168.95675,481.1073 q -1.60025,-0.42146 -1.84818,-0.96934 l -0.0451,-0.21073 0,-0.0211 q 0.0225,-0.90612 0.40569,-1.70688 l 0.20285,-0.0211 0.22539,0.0211 q 0.63108,0.0632 1.05932,0.4636 0.54093,0.50574 0.54093,1.22221 0,0.71647 -0.54093,1.20114 l 0,0.0211 m 14.71779,-0.29502 -1.60024,0.44253 -1.01424,0.18965 -0.2254,-0.16858 q -0.51839,-0.48467 -0.51839,-1.159 0,-0.67432 0.51839,-1.15899 0.5184,-0.48467 1.23964,-0.48467 0.72123,0 1.23963,0.48467 0.51838,0.48467 0.51838,1.15899 0,0.37931 -0.15777,0.6954 m -5.79246,-5.14172 q 0.45078,0 0.76632,0.29502 0.33809,0.31608 0.33809,0.73754 0,0.42145 -0.33809,0.71647 -0.31554,0.31609 -0.76632,0.31609 -0.45077,0 -0.78884,-0.31609 -0.31555,-0.29502 -0.31555,-0.71647 0,-0.42146 0.31555,-0.73754 0.33807,-0.29502 0.78884,-0.29502 m -6.80669,2.97124 q 0,-0.67433 0.51839,-1.15899 0.51839,-0.48468 1.23964,-0.48468 0.72123,0 1.23963,0.48468 0.51838,0.48466 0.51838,1.15899 0,0.67432 -0.51838,1.15899 -0.5184,0.48468 -1.23963,0.48468 -0.72125,0 -1.23964,-0.48468 -0.51839,-0.48467 -0.51839,-1.15899"
       id="path447"
       inkscape:connector-curvature="0"
       style="fill:#fca66c;stroke:none" />
    <path
       d="m 171.07539,478.6418 q 0,0.67432 0.51839,1.15899 0.51839,0.48468 1.23963,0.48468 0.72124,0 1.23964,-0.48468 0.51838,-0.48467 0.51838,-1.15899 0,-0.67433 -0.51838,-1.15899 -0.5184,-0.48468 -1.23964,-0.48468 -0.72124,0 -1.23963,0.48468 -0.51839,0.48466 -0.51839,1.15899 m 13.52324,1.49616 q -0.15777,0.35823 -0.92409,0.67432 0.15777,-0.31609 0.15777,-0.6954 0,-0.67432 -0.51838,-1.15899 -0.5184,-0.48467 -1.23964,-0.48467 -0.72123,0 -1.23963,0.48467 -0.51839,0.48467 -0.51839,1.15899 0,0.67433 0.51839,1.159 l 0.2254,0.16858 -2.45673,0.27394 -2.74973,0.0843 -2.74972,-0.0843 -3.47097,-0.46359 -0.67616,-0.14751 0,-0.0211 q 0.54093,-0.48467 0.54093,-1.20114 0,-0.71647 -0.54093,-1.22221 -0.42824,-0.40038 -1.05932,-0.4636 0.63108,-0.88505 1.73548,-1.64367 2.59196,-1.72795 6.22069,-1.72795 3.65128,0 6.22069,1.72795 2.23134,1.51723 2.52434,3.58235 m -6.71655,-4.4674 q -0.45077,0 -0.78884,0.29502 -0.31555,0.31609 -0.31555,0.73754 0,0.42145 0.31555,0.71647 0.33807,0.31609 0.78884,0.31609 0.45078,0 0.76632,-0.31609 0.33808,-0.29502 0.33808,-0.71647 0,-0.42145 -0.33808,-0.73754 -0.31554,-0.29502 -0.76632,-0.29502"
       id="path449"
       inkscape:connector-curvature="0"
       style="fill:#e86a17;stroke:none" />
    <path
       d="m 167.46919,478.19927 q 0.60855,-1.32757 2.16372,-2.3812 2.59196,-1.72795 6.22069,-1.72795 3.65128,0 6.22069,1.72795 2.5018,1.70688 2.56942,4.08809 l 0,0.021 -0.0451,0.21073 q -0.293,-2.06512 -2.52433,-3.58234 -2.56942,-1.72796 -6.22069,-1.72796 -3.62874,0 -6.2207,1.72796 -1.1044,0.75861 -1.73548,1.64366 l -0.22538,-0.0211 -0.20286,0.0211"
       id="path451"
       inkscape:connector-curvature="0"
       style="fill:#ef975c;stroke:none" />
    <path
       d="m 178.60333,481.7184 0,1.07471 -2.74973,0.0843 -2.74972,-0.0843 0,-1.07471 2.74972,0.0843 2.74973,-0.0843"
       id="path453"
       inkscape:connector-curvature="0"
       style="fill:#e1d7bf;stroke:none" />
    <path
       d="m 178.60333,482.79311 0,3.94058 -5.49945,0 0,-3.94058 2.74972,0.0843 2.74973,-0.0843"
       id="path455"
       inkscape:connector-curvature="0"
       style="fill:#efebdc;stroke:none" />
    <path
       d="m 164.34973,484.04434 q -0.9899,-0.2619 -1.14327,-0.60238 l -0.0279,-0.13095 0,-0.0131 q 0.014,-0.56309 0.25096,-1.06072 l 0.12548,-0.0131 0.13943,0.0131 q 0.39038,0.0393 0.65528,0.2881 0.33462,0.31429 0.33462,0.75953 0,0.44523 -0.33462,0.74642 l 0,0.0131 m 9.10433,-0.18333 -0.9899,0.275 -0.62741,0.11785 -0.13942,-0.10476 q -0.32067,-0.30119 -0.32067,-0.72024 0,-0.41904 0.32067,-0.72024 0.32067,-0.30118 0.76683,-0.30118 0.44615,0 0.76682,0.30118 0.32068,0.3012 0.32068,0.72024 0,0.23572 -0.0976,0.43215 m -3.58317,-3.19524 q 0.27884,0 0.47404,0.18333 0.20913,0.19643 0.20913,0.45834 0,0.2619 -0.20913,0.44524 -0.1952,0.19642 -0.47404,0.19642 -0.27885,0 -0.48798,-0.19642 -0.1952,-0.18334 -0.1952,-0.44524 0,-0.26191 0.1952,-0.45834 0.20913,-0.18333 0.48798,-0.18333 m -4.21058,1.84643 q 0,-0.41905 0.32067,-0.72024 0.32068,-0.30119 0.76683,-0.30119 0.44615,0 0.76683,0.30119 0.32067,0.30119 0.32067,0.72024 0,0.41905 -0.32067,0.72024 -0.32068,0.30118 -0.76683,0.30118 -0.44615,0 -0.76683,-0.30118 -0.32067,-0.30119 -0.32067,-0.72024"
       id="path447-8"
       inkscape:connector-curvature="0"
       style="fill:#fca66c;stroke:none" />
    <path
       d="m 165.66031,482.5122 q 0,0.41905 0.32067,0.72024 0.32068,0.30118 0.76683,0.30118 0.44615,0 0.76683,-0.30118 0.32067,-0.30119 0.32067,-0.72024 0,-0.41905 -0.32067,-0.72024 -0.32068,-0.30119 -0.76683,-0.30119 -0.44615,0 -0.76683,0.30119 -0.32067,0.30119 -0.32067,0.72024 m 8.36539,0.92976 q -0.0976,0.22262 -0.57164,0.41905 0.0976,-0.19643 0.0976,-0.43215 0,-0.41904 -0.32068,-0.72024 -0.32067,-0.30118 -0.76682,-0.30118 -0.44616,0 -0.76683,0.30118 -0.32067,0.3012 -0.32067,0.72024 0,0.41905 0.32067,0.72024 l 0.13942,0.10476 -1.51971,0.17024 -1.70096,0.0524 -1.70096,-0.0524 -2.14712,-0.28809 -0.41827,-0.0917 0,-0.0131 q 0.33462,-0.30119 0.33462,-0.74642 0,-0.44524 -0.33462,-0.75953 -0.2649,-0.24881 -0.65528,-0.2881 0.39038,-0.55 1.07355,-1.02142 1.60337,-1.07382 3.84808,-1.07382 2.25865,0 3.84808,1.07382 1.38029,0.94285 1.56154,2.22618 m -4.15481,-2.77618 q -0.27885,0 -0.48798,0.18333 -0.1952,0.19643 -0.1952,0.45833 0,0.26191 0.1952,0.44524 0.20913,0.19643 0.48798,0.19643 0.27884,0 0.47404,-0.19643 0.20913,-0.18333 0.20913,-0.44524 0,-0.2619 -0.20913,-0.45833 -0.1952,-0.18333 -0.47404,-0.18333"
       id="path449-4"
       inkscape:connector-curvature="0"
       style="fill:#e86a17;stroke:none" />
    <path
       d="m 163.42954,482.2372 q 0.37644,-0.825 1.33846,-1.47976 1.60337,-1.07382 3.84808,-1.07382 2.25865,0 3.84808,1.07382 1.54759,1.06071 1.58942,2.54047 l 0,0.0131 -0.0279,0.13095 q -0.18125,-1.28333 -1.56154,-2.22619 -1.58943,-1.07381 -3.84808,-1.07381 -2.24471,0 -3.84808,1.07381 -0.68317,0.47143 -1.07355,1.02143 l -0.13943,-0.0131 -0.12548,0.0131"
       id="path451-9"
       inkscape:connector-curvature="0"
       style="fill:#ef975c;stroke:none" />
    <path
       d="m 170.31704,484.4241 0,0.66786 -1.70096,0.0524 -1.70096,-0.0524 0,-0.66786 1.70096,0.0524 1.70096,-0.0524"
       id="path453-9"
       inkscape:connector-curvature="0"
       style="fill:#e1d7bf;stroke:none" />
    <path
       d="m 170.31704,485.09196 0,2.44881 -3.40192,0 0,-2.44881 1.70096,0.0524 1.70096,-0.0524"
       id="path455-5"
       inkscape:connector-curvature="0"
       style="fill:#efebdc;stroke:none" />
  </g>
  <g
     inkscape:groupmode="layer"
     id="layer3"
     inkscape:label="fence"
     transform="translate(-99.285714,-425.63887)"
     style="display:none">
    <path
       d="m 217.62823,434.27226 q -0.05,-2.5 -1.8,-4.25 -1.75,-1.8 -4.3,-1.8 -2.55,0 -4.35,1.8 -1.7,1.75 -1.75,4.2 l 0,-1.85 q 0,-2.55 1.75,-4.35 1.8,-1.8 4.35,-1.8 2.55,0 4.3,1.8 1.8,1.8 1.8,4.35 l 0,1.9 m -12.2,3.95 0,2 -2.5,0 -40.6,0 -2.5,0 0,-2 45.6,0 m 0,17 0,2 -2.5,0 -40.6,0 -2.5,0 0,-2 45.6,0 m -57.8,-21 0,-1.85 q 0,-2.55 1.75,-4.35 1.8,-1.8 4.35,-1.8 2.55,0 4.3,1.8 1.8,1.8 1.8,4.35 l 0,1.9 q -0.05,-2.5 -1.8,-4.25 -1.75,-1.8 -4.3,-1.8 -2.55,0 -4.35,1.8 -1.7,1.75 -1.75,4.2"
       id="path319"
       inkscape:connector-curvature="0"
       style="fill:#d3ad89;stroke:none" />
    <path
       d="m 147.62823,434.22226 q 0.05,-2.45 1.75,-4.2 1.8,-1.8 4.35,-1.8 2.55,0 4.3,1.8 1.75,1.75 1.8,4.25 l 0,3.95 0,2 0,12.1 0,2.9 0,2 0,12.1 0,17.9 -12.2,0 0,-53 m 57.8,0 q 0.05,-2.45 1.75,-4.2 1.8,-1.8 4.35,-1.8 2.55,0 4.3,1.8 1.75,1.75 1.8,4.25 l 0,52.95 -12.2,0 0,-17.9 0,-12.1 0,-2 0,-2.9 0,-12.1 0,-2 0,-4"
       id="path321"
       inkscape:connector-curvature="0"
       style="fill:#c99869;stroke:none" />
    <path
       d="m 205.42823,440.22226 0,12.1 -2.5,0 0,-12.1 2.5,0 m 0,17 0,12.1 -2.5,0 0,-12.1 2.5,0 m -43.1,12.1 -2.5,0 0,-12.1 2.5,0 0,12.1 m -2.5,-29.1 2.5,0 0,12.1 -2.5,0 0,-12.1"
       id="path323"
       inkscape:connector-curvature="0"
       style="fill:#b98046;stroke:none" />
    <path
       d="m 202.92823,440.22226 0,12.1 -40.6,0 0,-12.1 40.6,0 m 0,17 0,12.1 -40.6,0 0,-12.1 40.6,0"
       id="path325"
       inkscape:connector-curvature="0"
       style="fill:#c18c57;stroke:none" />
    <path
       d="m 275.712,434.01973 q -0.05,-2.5 -1.8,-4.25 -1.75,-1.8 -4.3,-1.8 -2.55,0 -4.35,1.8 -1.7,1.75 -1.75,4.2 l 0,-1.85 q 0,-2.55 1.75,-4.35 1.8,-1.8 4.35,-1.8 2.55,0 4.3,1.8 1.8,1.8 1.8,4.35 l 0,1.9 m -12.2,3.95 0,2 -2.5,0 -40.6,0 -2.5,0 0,-2 45.6,0 m 0,17 0,2 -2.5,0 -40.6,0 -2.5,0 0,-2 45.6,0 m -57.8,-21 0,-1.85 q 0,-2.55 1.75,-4.35 1.8,-1.8 4.35,-1.8 2.55,0 4.3,1.8 1.8,1.8 1.8,4.35 l 0,1.9 q -0.05,-2.5 -1.8,-4.25 -1.75,-1.8 -4.3,-1.8 -2.55,0 -4.35,1.8 -1.7,1.75 -1.75,4.2"
       id="path319-3"
       inkscape:connector-curvature="0"
       style="fill:#d3ad89;stroke:none" />
    <path
       d="m 205.712,433.96973 q 0.05,-2.45 1.75,-4.2 1.8,-1.8 4.35,-1.8 2.55,0 4.3,1.8 1.75,1.75 1.8,4.25 l 0,3.95 0,2 0,12.1 0,2.9 0,2 0,12.1 0,17.9 -12.2,0 0,-53 m 57.8,0 q 0.05,-2.45 1.75,-4.2 1.8,-1.8 4.35,-1.8 2.55,0 4.3,1.8 1.75,1.75 1.8,4.25 l 0,52.95 -12.2,0 0,-17.9 0,-12.1 0,-2 0,-2.9 0,-12.1 0,-2 0,-4"
       id="path321-1"
       inkscape:connector-curvature="0"
       style="fill:#c99869;stroke:none" />
    <path
       d="m 263.512,439.96973 0,12.1 -2.5,0 0,-12.1 2.5,0 m 0,17 0,12.1 -2.5,0 0,-12.1 2.5,0 m -43.1,12.1 -2.5,0 0,-12.1 2.5,0 0,12.1 m -2.5,-29.1 2.5,0 0,12.1 -2.5,0 0,-12.1"
       id="path323-2"
       inkscape:connector-curvature="0"
       style="fill:#b98046;stroke:none" />
    <path
       d="m 261.012,439.96973 0,12.1 -40.6,0 0,-12.1 40.6,0 m 0,17 0,12.1 -40.6,0 0,-12.1 40.6,0"
       id="path325-8"
       inkscape:connector-curvature="0"
       style="fill:#c18c57;stroke:none" />
    <path
       d="m 334.55339,433.76719 q -0.05,-2.5 -1.8,-4.25 -1.75,-1.8 -4.3,-1.8 -2.55,0 -4.35,1.8 -1.7,1.75 -1.75,4.2 l 0,-1.85 q 0,-2.55 1.75,-4.35 1.8,-1.8 4.35,-1.8 2.55,0 4.3,1.8 1.8,1.8 1.8,4.35 l 0,1.9 m -12.2,3.95 0,2 -2.5,0 -40.6,0 -2.5,0 0,-2 45.6,0 m 0,17 0,2 -2.5,0 -40.6,0 -2.5,0 0,-2 45.6,0 m -57.8,-21 0,-1.85 q 0,-2.55 1.75,-4.35 1.8,-1.8 4.35,-1.8 2.55,0 4.3,1.8 1.8,1.8 1.8,4.35 l 0,1.9 q -0.05,-2.5 -1.8,-4.25 -1.75,-1.8 -4.3,-1.8 -2.55,0 -4.35,1.8 -1.7,1.75 -1.75,4.2"
       id="path319-5"
       inkscape:connector-curvature="0"
       style="fill:#d3ad89;stroke:none" />
    <path
       d="m 264.55339,433.71719 q 0.05,-2.45 1.75,-4.2 1.8,-1.8 4.35,-1.8 2.55,0 4.3,1.8 1.75,1.75 1.8,4.25 l 0,3.95 0,2 0,12.1 0,2.9 0,2 0,12.1 0,17.9 -12.2,0 0,-53 m 57.8,0 q 0.05,-2.45 1.75,-4.2 1.8,-1.8 4.35,-1.8 2.55,0 4.3,1.8 1.75,1.75 1.8,4.25 l 0,52.95 -12.2,0 0,-17.9 0,-12.1 0,-2 0,-2.9 0,-12.1 0,-2 0,-4"
       id="path321-12"
       inkscape:connector-curvature="0"
       style="fill:#c99869;stroke:none" />
    <path
       d="m 322.35339,439.71719 0,12.1 -2.5,0 0,-12.1 2.5,0 m 0,17 0,12.1 -2.5,0 0,-12.1 2.5,0 m -43.1,12.1 -2.5,0 0,-12.1 2.5,0 0,12.1 m -2.5,-29.1 2.5,0 0,12.1 -2.5,0 0,-12.1"
       id="path323-3"
       inkscape:connector-curvature="0"
       style="fill:#b98046;stroke:none" />
    <path
       d="m 319.85339,439.71719 0,12.1 -40.6,0 0,-12.1 40.6,0 m 0,17 0,12.1 -40.6,0 0,-12.1 40.6,0"
       id="path325-0"
       inkscape:connector-curvature="0"
       style="fill:#c18c57;stroke:none" />
    <path
       d="m 393.39477,433.76719 q -0.05,-2.5 -1.8,-4.25 -1.75,-1.8 -4.3,-1.8 -2.55,0 -4.35,1.8 -1.7,1.75 -1.75,4.2 l 0,-1.85 q 0,-2.55 1.75,-4.35 1.8,-1.8 4.35,-1.8 2.55,0 4.3,1.8 1.8,1.8 1.8,4.35 l 0,1.9 m -12.2,3.95 0,2 -2.5,0 -40.6,0 -2.5,0 0,-2 45.6,0 m 0,17 0,2 -2.5,0 -40.6,0 -2.5,0 0,-2 45.6,0 m -57.8,-21 0,-1.85 q 0,-2.55 1.75,-4.35 1.8,-1.8 4.35,-1.8 2.55,0 4.3,1.8 1.8,1.8 1.8,4.35 l 0,1.9 q -0.05,-2.5 -1.8,-4.25 -1.75,-1.8 -4.3,-1.8 -2.55,0 -4.35,1.8 -1.7,1.75 -1.75,4.2"
       id="path319-55"
       inkscape:connector-curvature="0"
       style="fill:#d3ad89;stroke:none" />
    <path
       d="m 323.39477,433.71719 q 0.05,-2.45 1.75,-4.2 1.8,-1.8 4.35,-1.8 2.55,0 4.3,1.8 1.75,1.75 1.8,4.25 l 0,3.95 0,2 0,12.1 0,2.9 0,2 0,12.1 0,17.9 -12.2,0 0,-53 m 57.8,0 q 0.05,-2.45 1.75,-4.2 1.8,-1.8 4.35,-1.8 2.55,0 4.3,1.8 1.75,1.75 1.8,4.25 l 0,52.95 -12.2,0 0,-17.9 0,-12.1 0,-2 0,-2.9 0,-12.1 0,-2 0,-4"
       id="path321-9"
       inkscape:connector-curvature="0"
       style="fill:#c99869;stroke:none" />
    <path
       d="m 381.19477,439.71719 0,12.1 -2.5,0 0,-12.1 2.5,0 m 0,17 0,12.1 -2.5,0 0,-12.1 2.5,0 m -43.1,12.1 -2.5,0 0,-12.1 2.5,0 0,12.1 m -2.5,-29.1 2.5,0 0,12.1 -2.5,0 0,-12.1"
       id="path323-4"
       inkscape:connector-curvature="0"
       style="fill:#b98046;stroke:none" />
    <path
       d="m 378.69477,439.71719 0,12.1 -40.6,0 0,-12.1 40.6,0 m 0,17 0,12.1 -40.6,0 0,-12.1 40.6,0"
       id="path325-1"
       inkscape:connector-curvature="0"
       style="fill:#c18c57;stroke:none" />
    <path
       d="m 451.07372,433.68887 q -0.05,-2.5 -1.8,-4.25 -1.75,-1.8 -4.3,-1.8 -2.55,0 -4.35,1.8 -1.7,1.75 -1.75,4.2 l 0,-1.85 q 0,-2.55 1.75,-4.35 1.8,-1.8 4.35,-1.8 2.55,0 4.3,1.8 1.8,1.8 1.8,4.35 l 0,1.9 m -12.2,3.95 0,2 -2.5,0 -40.6,0 -2.5,0 0,-2 45.6,0 m 0,17 0,2 -2.5,0 -40.6,0 -2.5,0 0,-2 45.6,0 m -57.8,-21 0,-1.85 q 0,-2.55 1.75,-4.35 1.8,-1.8 4.35,-1.8 2.55,0 4.3,1.8 1.8,1.8 1.8,4.35 l 0,1.9 q -0.05,-2.5 -1.8,-4.25 -1.75,-1.8 -4.3,-1.8 -2.55,0 -4.35,1.8 -1.7,1.75 -1.75,4.2"
       id="path319-32"
       inkscape:connector-curvature="0"
       style="fill:#d3ad89;stroke:none" />
    <path
       d="m 381.07372,433.63887 q 0.05,-2.45 1.75,-4.2 1.8,-1.8 4.35,-1.8 2.55,0 4.3,1.8 1.75,1.75 1.8,4.25 l 0,3.95 0,2 0,12.1 0,2.9 0,2 0,12.1 0,17.9 -12.2,0 0,-53 m 57.8,0 q 0.05,-2.45 1.75,-4.2 1.8,-1.8 4.35,-1.8 2.55,0 4.3,1.8 1.75,1.75 1.8,4.25 l 0,52.95 -12.2,0 0,-17.9 0,-12.1 0,-2 0,-2.9 0,-12.1 0,-2 0,-4"
       id="path321-6"
       inkscape:connector-curvature="0"
       style="fill:#c99869;stroke:none" />
    <path
       d="m 438.87372,439.63887 0,12.1 -2.5,0 0,-12.1 2.5,0 m 0,17 0,12.1 -2.5,0 0,-12.1 2.5,0 m -43.1,12.1 -2.5,0 0,-12.1 2.5,0 0,12.1 m -2.5,-29.1 2.5,0 0,12.1 -2.5,0 0,-12.1"
       id="path323-6"
       inkscape:connector-curvature="0"
       style="fill:#b98046;stroke:none" />
    <path
       d="m 436.37372,439.63887 0,12.1 -40.6,0 0,-12.1 40.6,0 m 0,17 0,12.1 -40.6,0 0,-12.1 40.6,0"
       id="path325-87"
       inkscape:connector-curvature="0"
       style="fill:#c18c57;stroke:none" />
    <path
       d="m 438.78393,433.67909 0,-1.85 q 0,-2.55 1.75,-4.35 1.8,-1.8 4.35,-1.8 2.55,0 4.3,1.8 1.8,1.8 1.8,4.35 l 0,1.9 q -0.05,-2.5 -1.8,-4.25 -1.75,-1.8 -4.3,-1.8 -2.55,0 -4.35,1.8 -1.7,1.75 -1.75,4.2 m 12.2,4 45.6,0 0,2 -2.5,0 -40.6,0 -2.5,0 0,-2 m 45.6,-4 0,-1.85 q 0,-2.55 1.75,-4.35 1.8,-1.8 4.35,-1.8 2.55,0 4.3,1.8 1.8,1.8 1.8,4.35 l 0,1.9 q -0.05,-2.5 -1.8,-4.25 -1.75,-1.8 -4.3,-1.8 -2.55,0 -4.35,1.8 -1.7,1.75 -1.75,4.2 m -45.6,19.65 19.05,11 1.95,4.6 -0.8,0.1 -1.15,-2.7 -16.55,-9.55 -2.5,-1.45 0,-2"
       id="path327"
       inkscape:connector-curvature="0"
       style="fill:#d3ad89;stroke:none" />
    <path
       d="m 450.98393,453.32909 0,2 0,12 0,19.35 -12.2,0 0,-53 q 0.05,-2.45 1.75,-4.2 1.8,-1.8 4.35,-1.8 2.55,0 4.3,1.8 1.75,1.75 1.8,4.25 l 0,3.95 0,2 0,12.1 0,1.55 m 45.6,-15.65 0,-4 q 0.05,-2.45 1.75,-4.2 1.8,-1.8 4.35,-1.8 2.55,0 4.3,1.8 1.75,1.75 1.8,4.25 l 0,52.95 -12.2,0 0,-34.9 0,-12.1 0,-2"
       id="path329"
       inkscape:connector-curvature="0"
       style="fill:#c99869;stroke:none" />
    <path
       d="m 496.58393,451.77909 -2.5,0 0,-12.1 2.5,0 0,12.1 m -43.1,0 -2.5,0 0,-12.1 2.5,0 0,12.1 m 0,17 -2.5,-1.45 0,-12 2.5,1.45 0,12"
       id="path331"
       inkscape:connector-curvature="0"
       style="fill:#b98046;stroke:none" />
    <path
       d="m 453.48393,468.77909 0,-12 16.55,9.55 1.15,2.7 -4.2,0.55 1.95,4.6 -4.95,0.65 -10.5,-6.05 m 40.6,-17 -40.6,0 0,-12.1 40.6,0 0,12.1"
       id="path333"
       inkscape:connector-curvature="0"
       style="fill:#c18c57;stroke:none" />
    <path
       d="m 566.88848,434.01973 q -0.05,-2.5 -1.8,-4.25 -1.75,-1.8 -4.3,-1.8 -2.55,0 -4.35,1.8 -1.7,1.75 -1.75,4.2 l 0,-1.85 q 0,-2.55 1.75,-4.35 1.8,-1.8 4.35,-1.8 2.55,0 4.3,1.8 1.8,1.8 1.8,4.35 l 0,1.9 m -12.2,3.95 0,2 -2.5,0 -40.6,0 -2.5,0 0,-2 45.6,0 m 0,17 0,2 -2.5,0 -40.6,0 -2.5,0 0,-2 45.6,0 m -57.8,-21 0,-1.85 q 0,-2.55 1.75,-4.35 1.8,-1.8 4.35,-1.8 2.55,0 4.3,1.8 1.8,1.8 1.8,4.35 l 0,1.9 q -0.05,-2.5 -1.8,-4.25 -1.75,-1.8 -4.3,-1.8 -2.55,0 -4.35,1.8 -1.7,1.75 -1.75,4.2"
       id="path319-6"
       inkscape:connector-curvature="0"
       style="fill:#d3ad89;stroke:none" />
    <path
       d="m 496.88848,433.96973 q 0.05,-2.45 1.75,-4.2 1.8,-1.8 4.35,-1.8 2.55,0 4.3,1.8 1.75,1.75 1.8,4.25 l 0,3.95 0,2 0,12.1 0,2.9 0,2 0,12.1 0,17.9 -12.2,0 0,-53 m 57.8,0 q 0.05,-2.45 1.75,-4.2 1.8,-1.8 4.35,-1.8 2.55,0 4.3,1.8 1.75,1.75 1.8,4.25 l 0,52.95 -12.2,0 0,-17.9 0,-12.1 0,-2 0,-2.9 0,-12.1 0,-2 0,-4"
       id="path321-8"
       inkscape:connector-curvature="0"
       style="fill:#c99869;stroke:none" />
    <path
       d="m 554.68848,439.96973 0,12.1 -2.5,0 0,-12.1 2.5,0 m 0,17 0,12.1 -2.5,0 0,-12.1 2.5,0 m -43.1,12.1 -2.5,0 0,-12.1 2.5,0 0,12.1 m -2.5,-29.1 2.5,0 0,12.1 -2.5,0 0,-12.1"
       id="path323-0"
       inkscape:connector-curvature="0"
       style="fill:#b98046;stroke:none" />
    <path
       d="m 552.18848,439.96973 0,12.1 -40.6,0 0,-12.1 40.6,0 m 0,17 0,12.1 -40.6,0 0,-12.1 40.6,0"
       id="path325-4"
       inkscape:connector-curvature="0"
       style="fill:#c18c57;stroke:none" />
    <path
       d="m 625.22479,434.01973 q -0.05,-2.5 -1.8,-4.25 -1.75,-1.8 -4.3,-1.8 -2.55,0 -4.35,1.8 -1.7,1.75 -1.75,4.2 l 0,-1.85 q 0,-2.55 1.75,-4.35 1.8,-1.8 4.35,-1.8 2.55,0 4.3,1.8 1.8,1.8 1.8,4.35 l 0,1.9 m -12.2,3.95 0,2 -2.5,0 -40.6,0 -2.5,0 0,-2 45.6,0 m 0,17 0,2 -2.5,0 -40.6,0 -2.5,0 0,-2 45.6,0 m -57.8,-21 0,-1.85 q 0,-2.55 1.75,-4.35 1.8,-1.8 4.35,-1.8 2.55,0 4.3,1.8 1.8,1.8 1.8,4.35 l 0,1.9 q -0.05,-2.5 -1.8,-4.25 -1.75,-1.8 -4.3,-1.8 -2.55,0 -4.35,1.8 -1.7,1.75 -1.75,4.2"
       id="path319-7"
       inkscape:connector-curvature="0"
       style="fill:#d3ad89;stroke:none" />
    <path
       d="m 555.22479,433.96973 q 0.05,-2.45 1.75,-4.2 1.8,-1.8 4.35,-1.8 2.55,0 4.3,1.8 1.75,1.75 1.8,4.25 l 0,3.95 0,2 0,12.1 0,2.9 0,2 0,12.1 0,17.9 -12.2,0 0,-53 m 57.8,0 q 0.05,-2.45 1.75,-4.2 1.8,-1.8 4.35,-1.8 2.55,0 4.3,1.8 1.75,1.75 1.8,4.25 l 0,52.95 -12.2,0 0,-17.9 0,-12.1 0,-2 0,-2.9 0,-12.1 0,-2 0,-4"
       id="path321-5"
       inkscape:connector-curvature="0"
       style="fill:#c99869;stroke:none" />
    <path
       d="m 613.02479,439.96973 0,12.1 -2.5,0 0,-12.1 2.5,0 m 0,17 0,12.1 -2.5,0 0,-12.1 2.5,0 m -43.1,12.1 -2.5,0 0,-12.1 2.5,0 0,12.1 m -2.5,-29.1 2.5,0 0,12.1 -2.5,0 0,-12.1"
       id="path323-38"
       inkscape:connector-curvature="0"
       style="fill:#b98046;stroke:none" />
    <path
       d="m 610.52479,439.96973 0,12.1 -40.6,0 0,-12.1 40.6,0 m 0,17 0,12.1 -40.6,0 0,-12.1 40.6,0"
       id="path325-3"
       inkscape:connector-curvature="0"
       style="fill:#c18c57;stroke:none" />
    <path
       d="m 683.81363,434.01972 q -0.05,-2.5 -1.8,-4.25 -1.75,-1.8 -4.3,-1.8 -2.55,0 -4.35,1.8 -1.7,1.75 -1.75,4.2 l 0,-1.85 q 0,-2.55 1.75,-4.35 1.8,-1.8 4.35,-1.8 2.55,0 4.3,1.8 1.8,1.8 1.8,4.35 l 0,1.9 m -12.2,3.95 0,2 -2.5,0 -40.6,0 -2.5,0 0,-2 45.6,0 m 0,17 0,2 -2.5,0 -40.6,0 -2.5,0 0,-2 45.6,0 m -57.8,-21 0,-1.85 q 0,-2.55 1.75,-4.35 1.8,-1.8 4.35,-1.8 2.55,0 4.3,1.8 1.8,1.8 1.8,4.35 l 0,1.9 q -0.05,-2.5 -1.8,-4.25 -1.75,-1.8 -4.3,-1.8 -2.55,0 -4.35,1.8 -1.7,1.75 -1.75,4.2"
       id="path319-9"
       inkscape:connector-curvature="0"
       style="fill:#d3ad89;stroke:none" />
    <path
       d="m 613.81363,433.96972 q 0.05,-2.45 1.75,-4.2 1.8,-1.8 4.35,-1.8 2.55,0 4.3,1.8 1.75,1.75 1.8,4.25 l 0,3.95 0,2 0,12.1 0,2.9 0,2 0,12.1 0,17.9 -12.2,0 0,-53 m 57.8,0 q 0.05,-2.45 1.75,-4.2 1.8,-1.8 4.35,-1.8 2.55,0 4.3,1.8 1.75,1.75 1.8,4.25 l 0,52.95 -12.2,0 0,-17.9 0,-12.1 0,-2 0,-2.9 0,-12.1 0,-2 0,-4"
       id="path321-3"
       inkscape:connector-curvature="0"
       style="fill:#c99869;stroke:none" />
    <path
       d="m 671.61363,439.96972 0,12.1 -2.5,0 0,-12.1 2.5,0 m 0,17 0,12.1 -2.5,0 0,-12.1 2.5,0 m -43.1,12.1 -2.5,0 0,-12.1 2.5,0 0,12.1 m -2.5,-29.1 2.5,0 0,12.1 -2.5,0 0,-12.1"
       id="path323-7"
       inkscape:connector-curvature="0"
       style="fill:#b98046;stroke:none" />
    <path
       d="m 669.11363,439.96972 0,12.1 -40.6,0 0,-12.1 40.6,0 m 0,17 0,12.1 -40.6,0 0,-12.1 40.6,0"
       id="path325-85"
       inkscape:connector-curvature="0"
       style="fill:#c18c57;stroke:none" />
  </g>
  <g
     inkscape:groupmode="layer"
     id="layer14"
     inkscape:label="stuff-in-front-of-fence 1"
     style="display:inline">
    <path
       inkscape:connector-curvature="0"
       style="fill:#8dd323;stroke:none"
       d="m 259.75993,61.341132 q 0.7,-4.05 3.7,-7.15 3.9,-3.95 9.4,-3.95 l 2.85,0.3 q 1.45,-3.8 4.5,-6.9 5.65,-5.8 13.7,-5.8 8,0 13.7,5.8 1.4,1.45 2.5,3.05 l 4.15,-0.55 q 6.3,0 10.8,4.55 4.05,4.15 4.45,9.75 l 0.05,-1.2 q 0,-6.45 -4.5,-11.05 -4.5,-4.55 -10.8,-4.55 -2.2,0 -4.15,0.55 -1.1,-1.6 -2.5,-3.05 -5.7,-5.8 -13.7,-5.8 -8.05,0 -13.7,5.8 -3.05,3.1 -4.5,6.9 l -2.85,-0.3 q -5.5,0 -9.4,3.95 -3.9,4 -3.9,9.6 l 0,0.05 0.2,0"
       id="path443-7-3" />
    <path
       inkscape:connector-curvature="0"
       style="fill:#7ab71e;stroke:none"
       d="m 259.40278,60.983989 69.65,0 0.1,-0.9 q -0.4,-5.6 -4.45,-9.75 -4.5,-4.55 -10.8,-4.55 l -4.15,0.55 q -1.1,-1.6 -2.5,-3.05 -5.7,-5.8 -13.7,-5.8 -8.05,0 -13.7,5.8 -3.05,3.1 -4.5,6.9 l -2.85,-0.3 q -5.5,0 -9.4,3.95 -3,3.1 -3.7,7.15"
       id="path445-2-2" />
  </g>
  <g
     inkscape:groupmode="layer"
     id="layer4"
     inkscape:label="stuff-in-front-of-fence"
     transform="translate(-99.285714,-425.63887)">
    <path
       d="m 575.26419,486.9415 -0.69578,0 q -0.62016,-1.98645 -1.61845,-3.41231 l 0.22688,-0.48747 q 1.73946,0.35342 2.91926,1.30399 1.63357,-3.52198 0,-6.25183 l 0.4689,-0.2681 q 2.768,2.54704 2.91926,5.70341 1.14954,-0.79213 2.69237,-0.87744 l 0.30251,0.34123 q -1.36131,1.73052 -1.73946,3.94852 l -0.66553,0 q 0.5294,-2.26674 1.54283,-3.72916 -0.96805,0.15843 -1.73946,0.69465 -0.18151,0.12187 -0.40839,0.10968 -0.24201,0 -0.40839,-0.13406 -0.16639,-0.14623 -0.18151,-0.32904 -0.10588,-2.20581 -1.55795,-4.09476 0.62016,2.3033 -0.6504,5.05752 l -0.25714,0.24374 -0.39327,0.0731 q -0.21176,-0.0244 -0.34789,-0.14624 -0.81678,-0.65808 -1.92096,-0.98713 0.75628,1.2065 1.51257,3.24169"
       id="path1189"
       inkscape:connector-curvature="0"
       style="fill:#8acb25;stroke:none" />
    <path
       d="m 575.26419,486.9415 q -0.75629,-2.03519 -1.51257,-3.24169 1.10418,0.32905 1.92096,0.98713 0.13613,0.12187 0.34789,0.14624 l 0.39327,-0.0731 0.25714,-0.24374 q 1.27056,-2.75422 0.6504,-5.05752 1.45207,1.88895 1.55795,4.09476 0.0152,0.18281 0.18151,0.32904 0.16638,0.13406 0.40839,0.13406 0.22688,0.0122 0.40839,-0.10968 0.77141,-0.53622 1.73946,-0.69465 -1.01343,1.46242 -1.54283,3.72916 l -4.80996,0"
       id="path1191"
       inkscape:connector-curvature="0"
       style="fill:#80be1f;stroke:none" />
    <path
       d="m 571.2702,486.58435 0.95393,0 q 0.85024,-2.53676 2.21893,-4.35763 L 574.132,481.6042 q -2.38483,0.45132 -4.00237,1.66524 -2.23966,-4.49771 0,-7.98381 l -0.64287,-0.34239 q -3.79499,3.25266 -4.00236,7.28348 -1.57606,-1.0116 -3.6913,-1.12054 l -0.41476,0.43576 q 1.86639,2.20995 2.38483,5.04241 l 0.91246,0 q -0.72582,-2.89471 -2.11524,-4.76227 1.32721,0.20232 2.38483,0.88709 0.24885,0.15563 0.55991,0.14006 0.33181,0 0.55992,-0.17119 0.22812,-0.18675 0.24885,-0.4202 0.14517,-2.81689 2.13598,-5.22916 -0.85024,2.94141 0.89172,6.45864 l 0.35254,0.31126 0.53917,0.0934 q 0.29033,-0.0312 0.47698,-0.18676 1.11983,-0.8404 2.63367,-1.26061 -1.03688,1.54074 -2.07376,4.13976"
       id="path1189-8"
       inkscape:connector-curvature="0"
       style="fill:#8acb25;stroke:none" />
    <path
       d="m 571.2702,486.58435 q 1.03688,-2.59902 2.07376,-4.13976 -1.51384,0.42021 -2.63367,1.26061 -0.18665,0.15563 -0.47698,0.18676 l -0.53917,-0.0934 -0.35254,-0.31126 q -1.74196,-3.51723 -0.89172,-6.45864 -1.99081,2.41227 -2.13598,5.22916 -0.0207,0.23345 -0.24885,0.4202 -0.22811,0.17119 -0.55992,0.17119 -0.31106,0.0155 -0.55991,-0.14006 -1.05762,-0.68477 -2.38483,-0.88709 1.38942,1.86756 2.11524,4.76227 l 6.59457,0"
       id="path1191-5"
       inkscape:connector-curvature="0"
       style="fill:#80be1f;stroke:none" />
    <path
       d="m 555.95408,486.58436 -0.4192,0 q -0.37363,-1.38109 -0.97508,-2.37244 l 0.1367,-0.33892 q 1.04798,0.24571 1.75878,0.90661 0.9842,-2.4487 0,-4.34665 l 0.2825,-0.18641 q 1.66766,1.77087 1.75879,3.96537 0.69257,-0.55074 1.62209,-0.61006 l 0.18226,0.23725 q -0.82016,1.20316 -1.04798,2.74525 l -0.40097,0 q 0.31895,-1.57598 0.92951,-2.59274 -0.58322,0.11015 -1.04798,0.48296 -0.10935,0.0848 -0.24605,0.0763 -0.1458,0 -0.24604,-0.0932 -0.10024,-0.10167 -0.10936,-0.22877 -0.0638,-1.53361 -0.93862,-2.84693 0.37362,1.6014 -0.39186,3.5163 l -0.15492,0.16946 -0.23694,0.0508 q -0.12757,-0.017 -0.20959,-0.10168 -0.49209,-0.45754 -1.15733,-0.68631 0.45564,0.83883 0.91129,2.25382"
       id="path1189-3"
       inkscape:connector-curvature="0"
       style="fill:#8acb25;stroke:none" />
    <path
       d="m 555.95408,486.58436 q -0.45565,-1.41499 -0.91129,-2.25382 0.66524,0.22877 1.15733,0.68631 0.082,0.0848 0.20959,0.10168 l 0.23694,-0.0508 0.15492,-0.16945 q 0.76548,-1.91491 0.39186,-3.51631 0.87484,1.31332 0.93862,2.84693 0.009,0.1271 0.10936,0.22877 0.10024,0.0932 0.24604,0.0932 0.1367,0.008 0.24605,-0.0763 0.46476,-0.37281 1.04798,-0.48296 -0.61056,1.01676 -0.92951,2.59274 l -2.89789,0"
       id="path1191-9"
       inkscape:connector-curvature="0"
       style="fill:#80be1f;stroke:none" />
    <path
       inkscape:connector-curvature="0"
       style="fill:#8dd323;stroke:none"
       d="m 341.54564,479.48001 q 0.7,-4.05 3.7,-7.15 3.9,-3.95 9.4,-3.95 l 2.85,0.3 q 1.45,-3.8 4.5,-6.9 5.65,-5.8 13.7,-5.8 8,0 13.7,5.8 1.4,1.45 2.5,3.05 l 4.15,-0.55 q 6.3,0 10.8,4.55 4.05,4.15 4.45,9.75 l 0.05,-1.2 q 0,-6.45 -4.5,-11.05 -4.5,-4.55 -10.8,-4.55 -2.2,0 -4.15,0.55 -1.1,-1.6 -2.5,-3.05 -5.7,-5.8 -13.7,-5.8 -8.05,0 -13.7,5.8 -3.05,3.1 -4.5,6.9 l -2.85,-0.3 q -5.5,0 -9.4,3.95 -3.9,4 -3.9,9.6 l 0,0.05 0.2,0"
       id="path443" />
    <path
       inkscape:connector-curvature="0"
       style="fill:#7ab71e;stroke:none"
       d="m 341.54564,479.48001 69.65,0 0.1,-0.9 q -0.4,-5.6 -4.45,-9.75 -4.5,-4.55 -10.8,-4.55 l -4.15,0.55 q -1.1,-1.6 -2.5,-3.05 -5.7,-5.8 -13.7,-5.8 -8.05,0 -13.7,5.8 -3.05,3.1 -4.5,6.9 l -2.85,-0.3 q -5.5,0 -9.4,3.95 -3,3.1 -3.7,7.15"
       id="path445" />
    <path
       inkscape:connector-curvature="0"
       style="fill:#8dd323;stroke:none"
       d="m 305.83135,486.26571 q 0.7,-4.05 3.7,-7.15 3.9,-3.95 9.4,-3.95 l 2.85,0.3 q 1.45,-3.8 4.5,-6.9 5.65,-5.8 13.7,-5.8 8,0 13.7,5.8 1.4,1.45 2.5,3.05 l 4.15,-0.55 q 6.3,0 10.8,4.55 4.05,4.15 4.45,9.75 l 0.05,-1.2 q 0,-6.45 -4.5,-11.05 -4.5,-4.55 -10.8,-4.55 -2.2,0 -4.15,0.55 -1.1,-1.6 -2.5,-3.05 -5.7,-5.8 -13.7,-5.8 -8.05,0 -13.7,5.8 -3.05,3.1 -4.5,6.9 l -2.85,-0.3 q -5.5,0 -9.4,3.95 -3.9,4 -3.9,9.6 l 0,0.05 0.2,0"
       id="path443-7" />
    <path
       inkscape:connector-curvature="0"
       style="fill:#7ab71e;stroke:none"
       d="m 305.83135,486.26571 69.65,0 0.1,-0.9 q -0.4,-5.6 -4.45,-9.75 -4.5,-4.55 -10.8,-4.55 l -4.15,0.55 q -1.1,-1.6 -2.5,-3.05 -5.7,-5.8 -13.7,-5.8 -8.05,0 -13.7,5.8 -3.05,3.1 -4.5,6.9 l -2.85,-0.3 q -5.5,0 -9.4,3.95 -3,3.1 -3.7,7.15"
       id="path445-2" />
    <path
       inkscape:connector-curvature="0"
       style="fill:#bd8853;stroke:none"
       d="m 563.41409,480.96066 -0.0569,-0.18452 0,-0.0185 q 0.0854,-2.08512 3.2467,-3.57977 3.27519,-1.51308 7.86044,-1.51308 4.61374,0 7.86044,1.51308 3.16127,1.49465 3.24671,3.57977 l 0,0.0185 -0.0569,0.18452 q -0.37024,-1.80832 -3.18975,-3.1369 -3.2467,-1.51309 -7.86044,-1.51309 -4.58525,0 -7.86044,1.51309 -2.81951,1.32858 -3.18974,3.1369"
       id="path1423" />
    <path
       inkscape:connector-curvature="0"
       style="fill:#e1d7bf;stroke:none"
       d="m 577.93881,482.3446 0,0.94106 -3.47454,0.0738 -3.47454,-0.0738 0,-0.94106 3.47454,0.0738 3.47454,-0.0738"
       id="path1425" />
    <path
       inkscape:connector-curvature="0"
       style="fill:#efebdc;stroke:none"
       d="m 577.93881,483.28566 0,3.4506 -6.94908,0 0,-3.4506 3.47454,0.0738 3.47454,-0.0738"
       id="path1427" />
    <path
       inkscape:connector-curvature="0"
       style="fill:#a06d3d;stroke:none"
       d="m 585.51446,480.96066 q -0.37025,0.57204 -3.18975,0.97798 l -4.3859,0.40596 -3.47454,0.0738 -3.47454,-0.0738 -4.3859,-0.40596 q -2.81951,-0.40594 -3.18974,-0.97798 0.37023,-1.80832 3.18974,-3.1369 3.27519,-1.51309 7.86044,-1.51309 4.61374,0 7.86044,1.51309 2.8195,1.32858 3.18975,3.1369"
       id="path1429" />
    <path
       inkscape:connector-curvature="0"
       style="fill:#bccbcb;stroke:none"
       d="m 719.64285,475.22528 -18.14693,-21.48902 -19.54285,5.84207 -2.21021,3.75854 8.53062,3.63598 10.08163,-4.33049 21.28774,12.58292 m -46.18162,-1.02134 -8.10408,2.28781 1.43469,3.8811 10.00409,1.87926 7.13469,-5.35183 -10.46939,-2.69634"
       id="path1221-0" />
    <path
       inkscape:connector-curvature="0"
       style="fill:#acc0c1;stroke:none"
       d="m 673.46123,474.20394 10.46939,2.69634 -7.13469,5.35183 -10.00409,-1.87926 2.55919,6.86341 43.81632,0 6.4755,-12.01098 -21.28774,-12.58292 -10.08163,4.33049 -8.53062,-3.63598 -6.28163,10.86707 m 26.98776,-2.85975 q 1.08571,0 1.86122,0.81707 0.77551,0.81707 0.77551,1.96098 0,1.1439 -0.77551,1.96097 -0.77551,0.81707 -1.86122,0.81707 -1.08572,0 -1.86123,-0.81707 -0.77551,-0.81707 -0.77551,-1.96097 0,-1.14391 0.77551,-1.96098 0.77551,-0.81707 1.86123,-0.81707 m 6.63061,6.08719 q 0,0.65366 -0.42653,1.10305 -0.42653,0.44939 -1.04694,0.44939 -0.62041,0 -1.04694,-0.44939 -0.42653,-0.44939 -0.42653,-1.10305 0,-0.65366 0.42653,-1.10305 0.42653,-0.44939 1.04694,-0.44939 0.62041,0 1.04694,0.44939 0.42653,0.44939 0.42653,1.10305"
       id="path1223-4" />
    <path
       inkscape:connector-curvature="0"
       style="fill:#9eb6b6;stroke:none"
       d="m 707.0796,477.43138 q 0,-0.65366 -0.42653,-1.10305 -0.42653,-0.44939 -1.04694,-0.44939 -0.62041,0 -1.04694,0.44939 -0.42653,0.44939 -0.42653,1.10305 0,0.65366 0.42653,1.10305 0.42653,0.44939 1.04694,0.44939 0.62041,0 1.04694,-0.44939 0.42653,-0.44939 0.42653,-1.10305 m -6.63061,-6.08719 q -1.08572,0 -1.86123,0.81707 -0.77551,0.81707 -0.77551,1.96098 0,1.1439 0.77551,1.96097 0.77551,0.81707 1.86123,0.81707 1.08571,0 1.86122,-0.81707 0.77551,-0.81707 0.77551,-1.96097 0,-1.14391 -0.77551,-1.96098 -0.77551,-0.81707 -1.86122,-0.81707"
       id="path1225-5" />
  </g>
  <g
     inkscape:groupmode="layer"
     id="layer15"
     inkscape:label="boxes">
    <path
       inkscape:connector-curvature="0"
       style="fill:#ae7640;stroke:none"
       d="m 18.293951,40.510653 -0.97143,0 q -1.07551,0 -1.57857,0.56327 -0.46837,0.49285 -0.46837,1.44336 l 0,1.93623 0,0.8977 0,9.55791 0,1.98903 q 0.0347,1.30255 0.97143,1.725 l 0.48572,0.14082 0.50306,0.0528 0.0173,0 0.0347,0 0.0347,0 1.00612,0 0.97143,0 10.68572,0 0.97142,0 1.00613,0 q 0.64183,0 1.07551,-0.19362 0.93673,-0.42245 0.97142,-1.725 l 0,-1.98903 0,-9.55791 0,-0.8977 0,-1.93623 0,-0.12321 0,-0.0176 -0.12142,-0.75689 q -0.20817,-0.59847 -0.74592,-0.8625 l -0.17347,-0.088 q -0.34694,-0.14082 -0.79796,-0.15842 l -0.0867,0 -0.0694,0 -0.0174,0 -0.0347,0 -0.97143,0 -12.69796,0 m -5.79388,0.088 q 0,-0.14081 0.052,-0.22882 0.0347,-0.42245 0.15612,-0.75689 0.62449,-1.91862 3.13979,-1.91862 l 17.5898,0 q 2.98367,0 3.31326,2.69311 l 0.0347,0.21122 0,17.81327 0,0.22882 -0.0173,0.24643 0,0.0352 -0.0174,0.0704 q -0.12143,0.89771 -0.5551,1.51378 l -0.43367,0.45765 -0.24286,0.17602 q -0.62449,0.38725 -1.50919,0.47526 l -0.57244,0.0176 -17.5898,0 q -1.49183,0 -2.32448,-0.66888 l -0.41633,-0.44005 q -0.57244,-0.79209 -0.60714,-2.11224 l 0,-17.81327"
       id="path1155" />
    <path
       inkscape:connector-curvature="0"
       style="fill:#bb844d;stroke:none"
       d="m 12.500071,40.598663 0,-0.21122 0,-0.088 q 0,-0.36965 0.052,-0.68648 l 0.0347,-0.15842 0.0174,-0.15842 0.0173,-0.0352 q 0.48571,-2.27067 3.22653,-2.27067 l 17.5898,0 q 3.34795,0 3.34795,3.3972 l 0,0.21122 -0.0347,-0.21122 q -0.32959,-2.69311 -3.31326,-2.69311 l -17.5898,0 q -2.51531,0 -3.13979,1.91862 -0.12143,0.33444 -0.15613,0.75689 -0.052,0.088 -0.052,0.22882 m 2.77551,3.85485 0,-1.93623 q 0,-0.95051 0.46837,-1.44336 0.50306,-0.56327 1.57857,-0.56327 l 0.97143,0 0.5898,0.52806 0.36428,0.35204 0.0694,0.0528 5.32551,4.89337 5.58571,-5.1222 0.76327,-0.70408 0.97143,0 0.0347,0 0.0174,0 0.0694,0 0.0867,0 q 0.45102,0.0176 0.79796,0.15842 l 0.17347,0.088 0.39898,0.31684 0.34694,0.54566 0.12142,0.75689 0,0.0176 0,0.12321 0,1.93623 -5.70714,5.22781 -3.6602,3.36199 -6.31429,5.77346 -1.00612,0 -0.0347,0 -0.0347,0 -0.0173,0 -0.50306,-0.0528 -0.48572,-0.14082 q -0.93673,-0.42245 -0.97143,-1.725 l 0,-1.98903 5.22143,-4.77015 0.48572,-0.45765 -5.70715,-5.22781 m 18.73469,10.45561 0,1.98903 q -0.0347,1.30255 -0.97142,1.725 -0.43368,0.19362 -1.07551,0.19362 l -1.00613,0 -5.82857,-5.33341 3.66021,-3.34439 5.22142,4.77015"
       id="path1157" />
    <path
       inkscape:connector-curvature="0"
       style="fill:#946538;stroke:none"
       d="m 18.293951,40.510653 12.69796,0 -0.76327,0.70408 -11.15408,0 -0.19081,-0.17602 -0.5898,-0.52806 m 14.84898,0.24643 q 0.53775,0.26403 0.74592,0.8625 l -0.34694,-0.54566 -0.39898,-0.31684 m 0.86734,3.69643 0,0.8977 -5.22142,4.78776 -0.48572,-0.45765 5.70714,-5.22781 m -3.05306,14.36326 -0.97142,0 -5.34286,-4.89336 -5.34286,4.89336 -0.97143,0 6.31429,-5.77346 0.48571,0.44005 5.82857,5.33341 m -15.68163,-13.46556 0,-0.8977 5.70715,5.22781 -0.48572,0.45765 -5.22143,-4.78776"
       id="path1159" />
    <path
       inkscape:connector-curvature="0"
       style="fill:#a06d3d;stroke:none"
       d="m 15.275581,45.351213 5.22143,4.78776 -5.22143,4.77015 0,-9.55791 m 18.73469,0 0,9.55791 -5.22142,-4.77015 5.22142,-4.78776 m -4.02448,13.46556 -10.68572,0 5.34286,-4.89336 5.34286,4.89336 m -10.91123,-17.60204 11.15408,0 -5.58571,5.1222 -5.32551,-4.89337 -0.0694,-0.0528 -0.17347,-0.17602"
       id="path1161" />
    <path
       inkscape:connector-curvature="0"
       style="fill:#b17d49;stroke:none"
       d="m 24.642931,53.043313 3.6602,-3.36199 0.48572,0.45765 -3.66021,3.34439 -0.48571,-0.44005"
       id="path1163" />
    <path
       inkscape:connector-curvature="0"
       style="fill:#ae7640;stroke:none"
       d="m 42.222521,40.510652 -0.971428,0 q -1.07551,0 -1.57857,0.56327 -0.46837,0.49285 -0.46837,1.44336 l 0,1.93623 0,0.8977 0,9.55791 0,1.98903 q 0.0347,1.30255 0.97143,1.725 l 0.48572,0.14082 0.50306,0.0528 0.0173,0 0.0347,0 0.0347,0 1.006118,0 0.97143,0 10.68572,0 0.97142,0 1.00613,0 q 0.64183,0 1.07551,-0.19362 0.93673,-0.42245 0.97142,-1.725 l 0,-1.98903 0,-9.55791 0,-0.8977 0,-1.93623 0,-0.12321 0,-0.0176 -0.12142,-0.75689 q -0.20817,-0.59847 -0.74592,-0.8625 l -0.17347,-0.088 q -0.34694,-0.14082 -0.79796,-0.15842 l -0.0867,0 -0.0694,0 -0.0174,0 -0.0347,0 -0.97143,0 -12.69796,0 m -5.793878,0.088 q 0,-0.14081 0.052,-0.22882 0.0347,-0.42245 0.15612,-0.75689 0.62449,-1.91862 3.13979,-1.91862 l 17.589798,0 q 2.98367,0 3.31326,2.69311 l 0.0347,0.21122 0,17.81327 0,0.22882 -0.0173,0.24643 0,0.0352 -0.0174,0.0704 q -0.12143,0.89771 -0.5551,1.51378 l -0.43367,0.45765 -0.24286,0.17602 q -0.62449,0.38725 -1.50919,0.47526 l -0.57244,0.0176 -17.589798,0 q -1.49183,0 -2.32448,-0.66888 l -0.41633,-0.44005 q -0.57244,-0.79209 -0.60714,-2.11224 l 0,-17.81327"
       id="path1155-4" />
    <path
       inkscape:connector-curvature="0"
       style="fill:#bb844d;stroke:none"
       d="m 36.428643,40.598662 0,-0.21122 0,-0.088 q 0,-0.36965 0.052,-0.68648 l 0.0347,-0.15842 0.0174,-0.15842 0.0173,-0.0352 q 0.48571,-2.27067 3.22653,-2.27067 l 17.589798,0 q 3.34795,0 3.34795,3.3972 l 0,0.21122 -0.0347,-0.21122 q -0.32959,-2.69311 -3.31326,-2.69311 l -17.589798,0 q -2.51531,0 -3.13979,1.91862 -0.12143,0.33444 -0.15613,0.75689 -0.052,0.088 -0.052,0.22882 m 2.77551,3.85485 0,-1.93623 q 0,-0.95051 0.46837,-1.44336 0.50306,-0.56327 1.57857,-0.56327 l 0.971428,0 0.5898,0.52806 0.36428,0.35204 0.0694,0.0528 5.32551,4.89337 5.58571,-5.1222 0.76327,-0.70408 0.97143,0 0.0347,0 0.0174,0 0.0694,0 0.0867,0 q 0.45102,0.0176 0.79796,0.15842 l 0.17347,0.088 0.39898,0.31684 0.34694,0.54566 0.12142,0.75689 0,0.0176 0,0.12321 0,1.93623 -5.70714,5.22781 -3.6602,3.36199 -6.31429,5.77346 -1.006118,0 -0.0347,0 -0.0347,0 -0.0173,0 -0.50306,-0.0528 -0.48572,-0.14082 q -0.93673,-0.42245 -0.97143,-1.725 l 0,-1.98903 5.221428,-4.77015 0.48572,-0.45765 -5.707148,-5.22781 m 18.734688,10.45561 0,1.98903 q -0.0347,1.30255 -0.97142,1.725 -0.43368,0.19362 -1.07551,0.19362 l -1.00613,0 -5.82857,-5.33341 3.66021,-3.34439 5.22142,4.77015"
       id="path1157-2" />
    <path
       inkscape:connector-curvature="0"
       style="fill:#946538;stroke:none"
       d="m 42.222521,40.510652 12.69796,0 -0.76327,0.70408 -11.15408,0 -0.19081,-0.17602 -0.5898,-0.52806 m 14.84898,0.24643 q 0.53775,0.26403 0.74592,0.8625 l -0.34694,-0.54566 -0.39898,-0.31684 m 0.86734,3.69643 0,0.8977 -5.22142,4.78776 -0.48572,-0.45765 5.70714,-5.22781 m -3.05306,14.36326 -0.97142,0 -5.34286,-4.89336 -5.34286,4.89336 -0.97143,0 6.31429,-5.77346 0.48571,0.44005 5.82857,5.33341 m -15.681628,-13.46556 0,-0.8977 5.707148,5.22781 -0.48572,0.45765 -5.221428,-4.78776"
       id="path1159-2" />
    <path
       inkscape:connector-curvature="0"
       style="fill:#a06d3d;stroke:none"
       d="m 39.204153,45.351212 5.221428,4.78776 -5.221428,4.77015 0,-9.55791 m 18.734688,0 0,9.55791 -5.22142,-4.77015 5.22142,-4.78776 m -4.02448,13.46556 -10.68572,0 5.34286,-4.89336 5.34286,4.89336 m -10.91123,-17.60204 11.15408,0 -5.58571,5.1222 -5.32551,-4.89337 -0.0694,-0.0528 -0.17347,-0.17602"
       id="path1161-8" />
    <path
       inkscape:connector-curvature="0"
       style="fill:#b17d49;stroke:none"
       d="m 48.571501,53.043312 3.6602,-3.36199 0.48572,0.45765 -3.66021,3.34439 -0.48571,-0.44005"
       id="path1163-6" />
    <path
       inkscape:connector-curvature="0"
       style="fill:#ae7640;stroke:none"
       d="m 30.838595,16.582081 -0.97143,0 q -1.07551,0 -1.57857,0.56327 -0.46837,0.49285 -0.46837,1.44336 l 0,1.93623 0,0.8977 0,9.55791 0,1.98903 q 0.0347,1.30255 0.97143,1.725 l 0.48572,0.14082 0.50306,0.0528 0.0173,0 0.0347,0 0.0347,0 1.00612,0 0.97143,0 10.685716,0 0.97142,0 1.00613,0 q 0.64183,0 1.07551,-0.19362 0.93673,-0.42245 0.97142,-1.725 l 0,-1.98903 0,-9.55791 0,-0.8977 0,-1.93623 0,-0.12321 0,-0.0176 -0.12142,-0.75689 q -0.20817,-0.59847 -0.74592,-0.8625 l -0.17347,-0.088 q -0.34694,-0.14082 -0.79796,-0.15842 l -0.0867,0 -0.0694,0 -0.0174,0 -0.0347,0 -0.97143,0 -12.697956,0 m -5.79388,0.088 q 0,-0.14081 0.052,-0.22882 0.0347,-0.42245 0.15612,-0.75689 0.62449,-1.91862 3.13979,-1.91862 l 17.589796,0 q 2.98367,0 3.31326,2.69311 l 0.0347,0.21122 0,17.81327 0,0.22882 -0.0173,0.24643 0,0.0352 -0.0174,0.0704 q -0.12143,0.89771 -0.5551,1.51378 l -0.43367,0.45765 -0.24286,0.17602 q -0.62449,0.38725 -1.50919,0.47526 l -0.57244,0.0176 -17.589796,0 q -1.49183,0 -2.32448,-0.66888 l -0.41633,-0.44005 q -0.57244,-0.79209 -0.60714,-2.11224 l 0,-17.81327"
       id="path1155-8" />
    <path
       inkscape:connector-curvature="0"
       style="fill:#bb844d;stroke:none"
       d="m 25.044715,16.670091 0,-0.21122 0,-0.088 q 0,-0.36965 0.052,-0.68648 l 0.0347,-0.15842 0.0174,-0.15842 0.0173,-0.0352 q 0.48571,-2.27067 3.22653,-2.27067 l 17.589796,0 q 3.34795,0 3.34795,3.3972 l 0,0.21122 -0.0347,-0.21122 q -0.32959,-2.69311 -3.31326,-2.69311 l -17.589796,0 q -2.51531,0 -3.13979,1.91862 -0.12143,0.33444 -0.15613,0.75689 -0.052,0.088 -0.052,0.22882 m 2.77551,3.85485 0,-1.93623 q 0,-0.95051 0.46837,-1.44336 0.50306,-0.56327 1.57857,-0.56327 l 0.97143,0 0.5898,0.52806 0.36428,0.35204 0.0694,0.0528 5.32551,4.89337 5.585706,-5.1222 0.76327,-0.70408 0.97143,0 0.0347,0 0.0174,0 0.0694,0 0.0867,0 q 0.45102,0.0176 0.79796,0.15842 l 0.17347,0.088 0.39898,0.31684 0.34694,0.54566 0.12142,0.75689 0,0.0176 0,0.12321 0,1.93623 -5.707136,5.22781 -3.6602,3.36199 -6.31429,5.77346 -1.00612,0 -0.0347,0 -0.0347,0 -0.0173,0 -0.50306,-0.0528 -0.48572,-0.14082 q -0.93673,-0.42245 -0.97143,-1.725 l 0,-1.98903 5.22143,-4.77015 0.48572,-0.45765 -5.70715,-5.22781 m 18.734686,10.45561 0,1.98903 q -0.0347,1.30255 -0.97142,1.725 -0.43368,0.19362 -1.07551,0.19362 l -1.00613,0 -5.828566,-5.33341 3.660206,-3.34439 5.22142,4.77015"
       id="path1157-8" />
    <path
       inkscape:connector-curvature="0"
       style="fill:#946538;stroke:none"
       d="m 30.838595,16.582081 12.697956,0 -0.76327,0.70408 -11.154076,0 -0.19081,-0.17602 -0.5898,-0.52806 m 14.848976,0.24643 q 0.53775,0.26403 0.74592,0.8625 l -0.34694,-0.54566 -0.39898,-0.31684 m 0.86734,3.69643 0,0.8977 -5.22142,4.78776 -0.485716,-0.45765 5.707136,-5.22781 m -3.05306,14.36326 -0.97142,0 -5.342856,-4.89336 -5.34286,4.89336 -0.97143,0 6.31429,-5.77346 0.48571,0.44005 5.828566,5.33341 m -15.681626,-13.46556 0,-0.8977 5.70715,5.22781 -0.48572,0.45765 -5.22143,-4.78776"
       id="path1159-5" />
    <path
       inkscape:connector-curvature="0"
       style="fill:#a06d3d;stroke:none"
       d="m 27.820225,21.422641 5.22143,4.78776 -5.22143,4.77015 0,-9.55791 m 18.734686,0 0,9.55791 -5.22142,-4.77015 5.22142,-4.78776 m -4.02448,13.46556 -10.685716,0 5.34286,-4.89336 5.342856,4.89336 m -10.911226,-17.60204 11.154076,0 -5.585706,5.1222 -5.32551,-4.89337 -0.0694,-0.0528 -0.17347,-0.17602"
       id="path1161-0" />
    <path
       inkscape:connector-curvature="0"
       style="fill:#b17d49;stroke:none"
       d="m 37.187575,29.114741 3.6602,-3.36199 0.485716,0.45765 -3.660206,3.34439 -0.48571,-0.44005"
       id="path1163-61" />
    <path
       inkscape:connector-curvature="0"
       style="fill:#ae7640;stroke:none"
       d="m 433.6511,39.796367 -0.97143,0 q -1.07551,0 -1.57857,0.56327 -0.46837,0.49285 -0.46837,1.44336 l 0,1.93623 0,0.8977 0,9.55791 0,1.98903 q 0.0347,1.30255 0.97143,1.725 l 0.48572,0.14082 0.50306,0.0528 0.0173,0 0.0347,0 0.0347,0 1.00612,0 0.97143,0 10.68572,0 0.97142,0 1.00613,0 q 0.64183,0 1.07551,-0.19362 0.93673,-0.42245 0.97142,-1.725 l 0,-1.98903 0,-9.55791 0,-0.8977 0,-1.93623 0,-0.12321 0,-0.0176 -0.12142,-0.75689 q -0.20817,-0.59847 -0.74592,-0.8625 l -0.17347,-0.088 q -0.34694,-0.14082 -0.79796,-0.15842 l -0.0867,0 -0.0694,0 -0.0174,0 -0.0347,0 -0.97143,0 -12.69796,0 m -5.79388,0.088 q 0,-0.14081 0.052,-0.22882 0.0347,-0.42245 0.15612,-0.75689 0.62449,-1.91862 3.13979,-1.91862 l 17.5898,0 q 2.98367,0 3.31326,2.69311 l 0.0347,0.21122 0,17.81327 0,0.22882 -0.0173,0.24643 0,0.0352 -0.0174,0.0704 q -0.12143,0.89771 -0.5551,1.51378 l -0.43367,0.45765 -0.24286,0.17602 q -0.62449,0.38725 -1.50919,0.47526 l -0.57244,0.0176 -17.5898,0 q -1.49183,0 -2.32448,-0.66888 l -0.41633,-0.44005 q -0.57244,-0.79209 -0.60714,-2.11224 l 0,-17.81327"
       id="path1155-3" />
    <path
       inkscape:connector-curvature="0"
       style="fill:#bb844d;stroke:none"
       d="m 427.85722,39.884377 0,-0.21122 0,-0.088 q 0,-0.36965 0.052,-0.68648 l 0.0347,-0.15842 0.0174,-0.15842 0.0173,-0.0352 q 0.48571,-2.27067 3.22653,-2.27067 l 17.5898,0 q 3.34795,0 3.34795,3.3972 l 0,0.21122 -0.0347,-0.21122 q -0.32959,-2.69311 -3.31326,-2.69311 l -17.5898,0 q -2.51531,0 -3.13979,1.91862 -0.12143,0.33444 -0.15613,0.75689 -0.052,0.088 -0.052,0.22882 m 2.77551,3.85485 0,-1.93623 q 0,-0.95051 0.46837,-1.44336 0.50306,-0.56327 1.57857,-0.56327 l 0.97143,0 0.5898,0.52806 0.36428,0.35204 0.0694,0.0528 5.32551,4.89337 5.58571,-5.1222 0.76327,-0.70408 0.97143,0 0.0347,0 0.0174,0 0.0694,0 0.0867,0 q 0.45102,0.0176 0.79796,0.15842 l 0.17347,0.088 0.39898,0.31684 0.34694,0.54566 0.12142,0.75689 0,0.0176 0,0.12321 0,1.93623 -5.70714,5.22781 -3.6602,3.36199 -6.31429,5.77346 -1.00612,0 -0.0347,0 -0.0347,0 -0.0173,0 -0.50306,-0.0528 -0.48572,-0.14082 q -0.93673,-0.42245 -0.97143,-1.725 l 0,-1.98903 5.22143,-4.77015 0.48572,-0.45765 -5.70715,-5.22781 m 18.73469,10.45561 0,1.98903 q -0.0347,1.30255 -0.97142,1.725 -0.43368,0.19362 -1.07551,0.19362 l -1.00613,0 -5.82857,-5.33341 3.66021,-3.34439 5.22142,4.77015"
       id="path1157-6" />
    <path
       inkscape:connector-curvature="0"
       style="fill:#946538;stroke:none"
       d="m 433.6511,39.796367 12.69796,0 -0.76327,0.70408 -11.15408,0 -0.19081,-0.17602 -0.5898,-0.52806 m 14.84898,0.24643 q 0.53775,0.26403 0.74592,0.8625 l -0.34694,-0.54566 -0.39898,-0.31684 m 0.86734,3.69643 0,0.8977 -5.22142,4.78776 -0.48572,-0.45765 5.70714,-5.22781 m -3.05306,14.36326 -0.97142,0 -5.34286,-4.89336 -5.34286,4.89336 -0.97143,0 6.31429,-5.77346 0.48571,0.44005 5.82857,5.33341 m -15.68163,-13.46556 0,-0.8977 5.70715,5.22781 -0.48572,0.45765 -5.22143,-4.78776"
       id="path1159-8" />
    <path
       inkscape:connector-curvature="0"
       style="fill:#a06d3d;stroke:none"
       d="m 430.63273,44.636927 5.22143,4.78776 -5.22143,4.77015 0,-9.55791 m 18.73469,0 0,9.55791 -5.22142,-4.77015 5.22142,-4.78776 m -4.02448,13.46556 -10.68572,0 5.34286,-4.89336 5.34286,4.89336 m -10.91123,-17.60204 11.15408,0 -5.58571,5.1222 -5.32551,-4.89337 -0.0694,-0.0528 -0.17347,-0.17602"
       id="path1161-1" />
    <path
       inkscape:connector-curvature="0"
       style="fill:#b17d49;stroke:none"
       d="m 440.00008,52.329027 3.6602,-3.36199 0.48572,0.45765 -3.66021,3.34439 -0.48571,-0.44005"
       id="path1163-3" />
    <path
       inkscape:connector-curvature="0"
       style="fill:#ae7640;stroke:none"
       d="m 405.43682,39.796367 -0.97143,0 q -1.07551,0 -1.57857,0.56327 -0.46837,0.49285 -0.46837,1.44336 l 0,1.93623 0,0.8977 0,9.55791 0,1.98903 q 0.0347,1.30255 0.97143,1.725 l 0.48572,0.14082 0.50306,0.0528 0.0173,0 0.0347,0 0.0347,0 1.00612,0 0.97143,0 10.68572,0 0.97142,0 1.00613,0 q 0.64183,0 1.07551,-0.19362 0.93673,-0.42245 0.97142,-1.725 l 0,-1.98903 0,-9.55791 0,-0.8977 0,-1.93623 0,-0.12321 0,-0.0176 -0.12142,-0.75689 q -0.20817,-0.59847 -0.74592,-0.8625 l -0.17347,-0.088 q -0.34694,-0.14082 -0.79796,-0.15842 l -0.0867,0 -0.0694,0 -0.0174,0 -0.0347,0 -0.97143,0 -12.69796,0 m -5.79388,0.088 q 0,-0.14081 0.052,-0.22882 0.0347,-0.42245 0.15612,-0.75689 0.62449,-1.91862 3.13979,-1.91862 l 17.5898,0 q 2.98367,0 3.31326,2.69311 l 0.0347,0.21122 0,17.81327 0,0.22882 -0.0173,0.24643 0,0.0352 -0.0174,0.0704 q -0.12143,0.89771 -0.5551,1.51378 l -0.43367,0.45765 -0.24286,0.17602 q -0.62449,0.38725 -1.50919,0.47526 l -0.57244,0.0176 -17.5898,0 q -1.49183,0 -2.32448,-0.66888 l -0.41633,-0.44005 q -0.57244,-0.79209 -0.60714,-2.11224 l 0,-17.81327"
       id="path1155-9" />
    <path
       inkscape:connector-curvature="0"
       style="fill:#bb844d;stroke:none"
       d="m 399.64294,39.884377 0,-0.21122 0,-0.088 q 0,-0.36965 0.052,-0.68648 l 0.0347,-0.15842 0.0174,-0.15842 0.0173,-0.0352 q 0.48571,-2.27067 3.22653,-2.27067 l 17.5898,0 q 3.34795,0 3.34795,3.3972 l 0,0.21122 -0.0347,-0.21122 q -0.32959,-2.69311 -3.31326,-2.69311 l -17.5898,0 q -2.51531,0 -3.13979,1.91862 -0.12143,0.33444 -0.15613,0.75689 -0.052,0.088 -0.052,0.22882 m 2.77551,3.85485 0,-1.93623 q 0,-0.95051 0.46837,-1.44336 0.50306,-0.56327 1.57857,-0.56327 l 0.97143,0 0.5898,0.52806 0.36428,0.35204 0.0694,0.0528 5.32551,4.89337 5.58571,-5.1222 0.76327,-0.70408 0.97143,0 0.0347,0 0.0174,0 0.0694,0 0.0867,0 q 0.45102,0.0176 0.79796,0.15842 l 0.17347,0.088 0.39898,0.31684 0.34694,0.54566 0.12142,0.75689 0,0.0176 0,0.12321 0,1.93623 -5.70714,5.22781 -3.6602,3.36199 -6.31429,5.77346 -1.00612,0 -0.0347,0 -0.0347,0 -0.0173,0 -0.50306,-0.0528 -0.48572,-0.14082 q -0.93673,-0.42245 -0.97143,-1.725 l 0,-1.98903 5.22143,-4.77015 0.48572,-0.45765 -5.70715,-5.22781 m 18.73469,10.45561 0,1.98903 q -0.0347,1.30255 -0.97142,1.725 -0.43368,0.19362 -1.07551,0.19362 l -1.00613,0 -5.82857,-5.33341 3.66021,-3.34439 5.22142,4.77015"
       id="path1157-68" />
    <path
       inkscape:connector-curvature="0"
       style="fill:#946538;stroke:none"
       d="m 405.43682,39.796367 12.69796,0 -0.76327,0.70408 -11.15408,0 -0.19081,-0.17602 -0.5898,-0.52806 m 14.84898,0.24643 q 0.53775,0.26403 0.74592,0.8625 l -0.34694,-0.54566 -0.39898,-0.31684 m 0.86734,3.69643 0,0.8977 -5.22142,4.78776 -0.48572,-0.45765 5.70714,-5.22781 m -3.05306,14.36326 -0.97142,0 -5.34286,-4.89336 -5.34286,4.89336 -0.97143,0 6.31429,-5.77346 0.48571,0.44005 5.82857,5.33341 m -15.68163,-13.46556 0,-0.8977 5.70715,5.22781 -0.48572,0.45765 -5.22143,-4.78776"
       id="path1159-6" />
    <path
       inkscape:connector-curvature="0"
       style="fill:#a06d3d;stroke:none"
       d="m 402.41845,44.636927 5.22143,4.78776 -5.22143,4.77015 0,-9.55791 m 18.73469,0 0,9.55791 -5.22142,-4.77015 5.22142,-4.78776 m -4.02448,13.46556 -10.68572,0 5.34286,-4.89336 5.34286,4.89336 m -10.91123,-17.60204 11.15408,0 -5.58571,5.1222 -5.32551,-4.89337 -0.0694,-0.0528 -0.17347,-0.17602"
       id="path1161-6" />
    <path
       inkscape:connector-curvature="0"
       style="fill:#b17d49;stroke:none"
       d="m 411.7858,52.329027 3.6602,-3.36199 0.48572,0.45765 -3.66021,3.34439 -0.48571,-0.44005"
       id="path1163-614" />
    <path
       transform="translate(-99.285714,-425.63887)"
       d="m 237.76149,488.00166 0,-2 150.93847,0 0,2 -150.93847,0"
       id="path99-1"
       inkscape:connector-curvature="0"
       style="fill:#93db24;stroke:none" />
    <path
       transform="translate(-99.285714,-425.63887)"
       d="m 376.13208,488.02197 0,-2 70,0 0,2 -70,0"
       id="path99-11"
       inkscape:connector-curvature="0"
       style="fill:#93db24;stroke:none" />
  </g>
</svg>
