<?xml version="1.0" encoding="UTF-8" standalone="no"?>
<!-- Created with Inkscape (http://www.inkscape.org/) -->

<svg
   xmlns:dc="http://purl.org/dc/elements/1.1/"
   xmlns:cc="http://creativecommons.org/ns#"
   xmlns:rdf="http://www.w3.org/1999/02/22-rdf-syntax-ns#"
   xmlns:svg="http://www.w3.org/2000/svg"
   xmlns="http://www.w3.org/2000/svg"
   xmlns:sodipodi="http://sodipodi.sourceforge.net/DTD/sodipodi-0.dtd"
   xmlns:inkscape="http://www.inkscape.org/namespaces/inkscape"
   width="23.464359mm"
   height="9.8777781mm"
   viewBox="0 0 83.14143 35.000001"
   id="svg12846"
   version="1.1"
   inkscape:version="0.91 r13725"
   sodipodi:docname="score.svg">
  <defs
     id="defs12848" />
  <sodipodi:namedview
     id="base"
     pagecolor="#ffffff"
     bordercolor="#666666"
     borderopacity="1.0"
     inkscape:pageopacity="0.0"
     inkscape:pageshadow="2"
     inkscape:zoom="3.959798"
     inkscape:cx="3.4327056"
     inkscape:cy="-1.4980024"
     inkscape:document-units="px"
     inkscape:current-layer="layer16"
     showgrid="false"
     fit-margin-top="0"
     fit-margin-left="0"
     fit-margin-right="5.2"
     fit-margin-bottom="0"
     inkscape:window-width="1440"
     inkscape:window-height="900"
     inkscape:window-x="-8"
     inkscape:window-y="1192"
     inkscape:window-maximized="1" />
  <metadata
     id="metadata12851">
    <rdf:RDF>
      <cc:Work
         rdf:about="">
        <dc:format>image/svg+xml</dc:format>
        <dc:type
           rdf:resource="http://purl.org/dc/dcmitype/StillImage" />
        <dc:title></dc:title>
      </cc:Work>
    </rdf:RDF>
  </metadata>
  <g
     inkscape:label="Taso 1"
     inkscape:groupmode="layer"
     id="layer1"
     transform="translate(-91.071429,-252.00506)">
    <path
       inkscape:connector-curvature="0"
       style="fill:#ffcc00;stroke:none"
       d="m 126.07143,270.50506 q -0.35,6.6 -5.15,11.4 -5.1,5.1 -12.35,5.1 -7.3,0 -12.400001,-5.1 -4.4,-4.45 -5,-10.4 l -0.05,-1 0.05,-0.95 q 0.6,-6 5,-10.4 5.100001,-5.15 12.400001,-5.15 7.25,0 12.35,5.15 4.8,4.75 5.15,11.35 m -17.45,-7.05 q 0.85,0 1.45,0.6 0.65,0.65 0.65,1.5 l 0,7.9 q 0,0.85 -0.65,1.45 -0.6,0.65 -1.45,0.65 l -0.05,0 q -0.85,0 -1.5,-0.65 -0.6,-0.6 -0.6,-1.45 l 0,-7.9 q 0,-0.85 0.6,-1.5 0.65,-0.6 1.5,-0.6 l 0.05,0 m 10.45,7.15 0,-0.5 0,-0.6 q 0,-4.35 -3.1,-7.4 -3.05,-3.1 -7.4,-3.1 -4.4,0 -7.45,3.1 -3.050001,3.05 -3.050001,7.4 l 0.05,0.6 0,0.2 q 0.2,3.85 3.000001,6.65 3.05,3.05 7.45,3.05 4.35,0 7.4,-3.05 2.7,-2.7 3.1,-6.35"
       id="path1251" />
    <path
       inkscape:connector-curvature="0"
       style="fill:#fee481;stroke:none"
       d="m 91.121429,270.50506 -0.05,-1 0.1,-2 q 0.6,-5.95 5,-10.35 5.100001,-5.15 12.400001,-5.15 7.25,0 12.35,5.15 5.15,5.1 5.15,12.35 l 0,1 q -0.35,-6.6 -5.15,-11.35 -5.1,-5.15 -12.35,-5.15 -7.3,0 -12.400001,5.15 -4.4,4.4 -5,10.4 l -0.05,0.95"
       id="path1253" />
    <path
       inkscape:connector-curvature="0"
       style="fill:#e3b602;stroke:none"
       d="m 108.62143,263.45506 -0.05,0 q -0.85,0 -1.5,0.6 -0.6,0.65 -0.6,1.5 l 0,7.9 q 0,0.85 0.6,1.45 0.65,0.65 1.5,0.65 l 0.05,0 q 0.85,0 1.45,-0.65 0.65,-0.6 0.65,-1.45 l 0,-7.9 q 0,-0.85 -0.65,-1.5 -0.6,-0.6 -1.45,-0.6 m -10.500001,6.85 q 0.4,-3.6 3.000001,-6.2 3.05,-3.1 7.45,-3.1 4.35,0 7.4,3.1 2.75,2.75 3.1,6.5 -0.4,3.65 -3.1,6.35 -3.05,3.05 -7.4,3.05 -4.4,0 -7.45,-3.05 -2.800001,-2.8 -3.000001,-6.65"
       id="path1255" />
    <path
       inkscape:connector-curvature="0"
       style="fill:#caa202;stroke:none"
       d="m 98.121429,270.30506 0,-0.2 -0.05,-0.6 q 0,-4.35 3.050001,-7.4 3.05,-3.1 7.45,-3.1 4.35,0 7.4,3.1 3.1,3.05 3.1,7.4 l 0,0.6 0,0.5 q -0.35,-3.75 -3.1,-6.5 -3.05,-3.1 -7.4,-3.1 -4.4,0 -7.45,3.1 -2.600001,2.6 -3.000001,6.2"
       id="path1257" />
  </g>
  <g
     inkscape:groupmode="layer"
     id="layer16"
     inkscape:label="Taso 2">
    <path
       inkscape:connector-curvature="0"
       style="fill:#ffffff;stroke:none"
       d="m 47.886105,13.306017 q -1.1,-1.1 0,-2.2 l 3.4,-3.3999997 q 1.1,-1.1 2.2,0 l 4.8,4.8499997 4.9,-4.8499997 2.2,0.05 3.4,3.3499997 q 1.05,1.1 0,2.2 l -4.9,4.850001 4.9,4.8 q 1.05,1.15 0,2.2 l -3.4,3.45 -2.2,-0.05 -4.9,-4.8 -4.8,4.8 q -1.1,1.1 -2.15,0 l -3.4,-3.4 q -1.15,-1.1 -0.05,-2.2 l 4.8,-4.8 -4.8,-4.850001"
       id="path375" />
    <path
       inkscape:connector-curvature="0"
       style="fill:#999999;stroke:none"
       d="m 47.886105,13.306017 4.8,4.850001 -4.8,4.8 q -1.1,1.1 0.05,2.2 l 3.4,3.4 q 1.05,1.1 2.15,0 l 4.8,-4.8 4.9,4.8 2.2,0.05 3.4,-3.45 q 1.05,-1.05 0,-2.2 l -4.9,-4.8 4.9,-4.850001 q 1.05,-1.1 0,-2.2 l -3.4,-3.3499997 -2.2,-0.05 -4.9,4.8499997 -4.8,-4.8499997 q -1.1,-1.1 -2.2,0 l -3.4,3.3999997 q -1.1,1.1 0,2.2 m -2.1,2.15 q -3.25,-3.25 0,-6.4499997 l 3.4,-3.4 q 3.2,-3.25 6.45,0 l 2.7,2.75 2.7,-2.7 0.05,-0.05 q 1.55,-1.65 3.25,-1.4 1.6,-0.15 3.2,1.45 l -0.05,0 3.4,3.35 0.1,0.05 q 3,3.1499997 0,6.3499997 l -0.1,0.05 -2.7,2.700001 2.7,2.65 0.15,0.15 q 3,3.3 -0.1,6.35 l 0,-0.05 -3.4,3.45 -0.05,0.1 q -1.65,1.55 -3.3,1.35 -1.6,0.1 -3.1,-1.45 l -2.75,-2.7 -2.7,2.7 q -1.6,1.55 -3.2,1.4 -1.7,0.15 -3.2,-1.4 l -3.4,-3.4 q -1.6,-1.55 -1.45,-3.15 -0.25,-1.7 1.4,-3.3 l 2.7,-2.7 -2.7,-2.750001 0,0.05"
       id="path377" />
  </g>
</svg>
