<?xml version="1.0" encoding="UTF-8" standalone="no"?>
<!-- Created with Inkscape (http://www.inkscape.org/) -->

<svg
   xmlns:dc="http://purl.org/dc/elements/1.1/"
   xmlns:cc="http://creativecommons.org/ns#"
   xmlns:rdf="http://www.w3.org/1999/02/22-rdf-syntax-ns#"
   xmlns:svg="http://www.w3.org/2000/svg"
   xmlns="http://www.w3.org/2000/svg"
   xmlns:sodipodi="http://sodipodi.sourceforge.net/DTD/sodipodi-0.dtd"
   xmlns:inkscape="http://www.inkscape.org/namespaces/inkscape"
   width="19.810249mm"
   height="29.460478mm"
   viewBox="0 0 70.193796 104.38752"
   id="svg9572"
   version="1.1"
   inkscape:version="0.91 r13725"
   sodipodi:docname="sign_blue_big_2.svg">
  <defs
     id="defs9574" />
  <sodipodi:namedview
     id="base"
     pagecolor="#ffffff"
     bordercolor="#666666"
     borderopacity="1.0"
     inkscape:pageopacity="0.0"
     inkscape:pageshadow="2"
     inkscape:zoom="11.2"
     inkscape:cx="35.562165"
     inkscape:cy="92.765127"
     inkscape:document-units="px"
     inkscape:current-layer="layer1"
     showgrid="false"
     fit-margin-top="0"
     fit-margin-left="0"
     fit-margin-right="0"
     fit-margin-bottom="0"
     inkscape:window-width="1440"
     inkscape:window-height="900"
     inkscape:window-x="-8"
     inkscape:window-y="1192"
     inkscape:window-maximized="1" />
  <metadata
     id="metadata9577">
    <rdf:RDF>
      <cc:Work
         rdf:about="">
        <dc:format>image/svg+xml</dc:format>
        <dc:type
           rdf:resource="http://purl.org/dc/dcmitype/StillImage" />
        <dc:title></dc:title>
      </cc:Work>
    </rdf:RDF>
  </metadata>
  <g
     inkscape:label="Taso 1"
     inkscape:groupmode="layer"
     id="layer1"
     transform="translate(-316.33929,-315.39792)"
     style="display:inline">
    <path
       inkscape:connector-curvature="0"
       style="fill:#d3ad89;stroke:none"
       d="m 357.09286,321.39792 -0.35,0 q -0.45,-1.2 -1.45,-2.2 -1.75,-1.8 -4.3,-1.8 -2.55,0 -4.35,1.8 -0.95,1 -1.4,2.2 l -0.35,0 q 0.05,-2.45 1.75,-4.2 1.8,-1.8 4.35,-1.8 2.55,0 4.3,1.8 1.75,1.75 1.8,4.2"
       id="path1559" />
    <path
       inkscape:connector-curvature="0"
       style="fill:#c99869;stroke:none"
       d="m 357.62857,363.67628 0,35.1145 -12.2,0 0,-35.1145 12.2,0"
       id="path1561"
       sodipodi:nodetypes="ccccc" />
    <path
       inkscape:connector-curvature="0"
       style="fill:#b98046;stroke:none"
       d="m 345.42858,361.66577 12.2,0 0,2 -12.2,0 0,-2"
       id="path1563" />
    <path
       inkscape:connector-curvature="0"
       style="fill:#bbcbcc;stroke:none"
       d="m 316.53309,414.88544 0,-1.5 0,-0.25 q 0,-1.05 0.15,-1.95 l 0.1,-0.45 0.05,-0.45 0.05,-0.1 q 1.4,-6.5 9.3,-6.5 l 6.25,0 2.1,0 24.05,0 4.8,0 5.15,0 2.1,0 6.25,0 q 9.65,0 9.65,9.7 l 0,1.5 q -0.25,-9.2 -9.65,-9.2 l -50.7,0 q -7.25,0 -9.05,5.5 -0.55,1.6 -0.6,3.7"
       id="path1353" />
    <path
       inkscape:connector-curvature="0"
       style="fill:#acc0c1;stroke:none"
       d="m 316.53309,414.88544 q 0.05,-2.1 0.6,-3.7 1.8,-5.5 9.05,-5.5 l 50.7,0 q 9.4,0 9.65,9.2 l 0,4.9 -70,0 0,-4.9"
       id="path1355" />
    <path
       inkscape:connector-curvature="0"
       style="fill:#fee481;stroke:none"
       d="m 370.72238,404.04258 -2.1,0 -0.5,-0.5 q -6.85,-6.9 -16.5,-6.9 -9.65,0 -16.55,6.9 l -0.45,0.5 -2.1,0 q 1.15,-1.55 2.55,-3 6.9,-6.9 16.55,-6.9 9.65,0 16.5,6.9 l 2.6,3"
       id="path1357" />
    <path
       inkscape:connector-curvature="0"
       style="fill:#ffcc00;stroke:none"
       d="m 368.62238,404.04258 -5.15,0 q -1.1,-0.45 -2.4,-0.45 -1.3,0 -2.4,0.45 l -24.05,0 0.45,-0.5 q 6.9,-6.9 16.55,-6.9 9.65,0 16.5,6.9 l 0.5,0.5"
       id="path1359" />
    <path
       inkscape:connector-curvature="0"
       style="fill:#fee170;stroke:none"
       d="m 363.47238,404.04258 -4.8,0 q 1.1,-0.45 2.4,-0.45 1.3,0 2.4,0.45"
       id="path1361" />
    <path
       inkscape:connector-curvature="0"
       style="display:inline;fill:#c99869;stroke:none"
       d="m 356.73214,321.36633 -11.5,0 c 0.3,-1.02689 0.76667,-1.96821 1.4,-2.82395 1.2,-1.54034 2.65,-2.31051 4.35,-2.31051 1.7,0 3.13333,0.77017 4.3,2.31051 0.66667,0.85574 1.15,1.79706 1.45,2.82395"
       id="path1561-8"
       sodipodi:nodetypes="cccscc" />
  </g>
  <g
     inkscape:groupmode="layer"
     id="layer9"
     inkscape:label="Layer 1"
     style="display:inline"
     transform="translate(0.08928,13.39286)">
    <path
       inkscape:connector-curvature="0"
       style="fill:#acc0c1;stroke:none"
       d="m 0.07347685,86.141255 q 0.05,-2.1 0.6,-3.7 1.80000005,-5.5 9.05000005,-5.5 l 50.7000001,0 q 9.4,0 9.65,9.2 l 0,4.9 -70.00000015,0 0,-4.9"
       id="path1345" />
    <path
       inkscape:connector-curvature="0"
       style="fill:#bbcbcc;stroke:none"
       d="m 0.07347685,86.141255 0,-1.5 0,-0.25 q 0,-1.05 0.15,-1.95 l 0.1,-0.45 0.05,-0.45 0.05,-0.1 q 1.40000005,-6.5 9.30000005,-6.5 l 6.2500001,0 2.1,0 24.05,0 4.8,0 5.15,0 2.1,0 6.25,0 q 9.65,0 9.65,9.7 l 0,1.5 q -0.25,-9.2 -9.65,-9.2 l -50.7000001,0 q -7.25,0 -9.05000005,5.5 -0.55,1.6 -0.6,3.7"
       id="path1347" />
    <path
       inkscape:connector-curvature="0"
       style="fill:#b1e39b;stroke:none"
       d="m 54.262763,75.298398 -2.1,0 -0.5,-0.5 q -6.85,-6.9 -16.5,-6.9 -9.65,0 -16.55,6.9 l -0.45,0.5 -2.1,0 q 1.15,-1.55 2.55,-3 6.9,-6.9 16.55,-6.9 9.65,0 16.5,6.9 l 2.6,3 m -7.25,0 -4.8,0 q 1.1,-0.45 2.4,-0.45 l 2.4,0.45"
       id="path1349" />
    <path
       inkscape:connector-curvature="0"
       style="fill:#73cd4b;stroke:none"
       d="m 47.012763,75.298398 -2.4,-0.45 q -1.3,0 -2.4,0.45 l -24.05,0 0.45,-0.5 q 6.9,-6.9 16.55,-6.9 9.65,0 16.5,6.9 l 0.5,0.5 -5.15,0"
       id="path1351" />
    <path
       inkscape:connector-curvature="0"
       style="fill:#acc0c1;stroke:none"
       d="m 0.04464304,86.103595 q 0.05,-2.1 0.6,-3.7 1.80000006,-5.5 9.04999996,-5.5 l 50.7,0 q 9.4,0 9.65,9.2 l 0,4.9 -69.99999996,0 0,-4.9"
       id="path1337" />
    <path
       inkscape:connector-curvature="0"
       style="fill:#bbcbcc;stroke:none"
       d="m 0.04464304,86.103595 0,-1.5 0,-0.25 q 0,-1.05 0.15,-1.95 l 0.1,-0.45 0.05,-0.45 0.05,-0.1 q 1.40000006,-6.5 9.29999996,-6.5 l 6.25,0 2.1,0 24.05,0 4.8,0 5.15,0 2.1,0 6.25,0 q 9.65,0 9.65,9.7 l 0,1.5 q -0.25,-9.2 -9.65,-9.2 l -50.7,0 q -7.2499999,0 -9.04999996,5.5 -0.55,1.6 -0.6,3.7"
       id="path1339" />
    <path
       inkscape:connector-curvature="0"
       style="fill:#ef975c;stroke:none"
       d="m 54.233929,75.260738 -2.1,0 -0.5,-0.5 q -6.85,-6.9 -16.5,-6.9 -9.65,0 -16.55,6.9 l -0.45,0.5 -2.1,0 q 1.15,-1.55 2.55,-3 6.9,-6.9 16.55,-6.9 9.65,0 16.5,6.9 l 2.6,3 m -7.25,0 -4.8,0 q 1.1,-0.45 2.4,-0.45 1.3,0 2.4,0.45"
       id="path1341" />
    <path
       inkscape:connector-curvature="0"
       style="fill:#e86a17;stroke:none"
       d="m 46.983929,75.260738 q -1.1,-0.45 -2.4,-0.45 -1.3,0 -2.4,0.45 l -24.05,0 0.45,-0.5 q 6.9,-6.9 16.55,-6.9 9.65,0 16.5,6.9 l 0.5,0.5 -5.15,0"
       id="path1343" />
    <path
       inkscape:connector-curvature="0"
       style="fill:#bbcbcc;stroke:none"
       d="m 70.089286,86.058957 q -0.25,-9.200005 -9.65,-9.200005 l -50.6999997,0 q -7.25,0 -9.05000044,5.5 -0.55,1.600005 -0.6,3.700005 l 0,-1.5 0,-0.25 q 0,-1.050005 0.15,-1.950005 l 0.1,-0.45 0.05,-0.45 0.05,-0.1 q 1.40000004,-6.5 9.30000044,-6.5 l 6.2499997,0 2.1,0 24.05,0 4.8,0 5.15,0 2.1,0 6.25,0 q 9.65,0 9.65,9.700005 l 0,1.5"
       id="path1329" />
    <path
       inkscape:connector-curvature="0"
       style="fill:#acc0c1;stroke:none"
       d="m 70.089286,86.058957 0,4.9 -70.00000014,0 0,-4.9 q 0.05,-2.1 0.6,-3.700005 1.80000044,-5.5 9.05000044,-5.5 l 50.6999997,0 q 9.4,0 9.65,9.200005"
       id="path1331" />
    <path
       inkscape:connector-curvature="0"
       style="fill:#69c5eb;stroke:none"
       d="m 16.078572,75.216095 q 1.15,-1.55 2.55,-3 6.9,-6.9 16.55,-6.9 9.65,0 16.5,6.9 l 2.6,3 -2.1,0 -0.5,-0.5 q -6.85,-6.9 -16.5,-6.9 -9.65,0 -16.55,6.9 l -0.45,0.5 -2.1,0 m 30.95,0 -4.8,0 q 1.1,-0.45 2.4,-0.45 l 2.4,0.45"
       id="path1333" />
    <path
       inkscape:connector-curvature="0"
       style="fill:#1ea7e1;stroke:none"
       d="m 47.028572,75.216095 -2.4,-0.45 q -1.3,0 -2.4,0.45 l -24.05,0 0.45,-0.5 q 6.9,-6.9 16.55,-6.9 9.65,0 16.5,6.9 l 0.5,0.5 -5.15,0"
       id="path1335" />
    <path
       inkscape:connector-curvature="0"
       style="fill:#ffcc00;stroke:none"
       d="m 35.017857,60.805381 q -0.85,-0.85 -2.05,-0.85 -1.15,0 -2,0.85 -0.85,0.8 -0.85,2 0,1.2 0.85,2 0.85,0.85 2,0.85 1.2,0 2.05,-0.85 0.8,-0.8 0.8,-2 0,-1.2 -0.8,-2 m -23.15,10.05 q 0.2,-9.3 6.85,-16.05 6.9,-6.9 16.55,-6.9 9.65,0 16.499996,6.9 6.7,6.75 6.9,16.05 l 0,4.45 -46.799996,0 0,-4.45 m 37.25,-5.3 q 1.849996,-1.8 1.849996,-4.4 0,-2.65 -1.849996,-4.5 -1.8,-1.8 -4.4,-1.8 -2.6,0 -4.45,1.8 -1.8,1.85 -1.8,4.5 0,2.6 1.8,4.4 1.85,1.9 4.45,1.9 2.6,0 4.4,-1.9"
       id="path1319" />
    <path
       inkscape:connector-curvature="0"
       style="fill:#fee170;stroke:none"
       d="m 49.117857,65.555381 q -1.8,1.9 -4.4,1.9 -2.6,0 -4.45,-1.9 -1.8,-1.8 -1.8,-4.4 0,-2.65 1.8,-4.5 1.85,-1.8 4.45,-1.8 2.6,0 4.4,1.8 1.849996,1.85 1.849996,4.5 0,2.6 -1.849996,4.4 m -14.1,-4.75 q 0.8,0.8 0.8,2 0,1.2 -0.8,2 -0.85,0.85 -2.05,0.85 -1.15,0 -2,-0.85 -0.85,-0.8 -0.85,-2 0,-1.2 0.85,-2 0.85,-0.85 2,-0.85 1.2,0 2.05,0.85"
       id="path1321" />
    <path
       inkscape:connector-curvature="0"
       style="fill:#fee481;stroke:none"
       d="m 11.867857,70.855381 0,-1.9 q 0,-9.7 6.85,-16.65 6.9,-6.9 16.55,-6.9 9.65,0 16.499996,6.9 6.9,6.95 6.9,16.65 l 0,1.9 q -0.2,-9.3 -6.9,-16.05 -6.849996,-6.9 -16.499996,-6.9 -9.65,0 -16.55,6.9 -6.65,6.75 -6.85,16.05"
       id="path1323" />
    <path
       inkscape:connector-curvature="0"
       style="fill:#acc0c1;stroke:none"
       d="m 70.178567,86.148238 0,4.9 -69.99999596,0 0,-4.9 q 0.05,-2.1 0.6,-3.7 1.79999996,-5.5 9.04999996,-5.5 l 50.699996,0 q 9.4,0 9.65,9.2"
       id="path1325" />
    <path
       inkscape:connector-curvature="0"
       style="fill:#bbcbcc;stroke:none"
       d="m 70.178567,86.148238 q -0.25,-9.2 -9.65,-9.2 l -50.699996,0 q -7.25,0 -9.04999996,5.5 -0.55,1.6 -0.6,3.7 l 0,-1.5 0,-0.25 q 0,-1.05 0.15,-1.95 l 0.1,-0.45 0.05,-0.45 0.05,-0.1 q 1.39999996,-6.5 9.29999996,-6.5 l 1.95,0 46.799996,0 1.95,0 q 9.65,0 9.65,9.7 l 0,1.5"
       id="path1327" />
    <path
       inkscape:connector-curvature="0"
       style="fill:#e86a17;stroke:none"
       d="m 12.046429,70.512524 q 0.2,-9.3 6.85,-16.05 6.9,-6.9 16.55,-6.9 9.65,0 16.500001,6.9 6.7,6.75 6.9,16.05 l 0,4.45 -46.800001,0 0,-4.45 m 19.1,-10.05 q -0.85,0.8 -0.85,2 0,1.2 0.85,2 0.85,0.85 2,0.85 1.2,0 2.05,-0.85 0.8,-0.8 0.8,-2 0,-1.2 -0.8,-2 -0.85,-0.85 -2.05,-0.85 -1.15,0 -2,0.85 m 18.15,-4.15 q -1.8,-1.8 -4.4,-1.8 -2.6,0 -4.45,1.8 -1.8,1.85 -1.8,4.5 0,2.6 1.8,4.4 1.85,1.9 4.45,1.9 2.6,0 4.4,-1.9 1.850001,-1.8 1.850001,-4.4 0,-2.65 -1.850001,-4.5"
       id="path1295" />
    <path
       inkscape:connector-curvature="0"
       style="fill:#ef975c;stroke:none"
       d="m 12.046429,70.512524 0,-1.9 q 0,-9.7 6.85,-16.65 6.9,-6.9 16.55,-6.9 9.65,0 16.500001,6.9 6.9,6.95 6.9,16.65 l 0,1.9 q -0.2,-9.3 -6.9,-16.05 -6.850001,-6.9 -16.500001,-6.9 -9.65,0 -16.55,6.9 -6.65,6.75 -6.85,16.05 m 37.25,-14.2 q 1.850001,1.85 1.850001,4.5 0,2.6 -1.850001,4.4 -1.8,1.9 -4.4,1.9 -2.6,0 -4.45,-1.9 -1.8,-1.8 -1.8,-4.4 0,-2.65 1.8,-4.5 1.85,-1.8 4.45,-1.8 2.6,0 4.4,1.8 m -18.15,4.15 q 0.85,-0.85 2,-0.85 1.2,0 2.05,0.85 0.8,0.8 0.8,2 0,1.2 -0.8,2 -0.85,0.85 -2.05,0.85 -1.15,0 -2,-0.85 -0.85,-0.8 -0.85,-2 0,-1.2 0.85,-2"
       id="path1301" />
    <path
       inkscape:connector-curvature="0"
       style="fill:#1ea7e1;stroke:none"
       d="m 58.757143,74.962524 -46.8,0 0,-4.45 q 0.2,-9.3 6.85,-16.05 6.9,-6.9 16.55,-6.9 9.65,0 16.5,6.9 6.7,6.75 6.9,16.05 l 0,4.45 m -25.7,-15.35 q -1.15,0 -2,0.85 -0.85,0.8 -0.85,2 0,1.2 0.85,2 0.85,0.85 2,0.85 1.2,0 2.05,-0.85 0.8,-0.8 0.8,-2 0,-1.2 -0.8,-2 -0.85,-0.85 -2.05,-0.85 m 18,1.2 q 0,-2.65 -1.85,-4.5 -1.8,-1.8 -4.4,-1.8 -2.6,0 -4.45,1.8 -1.8,1.85 -1.8,4.5 0,2.6 1.8,4.4 1.85,1.9 4.45,1.9 2.6,0 4.4,-1.9 1.85,-1.8 1.85,-4.4"
       id="path1307" />
    <path
       inkscape:connector-curvature="0"
       style="fill:#69c5eb;stroke:none"
       d="m 51.057143,60.812524 q 0,2.6 -1.85,4.4 -1.8,1.9 -4.4,1.9 -2.6,0 -4.45,-1.9 -1.8,-1.8 -1.8,-4.4 0,-2.65 1.8,-4.5 1.85,-1.8 4.45,-1.8 2.6,0 4.4,1.8 1.85,1.85 1.85,4.5 m -39.1,9.7 0,-1.9 q 0,-9.7 6.85,-16.65 6.9,-6.9 16.55,-6.9 9.65,0 16.5,6.9 6.9,6.95 6.9,16.65 l 0,1.9 q -0.2,-9.3 -6.9,-16.05 -6.85,-6.9 -16.5,-6.9 -9.65,0 -16.55,6.9 -6.65,6.75 -6.85,16.05 m 21.1,-10.9 q 1.2,0 2.05,0.85 0.8,0.8 0.8,2 0,1.2 -0.8,2 -0.85,0.85 -2.05,0.85 -1.15,0 -2,-0.85 -0.85,-0.8 -0.85,-2 0,-1.2 0.85,-2 0.85,-0.85 2,-0.85"
       id="path1309" />
  </g>
  <g
     inkscape:groupmode="layer"
     id="layer11"
     inkscape:label="Taso 2"
     style="display:none"
     transform="translate(0.08928,13.39286)">
    <path
       inkscape:connector-curvature="0"
       style="fill:#acc0c1;stroke:none"
       d="m -1.1706929e-7,85.969666 q 0.0499999970693,-2.1 0.59999999706929,-3.7 1.80000002,-5.5 9.05000002,-5.5 l 50.7000001,0 q 9.4,0 9.65,9.2 l 0,4.9 -70.00000011706927,0 0,-4.9"
       id="path1311" />
    <path
       inkscape:connector-curvature="0"
       style="fill:#bbcbcc;stroke:none"
       d="m -1.1706929e-7,85.969666 0,-1.5 0,-0.25 q 0,-1.05 0.14999999706929,-1.95 l 0.1,-0.45 0.05,-0.45 0.05,-0.1 q 1.40000002,-6.5 9.30000002,-6.5 l 1.9500001,0 46.8,0 1.95,0 q 9.65,0 9.65,9.7 l 0,1.5 q -0.25,-9.2 -9.65,-9.2 l -50.7000001,0 q -7.25,0 -9.05000002,5.5 -0.55,1.6 -0.5999999970693,3.7"
       id="path1313" />
    <path
       inkscape:connector-curvature="0"
       style="fill:#b1e39b;stroke:none"
       d="m 11.6,70.319666 0,-1.9 q 0,-9.7 6.85,-16.65 6.9,-6.9 16.55,-6.9 9.65,0 16.5,6.9 6.9,6.95 6.9,16.65 l 0,1.9 q -0.2,-9.3 -6.9,-16.05 -6.85,-6.9 -16.5,-6.9 -9.65,0 -16.55,6.9 -6.65,6.75 -6.85,16.05 m 18.25,-8.05 q 0,-1.2 0.85,-2 0.85,-0.85 2,-0.85 1.2,0 2.05,0.85 0.8,0.8 0.8,2 0,1.2 -0.8,2 -0.85,0.85 -2.05,0.85 -1.15,0 -2,-0.85 -0.85,-0.8 -0.85,-2 m 14.6,4.65 q -2.6,0 -4.45,-1.9 -1.8,-1.8 -1.8,-4.4 0,-2.65 1.8,-4.5 1.85,-1.8 4.45,-1.8 2.6,0 4.4,1.8 1.85,1.85 1.85,4.5 0,2.6 -1.85,4.4 -1.8,1.9 -4.4,1.9"
       id="path1315" />
    <path
       inkscape:connector-curvature="0"
       style="fill:#73cd4b;stroke:none"
       d="m 44.45,66.919666 q 2.6,0 4.4,-1.9 1.85,-1.8 1.85,-4.4 0,-2.65 -1.85,-4.5 -1.8,-1.8 -4.4,-1.8 -2.6,0 -4.45,1.8 -1.8,1.85 -1.8,4.5 0,2.6 1.8,4.4 1.85,1.9 4.45,1.9 m 13.95,7.85 -46.8,0 0,-4.45 q 0.2,-9.3 6.85,-16.05 6.9,-6.9 16.55,-6.9 9.65,0 16.5,6.9 6.7,6.75 6.9,16.05 l 0,4.45 m -28.55,-12.5 q 0,1.2 0.85,2 0.85,0.85 2,0.85 1.2,0 2.05,-0.85 0.8,-0.8 0.8,-2 0,-1.2 -0.8,-2 -0.85,-0.85 -2.05,-0.85 -1.15,0 -2,0.85 -0.85,0.8 -0.85,2"
       id="path1317" />
  </g>
</svg>
